%TF.GenerationSoftware,KiCad,Pcbnew,9.0.2*%
%TF.CreationDate,2026-01-18T21:17:22+03:00*%
%TF.ProjectId,bitLode,6269744c-6f64-4652-9e6b-696361645f70,rev?*%
%TF.SameCoordinates,Original*%
%TF.FileFunction,Legend,Top*%
%TF.FilePolarity,Positive*%
%FSLAX46Y46*%
G04 Gerber Fmt 4.6, Leading zero omitted, Abs format (unit mm)*
G04 Created by KiCad (PCBNEW 9.0.2) date 2026-01-18 21:17:22*
%MOMM*%
%LPD*%
G01*
G04 APERTURE LIST*
G04 Aperture macros list*
%AMRoundRect*
0 Rectangle with rounded corners*
0 $1 Rounding radius*
0 $2 $3 $4 $5 $6 $7 $8 $9 X,Y pos of 4 corners*
0 Add a 4 corners polygon primitive as box body*
4,1,4,$2,$3,$4,$5,$6,$7,$8,$9,$2,$3,0*
0 Add four circle primitives for the rounded corners*
1,1,$1+$1,$2,$3*
1,1,$1+$1,$4,$5*
1,1,$1+$1,$6,$7*
1,1,$1+$1,$8,$9*
0 Add four rect primitives between the rounded corners*
20,1,$1+$1,$2,$3,$4,$5,0*
20,1,$1+$1,$4,$5,$6,$7,0*
20,1,$1+$1,$6,$7,$8,$9,0*
20,1,$1+$1,$8,$9,$2,$3,0*%
G04 Aperture macros list end*
%ADD10C,0.125000*%
%ADD11C,0.150000*%
%ADD12C,0.120000*%
%ADD13C,0.127000*%
%ADD14C,0.250000*%
%ADD15C,0.200000*%
%ADD16RoundRect,0.140000X0.170000X-0.140000X0.170000X0.140000X-0.170000X0.140000X-0.170000X-0.140000X0*%
%ADD17R,0.620000X1.100000*%
%ADD18RoundRect,0.135000X0.185000X-0.135000X0.185000X0.135000X-0.185000X0.135000X-0.185000X-0.135000X0*%
%ADD19RoundRect,0.140000X-0.140000X-0.170000X0.140000X-0.170000X0.140000X0.170000X-0.140000X0.170000X0*%
%ADD20R,0.580000X0.280000*%
%ADD21R,0.200000X1.600000*%
%ADD22RoundRect,0.140000X-0.170000X0.140000X-0.170000X-0.140000X0.170000X-0.140000X0.170000X0.140000X0*%
%ADD23R,1.400000X1.200000*%
%ADD24RoundRect,0.135000X-0.185000X0.135000X-0.185000X-0.135000X0.185000X-0.135000X0.185000X0.135000X0*%
%ADD25RoundRect,0.135000X-0.135000X-0.185000X0.135000X-0.185000X0.135000X0.185000X-0.135000X0.185000X0*%
%ADD26C,0.650000*%
%ADD27RoundRect,0.150000X-0.150000X-0.425000X0.150000X-0.425000X0.150000X0.425000X-0.150000X0.425000X0*%
%ADD28RoundRect,0.075000X-0.075000X-0.500000X0.075000X-0.500000X0.075000X0.500000X-0.075000X0.500000X0*%
%ADD29O,1.000000X2.100000*%
%ADD30O,1.000000X1.800000*%
%ADD31RoundRect,0.135000X0.135000X0.185000X-0.135000X0.185000X-0.135000X-0.185000X0.135000X-0.185000X0*%
%ADD32C,1.350000*%
%ADD33R,1.350000X1.350000*%
%ADD34RoundRect,0.050000X0.387500X0.050000X-0.387500X0.050000X-0.387500X-0.050000X0.387500X-0.050000X0*%
%ADD35RoundRect,0.050000X0.050000X0.387500X-0.050000X0.387500X-0.050000X-0.387500X0.050000X-0.387500X0*%
%ADD36R,3.200000X3.200000*%
G04 APERTURE END LIST*
D10*
X122984480Y-84322525D02*
X122984480Y-84084430D01*
X123127337Y-84370144D02*
X122627337Y-84203478D01*
X122627337Y-84203478D02*
X123127337Y-84036811D01*
X123127337Y-83608240D02*
X123127337Y-83893954D01*
X123127337Y-83751097D02*
X122627337Y-83751097D01*
X122627337Y-83751097D02*
X122698766Y-83798716D01*
X122698766Y-83798716D02*
X122746385Y-83846335D01*
X122746385Y-83846335D02*
X122770194Y-83893954D01*
X123908500Y-84322525D02*
X123932309Y-84251097D01*
X123932309Y-84251097D02*
X123932309Y-84132049D01*
X123932309Y-84132049D02*
X123908500Y-84084430D01*
X123908500Y-84084430D02*
X123884690Y-84060621D01*
X123884690Y-84060621D02*
X123837071Y-84036811D01*
X123837071Y-84036811D02*
X123789452Y-84036811D01*
X123789452Y-84036811D02*
X123741833Y-84060621D01*
X123741833Y-84060621D02*
X123718023Y-84084430D01*
X123718023Y-84084430D02*
X123694214Y-84132049D01*
X123694214Y-84132049D02*
X123670404Y-84227287D01*
X123670404Y-84227287D02*
X123646595Y-84274906D01*
X123646595Y-84274906D02*
X123622785Y-84298716D01*
X123622785Y-84298716D02*
X123575166Y-84322525D01*
X123575166Y-84322525D02*
X123527547Y-84322525D01*
X123527547Y-84322525D02*
X123479928Y-84298716D01*
X123479928Y-84298716D02*
X123456119Y-84274906D01*
X123456119Y-84274906D02*
X123432309Y-84227287D01*
X123432309Y-84227287D02*
X123432309Y-84108240D01*
X123432309Y-84108240D02*
X123456119Y-84036811D01*
X123932309Y-83822526D02*
X123432309Y-83822526D01*
X123432309Y-83822526D02*
X123432309Y-83703478D01*
X123432309Y-83703478D02*
X123456119Y-83632050D01*
X123456119Y-83632050D02*
X123503738Y-83584431D01*
X123503738Y-83584431D02*
X123551357Y-83560621D01*
X123551357Y-83560621D02*
X123646595Y-83536812D01*
X123646595Y-83536812D02*
X123718023Y-83536812D01*
X123718023Y-83536812D02*
X123813261Y-83560621D01*
X123813261Y-83560621D02*
X123860880Y-83584431D01*
X123860880Y-83584431D02*
X123908500Y-83632050D01*
X123908500Y-83632050D02*
X123932309Y-83703478D01*
X123932309Y-83703478D02*
X123932309Y-83822526D01*
X123789452Y-83346335D02*
X123789452Y-83108240D01*
X123932309Y-83393954D02*
X123432309Y-83227288D01*
X123432309Y-83227288D02*
X123932309Y-83060621D01*
X122984480Y-86322525D02*
X122984480Y-86084430D01*
X123127337Y-86370144D02*
X122627337Y-86203478D01*
X122627337Y-86203478D02*
X123127337Y-86036811D01*
X122627337Y-85774907D02*
X122627337Y-85727288D01*
X122627337Y-85727288D02*
X122651147Y-85679669D01*
X122651147Y-85679669D02*
X122674956Y-85655859D01*
X122674956Y-85655859D02*
X122722575Y-85632050D01*
X122722575Y-85632050D02*
X122817813Y-85608240D01*
X122817813Y-85608240D02*
X122936861Y-85608240D01*
X122936861Y-85608240D02*
X123032099Y-85632050D01*
X123032099Y-85632050D02*
X123079718Y-85655859D01*
X123079718Y-85655859D02*
X123103528Y-85679669D01*
X123103528Y-85679669D02*
X123127337Y-85727288D01*
X123127337Y-85727288D02*
X123127337Y-85774907D01*
X123127337Y-85774907D02*
X123103528Y-85822526D01*
X123103528Y-85822526D02*
X123079718Y-85846335D01*
X123079718Y-85846335D02*
X123032099Y-85870145D01*
X123032099Y-85870145D02*
X122936861Y-85893954D01*
X122936861Y-85893954D02*
X122817813Y-85893954D01*
X122817813Y-85893954D02*
X122722575Y-85870145D01*
X122722575Y-85870145D02*
X122674956Y-85846335D01*
X122674956Y-85846335D02*
X122651147Y-85822526D01*
X122651147Y-85822526D02*
X122627337Y-85774907D01*
X123908500Y-86322525D02*
X123932309Y-86251097D01*
X123932309Y-86251097D02*
X123932309Y-86132049D01*
X123932309Y-86132049D02*
X123908500Y-86084430D01*
X123908500Y-86084430D02*
X123884690Y-86060621D01*
X123884690Y-86060621D02*
X123837071Y-86036811D01*
X123837071Y-86036811D02*
X123789452Y-86036811D01*
X123789452Y-86036811D02*
X123741833Y-86060621D01*
X123741833Y-86060621D02*
X123718023Y-86084430D01*
X123718023Y-86084430D02*
X123694214Y-86132049D01*
X123694214Y-86132049D02*
X123670404Y-86227287D01*
X123670404Y-86227287D02*
X123646595Y-86274906D01*
X123646595Y-86274906D02*
X123622785Y-86298716D01*
X123622785Y-86298716D02*
X123575166Y-86322525D01*
X123575166Y-86322525D02*
X123527547Y-86322525D01*
X123527547Y-86322525D02*
X123479928Y-86298716D01*
X123479928Y-86298716D02*
X123456119Y-86274906D01*
X123456119Y-86274906D02*
X123432309Y-86227287D01*
X123432309Y-86227287D02*
X123432309Y-86108240D01*
X123432309Y-86108240D02*
X123456119Y-86036811D01*
X123884690Y-85536812D02*
X123908500Y-85560621D01*
X123908500Y-85560621D02*
X123932309Y-85632050D01*
X123932309Y-85632050D02*
X123932309Y-85679669D01*
X123932309Y-85679669D02*
X123908500Y-85751097D01*
X123908500Y-85751097D02*
X123860880Y-85798716D01*
X123860880Y-85798716D02*
X123813261Y-85822526D01*
X123813261Y-85822526D02*
X123718023Y-85846335D01*
X123718023Y-85846335D02*
X123646595Y-85846335D01*
X123646595Y-85846335D02*
X123551357Y-85822526D01*
X123551357Y-85822526D02*
X123503738Y-85798716D01*
X123503738Y-85798716D02*
X123456119Y-85751097D01*
X123456119Y-85751097D02*
X123432309Y-85679669D01*
X123432309Y-85679669D02*
X123432309Y-85632050D01*
X123432309Y-85632050D02*
X123456119Y-85560621D01*
X123456119Y-85560621D02*
X123479928Y-85536812D01*
X123932309Y-85084431D02*
X123932309Y-85322526D01*
X123932309Y-85322526D02*
X123432309Y-85322526D01*
D11*
X126000000Y-89000000D02*
X124000000Y-89000000D01*
X126500000Y-89500000D02*
X126000000Y-89000000D01*
D10*
X123932309Y-90013002D02*
X123694214Y-90179668D01*
X123932309Y-90298716D02*
X123432309Y-90298716D01*
X123432309Y-90298716D02*
X123432309Y-90108240D01*
X123432309Y-90108240D02*
X123456119Y-90060621D01*
X123456119Y-90060621D02*
X123479928Y-90036811D01*
X123479928Y-90036811D02*
X123527547Y-90013002D01*
X123527547Y-90013002D02*
X123598976Y-90013002D01*
X123598976Y-90013002D02*
X123646595Y-90036811D01*
X123646595Y-90036811D02*
X123670404Y-90060621D01*
X123670404Y-90060621D02*
X123694214Y-90108240D01*
X123694214Y-90108240D02*
X123694214Y-90298716D01*
X123908500Y-89822525D02*
X123932309Y-89751097D01*
X123932309Y-89751097D02*
X123932309Y-89632049D01*
X123932309Y-89632049D02*
X123908500Y-89584430D01*
X123908500Y-89584430D02*
X123884690Y-89560621D01*
X123884690Y-89560621D02*
X123837071Y-89536811D01*
X123837071Y-89536811D02*
X123789452Y-89536811D01*
X123789452Y-89536811D02*
X123741833Y-89560621D01*
X123741833Y-89560621D02*
X123718023Y-89584430D01*
X123718023Y-89584430D02*
X123694214Y-89632049D01*
X123694214Y-89632049D02*
X123670404Y-89727287D01*
X123670404Y-89727287D02*
X123646595Y-89774906D01*
X123646595Y-89774906D02*
X123622785Y-89798716D01*
X123622785Y-89798716D02*
X123575166Y-89822525D01*
X123575166Y-89822525D02*
X123527547Y-89822525D01*
X123527547Y-89822525D02*
X123479928Y-89798716D01*
X123479928Y-89798716D02*
X123456119Y-89774906D01*
X123456119Y-89774906D02*
X123432309Y-89727287D01*
X123432309Y-89727287D02*
X123432309Y-89608240D01*
X123432309Y-89608240D02*
X123456119Y-89536811D01*
X123432309Y-89393954D02*
X123432309Y-89108240D01*
X123932309Y-89251097D02*
X123432309Y-89251097D01*
X123979928Y-89060622D02*
X123979928Y-88679669D01*
X123932309Y-88560622D02*
X123432309Y-88560622D01*
X123432309Y-88560622D02*
X123432309Y-88441574D01*
X123432309Y-88441574D02*
X123456119Y-88370146D01*
X123456119Y-88370146D02*
X123503738Y-88322527D01*
X123503738Y-88322527D02*
X123551357Y-88298717D01*
X123551357Y-88298717D02*
X123646595Y-88274908D01*
X123646595Y-88274908D02*
X123718023Y-88274908D01*
X123718023Y-88274908D02*
X123813261Y-88298717D01*
X123813261Y-88298717D02*
X123860880Y-88322527D01*
X123860880Y-88322527D02*
X123908500Y-88370146D01*
X123908500Y-88370146D02*
X123932309Y-88441574D01*
X123932309Y-88441574D02*
X123932309Y-88560622D01*
X123670404Y-88060622D02*
X123670404Y-87893955D01*
X123932309Y-87822527D02*
X123932309Y-88060622D01*
X123932309Y-88060622D02*
X123432309Y-88060622D01*
X123432309Y-88060622D02*
X123432309Y-87822527D01*
X123432309Y-87679669D02*
X123432309Y-87393955D01*
X123932309Y-87536812D02*
X123432309Y-87536812D01*
X123932309Y-92013002D02*
X123694214Y-92179668D01*
X123932309Y-92298716D02*
X123432309Y-92298716D01*
X123432309Y-92298716D02*
X123432309Y-92108240D01*
X123432309Y-92108240D02*
X123456119Y-92060621D01*
X123456119Y-92060621D02*
X123479928Y-92036811D01*
X123479928Y-92036811D02*
X123527547Y-92013002D01*
X123527547Y-92013002D02*
X123598976Y-92013002D01*
X123598976Y-92013002D02*
X123646595Y-92036811D01*
X123646595Y-92036811D02*
X123670404Y-92060621D01*
X123670404Y-92060621D02*
X123694214Y-92108240D01*
X123694214Y-92108240D02*
X123694214Y-92298716D01*
X123908500Y-91822525D02*
X123932309Y-91751097D01*
X123932309Y-91751097D02*
X123932309Y-91632049D01*
X123932309Y-91632049D02*
X123908500Y-91584430D01*
X123908500Y-91584430D02*
X123884690Y-91560621D01*
X123884690Y-91560621D02*
X123837071Y-91536811D01*
X123837071Y-91536811D02*
X123789452Y-91536811D01*
X123789452Y-91536811D02*
X123741833Y-91560621D01*
X123741833Y-91560621D02*
X123718023Y-91584430D01*
X123718023Y-91584430D02*
X123694214Y-91632049D01*
X123694214Y-91632049D02*
X123670404Y-91727287D01*
X123670404Y-91727287D02*
X123646595Y-91774906D01*
X123646595Y-91774906D02*
X123622785Y-91798716D01*
X123622785Y-91798716D02*
X123575166Y-91822525D01*
X123575166Y-91822525D02*
X123527547Y-91822525D01*
X123527547Y-91822525D02*
X123479928Y-91798716D01*
X123479928Y-91798716D02*
X123456119Y-91774906D01*
X123456119Y-91774906D02*
X123432309Y-91727287D01*
X123432309Y-91727287D02*
X123432309Y-91608240D01*
X123432309Y-91608240D02*
X123456119Y-91536811D01*
X123432309Y-91393954D02*
X123432309Y-91108240D01*
X123932309Y-91251097D02*
X123432309Y-91251097D01*
X124486997Y-95432309D02*
X124320331Y-95194214D01*
X124201283Y-95432309D02*
X124201283Y-94932309D01*
X124201283Y-94932309D02*
X124391759Y-94932309D01*
X124391759Y-94932309D02*
X124439378Y-94956119D01*
X124439378Y-94956119D02*
X124463188Y-94979928D01*
X124463188Y-94979928D02*
X124486997Y-95027547D01*
X124486997Y-95027547D02*
X124486997Y-95098976D01*
X124486997Y-95098976D02*
X124463188Y-95146595D01*
X124463188Y-95146595D02*
X124439378Y-95170404D01*
X124439378Y-95170404D02*
X124391759Y-95194214D01*
X124391759Y-95194214D02*
X124201283Y-95194214D01*
X124653664Y-94932309D02*
X124986997Y-95432309D01*
X124986997Y-94932309D02*
X124653664Y-95432309D01*
X125177473Y-95432309D02*
X125177473Y-94932309D01*
X125177473Y-94932309D02*
X125296521Y-94932309D01*
X125296521Y-94932309D02*
X125367949Y-94956119D01*
X125367949Y-94956119D02*
X125415568Y-95003738D01*
X125415568Y-95003738D02*
X125439378Y-95051357D01*
X125439378Y-95051357D02*
X125463187Y-95146595D01*
X125463187Y-95146595D02*
X125463187Y-95218023D01*
X125463187Y-95218023D02*
X125439378Y-95313261D01*
X125439378Y-95313261D02*
X125415568Y-95360880D01*
X125415568Y-95360880D02*
X125367949Y-95408500D01*
X125367949Y-95408500D02*
X125296521Y-95432309D01*
X125296521Y-95432309D02*
X125177473Y-95432309D01*
X126367949Y-94932309D02*
X126653663Y-94932309D01*
X126510806Y-95432309D02*
X126510806Y-94932309D01*
X126772710Y-94932309D02*
X127106043Y-95432309D01*
X127106043Y-94932309D02*
X126772710Y-95432309D01*
X127296519Y-95432309D02*
X127296519Y-94932309D01*
X127296519Y-94932309D02*
X127415567Y-94932309D01*
X127415567Y-94932309D02*
X127486995Y-94956119D01*
X127486995Y-94956119D02*
X127534614Y-95003738D01*
X127534614Y-95003738D02*
X127558424Y-95051357D01*
X127558424Y-95051357D02*
X127582233Y-95146595D01*
X127582233Y-95146595D02*
X127582233Y-95218023D01*
X127582233Y-95218023D02*
X127558424Y-95313261D01*
X127558424Y-95313261D02*
X127534614Y-95360880D01*
X127534614Y-95360880D02*
X127486995Y-95408500D01*
X127486995Y-95408500D02*
X127415567Y-95432309D01*
X127415567Y-95432309D02*
X127296519Y-95432309D01*
D11*
X119986779Y-108369819D02*
X119986779Y-107369819D01*
X119986779Y-107846009D02*
X120558207Y-107846009D01*
X120558207Y-108369819D02*
X120558207Y-107369819D01*
X120891541Y-107703152D02*
X121272493Y-107703152D01*
X121034398Y-107369819D02*
X121034398Y-108226961D01*
X121034398Y-108226961D02*
X121082017Y-108322200D01*
X121082017Y-108322200D02*
X121177255Y-108369819D01*
X121177255Y-108369819D02*
X121272493Y-108369819D01*
X121605827Y-108369819D02*
X121605827Y-107369819D01*
X121605827Y-107369819D02*
X121986779Y-107369819D01*
X121986779Y-107369819D02*
X122082017Y-107417438D01*
X122082017Y-107417438D02*
X122129636Y-107465057D01*
X122129636Y-107465057D02*
X122177255Y-107560295D01*
X122177255Y-107560295D02*
X122177255Y-107703152D01*
X122177255Y-107703152D02*
X122129636Y-107798390D01*
X122129636Y-107798390D02*
X122082017Y-107846009D01*
X122082017Y-107846009D02*
X121986779Y-107893628D01*
X121986779Y-107893628D02*
X121605827Y-107893628D01*
X122605827Y-108274580D02*
X122653446Y-108322200D01*
X122653446Y-108322200D02*
X122605827Y-108369819D01*
X122605827Y-108369819D02*
X122558208Y-108322200D01*
X122558208Y-108322200D02*
X122605827Y-108274580D01*
X122605827Y-108274580D02*
X122605827Y-108369819D01*
X122605827Y-107988866D02*
X122558208Y-107417438D01*
X122558208Y-107417438D02*
X122605827Y-107369819D01*
X122605827Y-107369819D02*
X122653446Y-107417438D01*
X122653446Y-107417438D02*
X122605827Y-107988866D01*
X122605827Y-107988866D02*
X122605827Y-107369819D01*
D12*
%TO.C,C13*%
X115670000Y-94587836D02*
X115670000Y-94372164D01*
X116390000Y-94587836D02*
X116390000Y-94372164D01*
D13*
%TO.C,U4*%
X116320200Y-99402050D02*
X119120200Y-99402050D01*
X116320200Y-100402050D02*
X116320200Y-99402050D01*
X119120200Y-99402050D02*
X119120200Y-100402050D01*
X119120200Y-100402050D02*
X116320200Y-100402050D01*
D14*
X115920166Y-101422466D02*
G75*
G02*
X115930200Y-101422050I33J120416D01*
G01*
D12*
%TO.C,C11*%
X114630000Y-94597836D02*
X114630000Y-94382164D01*
X115350000Y-94597836D02*
X115350000Y-94382164D01*
%TO.C,R1*%
X121710000Y-97953641D02*
X121710000Y-97646359D01*
X122470000Y-97953641D02*
X122470000Y-97646359D01*
%TO.C,C2*%
X115522164Y-82310000D02*
X115737836Y-82310000D01*
X115522164Y-83030000D02*
X115737836Y-83030000D01*
D13*
%TO.C,U2*%
X118990000Y-94230000D02*
X122150000Y-94230000D01*
X122150000Y-96390000D02*
X118990000Y-96390000D01*
D15*
X122680000Y-96060000D02*
G75*
G02*
X122480000Y-96060000I-100000J0D01*
G01*
X122480000Y-96060000D02*
G75*
G02*
X122680000Y-96060000I100000J0D01*
G01*
D12*
%TO.C,C7*%
X115522164Y-81240000D02*
X115737836Y-81240000D01*
X115522164Y-81960000D02*
X115737836Y-81960000D01*
%TO.C,C10*%
X115790000Y-84072164D02*
X115790000Y-84287836D01*
X116510000Y-84072164D02*
X116510000Y-84287836D01*
%TO.C,C18*%
X116752164Y-96860000D02*
X116967836Y-96860000D01*
X116752164Y-97580000D02*
X116967836Y-97580000D01*
%TO.C,C14*%
X114730000Y-84072164D02*
X114730000Y-84287836D01*
X115450000Y-84072164D02*
X115450000Y-84287836D01*
%TO.C,C6*%
X121240000Y-100977836D02*
X121240000Y-100762164D01*
X121960000Y-100977836D02*
X121960000Y-100762164D01*
D13*
%TO.C,Y1*%
X117040000Y-83300000D02*
X117040000Y-84540000D01*
X117230000Y-81350000D02*
X121290000Y-81350000D01*
X117230000Y-84650000D02*
X117230000Y-81350000D01*
X121290000Y-81350000D02*
X121290000Y-83000000D01*
X121290000Y-83000000D02*
X121290000Y-84650000D01*
X121290000Y-84650000D02*
X117230000Y-84650000D01*
D11*
X121290000Y-84650000D02*
X121290000Y-84650000D01*
D12*
%TO.C,C12*%
X121890000Y-84112164D02*
X121890000Y-84327836D01*
X122610000Y-84112164D02*
X122610000Y-84327836D01*
%TO.C,C5*%
X122210000Y-100977836D02*
X122210000Y-100762164D01*
X122930000Y-100977836D02*
X122930000Y-100762164D01*
%TO.C,C17*%
X114740000Y-99507836D02*
X114740000Y-99292164D01*
X115460000Y-99507836D02*
X115460000Y-99292164D01*
%TO.C,R4*%
X114720000Y-101186359D02*
X114720000Y-101493641D01*
X115480000Y-101186359D02*
X115480000Y-101493641D01*
%TO.C,R5*%
X126280000Y-101186359D02*
X126280000Y-101493641D01*
X127040000Y-101186359D02*
X127040000Y-101493641D01*
%TO.C,C16*%
X123210000Y-100977836D02*
X123210000Y-100762164D01*
X123930000Y-100977836D02*
X123930000Y-100762164D01*
%TO.C,R3*%
X119680000Y-99043641D02*
X119680000Y-98736359D01*
X120440000Y-99043641D02*
X120440000Y-98736359D01*
%TO.C,C4*%
X121900000Y-82122164D02*
X121900000Y-82337836D01*
X122620000Y-82122164D02*
X122620000Y-82337836D01*
%TO.C,R2*%
X120700000Y-99043641D02*
X120700000Y-98736359D01*
X121460000Y-99043641D02*
X121460000Y-98736359D01*
%TO.C,R27*%
X124916359Y-98990000D02*
X125223641Y-98990000D01*
X124916359Y-99750000D02*
X125223641Y-99750000D01*
%TO.C,C15*%
X122730000Y-97692164D02*
X122730000Y-97907836D01*
X123450000Y-97692164D02*
X123450000Y-97907836D01*
D13*
%TO.C,J1*%
X116370000Y-105305000D02*
X116370000Y-107005000D01*
X125710000Y-105305000D02*
X125710000Y-107005000D01*
D12*
%TO.C,C9*%
X114730000Y-97342164D02*
X114730000Y-97557836D01*
X115450000Y-97342164D02*
X115450000Y-97557836D01*
%TO.C,R25*%
X125213641Y-100010000D02*
X124906359Y-100010000D01*
X125213641Y-100770000D02*
X124906359Y-100770000D01*
%TO.C,C8*%
X115362164Y-95600000D02*
X115577836Y-95600000D01*
X115362164Y-96320000D02*
X115577836Y-96320000D01*
D13*
%TO.C,U3*%
X115060000Y-85707500D02*
X115060000Y-86357500D01*
X115060000Y-92927500D02*
X115060000Y-92277500D01*
X115710000Y-85707500D02*
X115060000Y-85707500D01*
X115710000Y-92927500D02*
X115060000Y-92927500D01*
D12*
X121630000Y-85707500D02*
X122280000Y-85707500D01*
D13*
X121630000Y-92927500D02*
X121980000Y-92927500D01*
D12*
X122280000Y-85707500D02*
X122280000Y-86357500D01*
D13*
X122280000Y-92277500D02*
X122280000Y-92687500D01*
D12*
X122520000Y-93257500D02*
X122040000Y-93257500D01*
X122280000Y-92927500D01*
X122520000Y-93257500D01*
G36*
X122520000Y-93257500D02*
G01*
X122040000Y-93257500D01*
X122280000Y-92927500D01*
X122520000Y-93257500D01*
G37*
%TD*%
%LPC*%
D16*
%TO.C,C13*%
X116030000Y-94960000D03*
X116030000Y-94000000D03*
%TD*%
D17*
%TO.C,U4*%
X116750200Y-101202050D03*
X117700200Y-101202050D03*
X118650200Y-101202050D03*
X118650200Y-98602050D03*
X116750200Y-98602050D03*
%TD*%
D16*
%TO.C,C11*%
X114990000Y-94970000D03*
X114990000Y-94010000D03*
%TD*%
D18*
%TO.C,R1*%
X122090000Y-98310000D03*
X122090000Y-97290000D03*
%TD*%
D19*
%TO.C,C2*%
X115150000Y-82670000D03*
X116110000Y-82670000D03*
%TD*%
D20*
%TO.C,U2*%
X121990000Y-96060000D03*
X121990000Y-95560000D03*
X121990000Y-95060000D03*
X121990000Y-94560000D03*
X119150000Y-94560000D03*
X119150000Y-95060000D03*
X119150000Y-95560000D03*
X119150000Y-96060000D03*
D21*
X120570000Y-95310000D03*
%TD*%
D19*
%TO.C,C7*%
X115150000Y-81600000D03*
X116110000Y-81600000D03*
%TD*%
D22*
%TO.C,C10*%
X116150000Y-83700000D03*
X116150000Y-84660000D03*
%TD*%
D19*
%TO.C,C18*%
X116380000Y-97220000D03*
X117340000Y-97220000D03*
%TD*%
D22*
%TO.C,C14*%
X115090000Y-83700000D03*
X115090000Y-84660000D03*
%TD*%
D16*
%TO.C,C6*%
X121600000Y-101350000D03*
X121600000Y-100390000D03*
%TD*%
D23*
%TO.C,Y1*%
X118160000Y-83880000D03*
X120360000Y-83880000D03*
X120360000Y-82120000D03*
X118160000Y-82120000D03*
%TD*%
D22*
%TO.C,C12*%
X122250000Y-83740000D03*
X122250000Y-84700000D03*
%TD*%
D16*
%TO.C,C5*%
X122570000Y-101350000D03*
X122570000Y-100390000D03*
%TD*%
%TO.C,C17*%
X115100000Y-99880000D03*
X115100000Y-98920000D03*
%TD*%
D24*
%TO.C,R4*%
X115100000Y-100830000D03*
X115100000Y-101850000D03*
%TD*%
%TO.C,R5*%
X126660000Y-100830000D03*
X126660000Y-101850000D03*
%TD*%
D16*
%TO.C,C16*%
X123570000Y-101350000D03*
X123570000Y-100390000D03*
%TD*%
D18*
%TO.C,R3*%
X120060000Y-99400000D03*
X120060000Y-98380000D03*
%TD*%
D22*
%TO.C,C4*%
X122260000Y-81750000D03*
X122260000Y-82710000D03*
%TD*%
D18*
%TO.C,R2*%
X121080000Y-99400000D03*
X121080000Y-98380000D03*
%TD*%
D25*
%TO.C,R27*%
X124560000Y-99370000D03*
X125580000Y-99370000D03*
%TD*%
D22*
%TO.C,C15*%
X123090000Y-97320000D03*
X123090000Y-98280000D03*
%TD*%
D26*
%TO.C,J1*%
X118150000Y-104500000D03*
X123930000Y-104500000D03*
D27*
X117840000Y-103425000D03*
X118640000Y-103425000D03*
D28*
X119790000Y-103425000D03*
X120790000Y-103425000D03*
X121290000Y-103425000D03*
X122290000Y-103425000D03*
D27*
X124240000Y-103425000D03*
X123440000Y-103425000D03*
D28*
X122790000Y-103425000D03*
X121790000Y-103425000D03*
X120290000Y-103425000D03*
X119290000Y-103425000D03*
D29*
X116720000Y-104000000D03*
D30*
X116720000Y-108180000D03*
D29*
X125360000Y-104000000D03*
D30*
X125360000Y-108180000D03*
%TD*%
D22*
%TO.C,C9*%
X115090000Y-96970000D03*
X115090000Y-97930000D03*
%TD*%
D31*
%TO.C,R25*%
X125570000Y-100390000D03*
X124550000Y-100390000D03*
%TD*%
D19*
%TO.C,C8*%
X114990000Y-95960000D03*
X115950000Y-95960000D03*
%TD*%
D32*
%TO.C,J2*%
X126675000Y-93750000D03*
X124675000Y-93750000D03*
X126675000Y-91750000D03*
X124675000Y-91750000D03*
X126675000Y-89750000D03*
X124675000Y-89750000D03*
X126675000Y-87750000D03*
X124675000Y-87750000D03*
X126675000Y-85750000D03*
X124675000Y-85750000D03*
X126675000Y-83750000D03*
X124675000Y-83750000D03*
X126675000Y-81750000D03*
D33*
X124675000Y-81750000D03*
%TD*%
D34*
%TO.C,U3*%
X122107500Y-91917500D03*
X122107500Y-91517500D03*
X122107500Y-91117500D03*
X122107500Y-90717500D03*
X122107500Y-90317500D03*
X122107500Y-89917500D03*
X122107500Y-89517500D03*
X122107500Y-89117500D03*
X122107500Y-88717500D03*
X122107500Y-88317500D03*
X122107500Y-87917500D03*
X122107500Y-87517500D03*
X122107500Y-87117500D03*
X122107500Y-86717500D03*
D35*
X121270000Y-85880000D03*
X120870000Y-85880000D03*
X120470000Y-85880000D03*
X120070000Y-85880000D03*
X119670000Y-85880000D03*
X119270000Y-85880000D03*
X118870000Y-85880000D03*
X118470000Y-85880000D03*
X118070000Y-85880000D03*
X117670000Y-85880000D03*
X117270000Y-85880000D03*
X116870000Y-85880000D03*
X116470000Y-85880000D03*
X116070000Y-85880000D03*
D34*
X115232500Y-86717500D03*
X115232500Y-87117500D03*
X115232500Y-87517500D03*
X115232500Y-87917500D03*
X115232500Y-88317500D03*
X115232500Y-88717500D03*
X115232500Y-89117500D03*
X115232500Y-89517500D03*
X115232500Y-89917500D03*
X115232500Y-90317500D03*
X115232500Y-90717500D03*
X115232500Y-91117500D03*
X115232500Y-91517500D03*
X115232500Y-91917500D03*
D35*
X116070000Y-92755000D03*
X116470000Y-92755000D03*
X116870000Y-92755000D03*
X117270000Y-92755000D03*
X117670000Y-92755000D03*
X118070000Y-92755000D03*
X118470000Y-92755000D03*
X118870000Y-92755000D03*
X119270000Y-92755000D03*
X119670000Y-92755000D03*
X120070000Y-92755000D03*
X120470000Y-92755000D03*
X120870000Y-92755000D03*
X121270000Y-92755000D03*
D36*
X118670000Y-89317500D03*
%TD*%
%LPD*%
M02*
