M48
; DRILL file {KiCad 9.0.2} date 2026-01-18T21:17:14+0300
; FORMAT={-:-/ absolute / metric / decimal}
; #@! TF.CreationDate,2026-01-18T21:17:14+03:00
; #@! TF.GenerationSoftware,Kicad,Pcbnew,9.0.2
; #@! TF.FileFunction,Plated,1,4,PTH
FMAT,2
METRIC
; #@! TA.AperFunction,Plated,PTH,ViaDrill
T1C0.300
; #@! TA.AperFunction,Plated,PTH,ComponentDrill
T2C0.600
; #@! TA.AperFunction,Plated,PTH,ComponentDrill
T3C0.800
%
G90
G05
T1
X115.17Y-82.15
X115.22Y-92.83
X115.47Y-95.33
X115.57Y-100.83
X115.58Y-98.3
X115.62Y-83.47
X115.64Y-85.2
X115.78Y-96.88
X116.1Y-88.32
X116.52Y-86.78
X116.53Y-87.55
X116.54Y-81.63
X116.75Y-99.47
X117.04Y-96.6
X117.18Y-84.94
X117.24Y-82.12
X117.59Y-88.25
X117.6Y-90.34
X117.83Y-102.33
X118.07Y-86.81
X118.26Y-91.79
X118.33Y-84.95
X118.64Y-102.34
X118.88Y-86.92
X118.99Y-91.82
X119.24Y-105.69
X119.7Y-100.33
X119.81Y-88.25
X119.85Y-90.31
X119.87Y-96.07
X120.0Y-85.0
X121.19Y-94.63
X121.3Y-88.3
X121.5Y-83.74
X121.73Y-99.83
X121.99Y-98.74
X122.26Y-81.34
X122.3Y-104.7
X122.5Y-92.5
X122.7Y-83.73
X122.76Y-84.59
X123.06Y-99.63
X123.08Y-98.71
X123.09Y-96.89
X123.43Y-102.31
X124.0Y-98.0
X124.25Y-102.31
X124.65Y-98.0
X125.65Y-102.02
X126.19Y-99.38
X126.26Y-100.22
T3
X124.675Y-81.75
X124.675Y-83.75
X124.675Y-85.75
X124.675Y-87.75
X124.675Y-89.75
X124.675Y-91.75
X124.675Y-93.75
X126.675Y-81.75
X126.675Y-83.75
X126.675Y-85.75
X126.675Y-87.75
X126.675Y-89.75
X126.675Y-91.75
X126.675Y-93.75
T2
G00X116.72Y-103.45
M15
G01X116.72Y-104.55
M16
G05
G00X116.72Y-107.78
M15
G01X116.72Y-108.58
M16
G05
G00X125.36Y-103.45
M15
G01X125.36Y-104.55
M16
G05
G00X125.36Y-107.78
M15
G01X125.36Y-108.58
M16
G05
M30
