%TF.GenerationSoftware,KiCad,Pcbnew,10.0.0*%
%TF.CreationDate,2026-05-29T22:34:07+03:00*%
%TF.ProjectId,bitLodeV2,6269744c-6f64-4655-9632-2e6b69636164,rev?*%
%TF.SameCoordinates,Original*%
%TF.FileFunction,Copper,L1,Top*%
%TF.FilePolarity,Positive*%
%FSLAX46Y46*%
G04 Gerber Fmt 4.6, Leading zero omitted, Abs format (unit mm)*
G04 Created by KiCad (PCBNEW 10.0.0) date 2026-05-29 22:34:07*
%MOMM*%
%LPD*%
G01*
G04 APERTURE LIST*
G04 Aperture macros list*
%AMRoundRect*
0 Rectangle with rounded corners*
0 $1 Rounding radius*
0 $2 $3 $4 $5 $6 $7 $8 $9 X,Y pos of 4 corners*
0 Add a 4 corners polygon primitive as box body*
4,1,4,$2,$3,$4,$5,$6,$7,$8,$9,$2,$3,0*
0 Add four circle primitives for the rounded corners*
1,1,$1+$1,$2,$3*
1,1,$1+$1,$4,$5*
1,1,$1+$1,$6,$7*
1,1,$1+$1,$8,$9*
0 Add four rect primitives between the rounded corners*
20,1,$1+$1,$2,$3,$4,$5,0*
20,1,$1+$1,$4,$5,$6,$7,0*
20,1,$1+$1,$6,$7,$8,$9,0*
20,1,$1+$1,$8,$9,$2,$3,0*%
G04 Aperture macros list end*
%TA.AperFunction,ComponentPad*%
%ADD10C,1.350000*%
%TD*%
%TA.AperFunction,ComponentPad*%
%ADD11R,1.350000X1.350000*%
%TD*%
%TA.AperFunction,SMDPad,CuDef*%
%ADD12RoundRect,0.140000X0.170000X-0.140000X0.170000X0.140000X-0.170000X0.140000X-0.170000X-0.140000X0*%
%TD*%
%TA.AperFunction,SMDPad,CuDef*%
%ADD13R,0.620000X1.100000*%
%TD*%
%TA.AperFunction,SMDPad,CuDef*%
%ADD14RoundRect,0.135000X0.185000X-0.135000X0.185000X0.135000X-0.185000X0.135000X-0.185000X-0.135000X0*%
%TD*%
%TA.AperFunction,SMDPad,CuDef*%
%ADD15RoundRect,0.140000X-0.140000X-0.170000X0.140000X-0.170000X0.140000X0.170000X-0.140000X0.170000X0*%
%TD*%
%TA.AperFunction,SMDPad,CuDef*%
%ADD16R,0.580000X0.280000*%
%TD*%
%TA.AperFunction,SMDPad,CuDef*%
%ADD17R,0.200000X1.600000*%
%TD*%
%TA.AperFunction,SMDPad,CuDef*%
%ADD18R,1.200000X1.000000*%
%TD*%
%TA.AperFunction,SMDPad,CuDef*%
%ADD19R,1.200000X0.700000*%
%TD*%
%TA.AperFunction,SMDPad,CuDef*%
%ADD20R,1.200000X0.450000*%
%TD*%
%TA.AperFunction,SMDPad,CuDef*%
%ADD21RoundRect,0.140000X-0.170000X0.140000X-0.170000X-0.140000X0.170000X-0.140000X0.170000X0.140000X0*%
%TD*%
%TA.AperFunction,SMDPad,CuDef*%
%ADD22RoundRect,0.050000X0.387500X0.050000X-0.387500X0.050000X-0.387500X-0.050000X0.387500X-0.050000X0*%
%TD*%
%TA.AperFunction,SMDPad,CuDef*%
%ADD23RoundRect,0.050000X0.050000X0.387500X-0.050000X0.387500X-0.050000X-0.387500X0.050000X-0.387500X0*%
%TD*%
%TA.AperFunction,HeatsinkPad*%
%ADD24R,3.200000X3.200000*%
%TD*%
%TA.AperFunction,SMDPad,CuDef*%
%ADD25R,1.400000X1.200000*%
%TD*%
%TA.AperFunction,SMDPad,CuDef*%
%ADD26RoundRect,0.135000X-0.185000X0.135000X-0.185000X-0.135000X0.185000X-0.135000X0.185000X0.135000X0*%
%TD*%
%TA.AperFunction,SMDPad,CuDef*%
%ADD27RoundRect,0.135000X-0.135000X-0.185000X0.135000X-0.185000X0.135000X0.185000X-0.135000X0.185000X0*%
%TD*%
%TA.AperFunction,SMDPad,CuDef*%
%ADD28RoundRect,0.150000X-0.150000X-0.425000X0.150000X-0.425000X0.150000X0.425000X-0.150000X0.425000X0*%
%TD*%
%TA.AperFunction,SMDPad,CuDef*%
%ADD29RoundRect,0.075000X-0.075000X-0.500000X0.075000X-0.500000X0.075000X0.500000X-0.075000X0.500000X0*%
%TD*%
%TA.AperFunction,ComponentPad*%
%ADD30O,1.000000X2.100000*%
%TD*%
%TA.AperFunction,ComponentPad*%
%ADD31O,1.000000X1.800000*%
%TD*%
%TA.AperFunction,SMDPad,CuDef*%
%ADD32RoundRect,0.135000X0.135000X0.185000X-0.135000X0.185000X-0.135000X-0.185000X0.135000X-0.185000X0*%
%TD*%
%TA.AperFunction,ViaPad*%
%ADD33C,0.500000*%
%TD*%
%TA.AperFunction,Conductor*%
%ADD34C,0.200000*%
%TD*%
%TA.AperFunction,Conductor*%
%ADD35C,0.508000*%
%TD*%
G04 APERTURE END LIST*
D10*
%TO.P,J2,14,Pin_14_14*%
%TO.N,/RXD*%
X126635000Y-93725000D03*
%TO.P,J2,13,Pin_13_13*%
%TO.N,/TXD*%
X124635000Y-93725000D03*
%TO.P,J2,12,Pin_12_12*%
%TO.N,/GND*%
X126635000Y-91725000D03*
%TO.P,J2,11,Pin_11_11*%
%TO.N,/RST*%
X124635000Y-91725000D03*
%TO.P,J2,10,Pin_10_10*%
%TO.N,/RST_DET*%
X126635000Y-89725000D03*
%TO.P,J2,9,Pin_9_9*%
%TO.N,/GND*%
X124635000Y-89725000D03*
%TO.P,J2,8,Pin_8_8*%
%TO.N,unconnected-(J2-Pin_8-Pad8)*%
X126635000Y-87725000D03*
%TO.P,J2,7,Pin_7_7*%
%TO.N,/3V3*%
X124635000Y-87725000D03*
%TO.P,J2,6,Pin_6_6*%
%TO.N,/SCL*%
X126635000Y-85725000D03*
%TO.P,J2,5,Pin_5_5*%
%TO.N,/A0*%
X124635000Y-85725000D03*
%TO.P,J2,4,Pin_4_4*%
%TO.N,/SDA*%
X126635000Y-83725000D03*
%TO.P,J2,3,Pin_3_3*%
%TO.N,/A1*%
X124635000Y-83725000D03*
%TO.P,J2,2,Pin_2_2*%
%TO.N,/GND*%
X126635000Y-81725000D03*
D11*
%TO.P,J2,1,Pin_1_1*%
X124635000Y-81725000D03*
%TD*%
D12*
%TO.P,C13,1*%
%TO.N,/GND*%
X116030000Y-94960000D03*
%TO.P,C13,2*%
%TO.N,/3V3*%
X116030000Y-94000000D03*
%TD*%
D13*
%TO.P,U4,1,VIN_1*%
%TO.N,/5V*%
X116750200Y-101202050D03*
%TO.P,U4,2,GND_2*%
%TO.N,/GND*%
X117700200Y-101202050D03*
%TO.P,U4,3,EN_3*%
%TO.N,/5V*%
X118650200Y-101202050D03*
%TO.P,U4,4,NC_4*%
%TO.N,unconnected-(U4-NC-Pad4)*%
X118650200Y-98602050D03*
%TO.P,U4,5,VOUT_5*%
%TO.N,/3V3*%
X116750200Y-98602050D03*
%TD*%
D12*
%TO.P,C11,1*%
%TO.N,/GND*%
X114990000Y-94970000D03*
%TO.P,C11,2*%
%TO.N,/3V3*%
X114990000Y-94010000D03*
%TD*%
D14*
%TO.P,R1,1*%
%TO.N,/3V3*%
X122090000Y-99405000D03*
%TO.P,R1,2*%
%TO.N,/QSPI_SS*%
X122090000Y-98385000D03*
%TD*%
D15*
%TO.P,C2,1*%
%TO.N,/GND*%
X115150000Y-82670000D03*
%TO.P,C2,2*%
%TO.N,/XOUT*%
X116110000Y-82670000D03*
%TD*%
D16*
%TO.P,U2,1,/CS_1*%
%TO.N,/QSPI_SS*%
X121990000Y-96060000D03*
%TO.P,U2,2,DO(IO1)_2*%
%TO.N,/QSPI_SD1*%
X121990000Y-95560000D03*
%TO.P,U2,3,/WP(IO2)_3*%
%TO.N,/QSPI_SD2*%
X121990000Y-95060000D03*
%TO.P,U2,4,GND_4*%
%TO.N,/GND*%
X121990000Y-94560000D03*
%TO.P,U2,5,DI(IO0)_5*%
%TO.N,/QSPI_SD0*%
X119150000Y-94560000D03*
%TO.P,U2,6,CLK_6*%
%TO.N,/QSPI_SCLK*%
X119150000Y-95060000D03*
%TO.P,U2,7,/HOLDOR/RESET(IO3)_7*%
%TO.N,/QSPI_SD3*%
X119150000Y-95560000D03*
%TO.P,U2,8,VCC_8*%
%TO.N,/3V3*%
X119150000Y-96060000D03*
D17*
%TO.P,U2,9,EPAD_9*%
%TO.N,/GND*%
X120570000Y-95310000D03*
%TD*%
D15*
%TO.P,C7,1*%
%TO.N,/GND*%
X115150000Y-81600000D03*
%TO.P,C7,2*%
%TO.N,/1V1*%
X116110000Y-81600000D03*
%TD*%
D18*
%TO.P,U1,1,DIN_1*%
%TO.N,Net-(U1-DIN)*%
X116175000Y-106250000D03*
D19*
%TO.P,U1,2,VDD_2*%
%TO.N,/5V*%
X116175000Y-107600000D03*
D20*
%TO.P,U1,3,DOUT_3*%
%TO.N,unconnected-(U1-DOUT-Pad3)*%
X116175000Y-108625000D03*
D18*
%TO.P,U1,4,GND_4*%
%TO.N,/GND*%
X116175000Y-109850000D03*
%TD*%
D21*
%TO.P,C10,1*%
%TO.N,/GND*%
X116150000Y-83700000D03*
%TO.P,C10,2*%
%TO.N,/3V3*%
X116150000Y-84660000D03*
%TD*%
D15*
%TO.P,C18,1*%
%TO.N,/3V3*%
X116380000Y-97220000D03*
%TO.P,C18,2*%
%TO.N,/GND*%
X117340000Y-97220000D03*
%TD*%
D22*
%TO.P,U3,1,IOVDD_1*%
%TO.N,/3V3*%
X122107500Y-91917500D03*
%TO.P,U3,2,GPIO0_2*%
%TO.N,unconnected-(U3-GPIO0-Pad2)*%
X122107500Y-91517500D03*
%TO.P,U3,3,GPIO1_3*%
%TO.N,Net-(U1-DIN)*%
X122107500Y-91117500D03*
%TO.P,U3,4,GPIO2_4*%
%TO.N,unconnected-(U3-GPIO2-Pad4)*%
X122107500Y-90717500D03*
%TO.P,U3,5,GPIO3_5*%
%TO.N,unconnected-(U3-GPIO3-Pad5)*%
X122107500Y-90317500D03*
%TO.P,U3,6,GPIO4_6*%
%TO.N,unconnected-(U3-GPIO4-Pad6)*%
X122107500Y-89917500D03*
%TO.P,U3,7,GPIO5_7*%
%TO.N,unconnected-(U3-GPIO5-Pad7)*%
X122107500Y-89517500D03*
%TO.P,U3,8,GPIO6_8*%
%TO.N,unconnected-(U3-GPIO6-Pad8)*%
X122107500Y-89117500D03*
%TO.P,U3,9,GPIO7_9*%
%TO.N,unconnected-(U3-GPIO7-Pad9)*%
X122107500Y-88717500D03*
%TO.P,U3,10,IOVDD_10*%
%TO.N,/3V3*%
X122107500Y-88317500D03*
%TO.P,U3,11,GPIO8_11*%
%TO.N,/TXD*%
X122107500Y-87917500D03*
%TO.P,U3,12,GPIO9_12*%
%TO.N,/RXD*%
X122107500Y-87517500D03*
%TO.P,U3,13,GPIO10_13*%
%TO.N,/RST_DET*%
X122107500Y-87117500D03*
%TO.P,U3,14,GPIO11_14*%
%TO.N,/RST*%
X122107500Y-86717500D03*
D23*
%TO.P,U3,15,GPIO12_15*%
%TO.N,unconnected-(U3-GPIO12-Pad15)*%
X121270000Y-85880000D03*
%TO.P,U3,16,GPIO13_16*%
%TO.N,unconnected-(U3-GPIO13-Pad16)*%
X120870000Y-85880000D03*
%TO.P,U3,17,GPIO14_17*%
%TO.N,/SDA*%
X120470000Y-85880000D03*
%TO.P,U3,18,GPIO15_18*%
%TO.N,/SCL*%
X120070000Y-85880000D03*
%TO.P,U3,19,TESTEN_19*%
%TO.N,/GND*%
X119670000Y-85880000D03*
%TO.P,U3,20,XIN_20*%
%TO.N,/XIN*%
X119270000Y-85880000D03*
%TO.P,U3,21,XOUT_21*%
%TO.N,/XOUT*%
X118870000Y-85880000D03*
%TO.P,U3,22,IOVDD_22*%
%TO.N,/3V3*%
X118470000Y-85880000D03*
%TO.P,U3,23,DVDD_23*%
%TO.N,/1V1*%
X118070000Y-85880000D03*
%TO.P,U3,24,SWCLK_24*%
%TO.N,/SWCLK*%
X117670000Y-85880000D03*
%TO.P,U3,25,SWD_25*%
%TO.N,/SWD*%
X117270000Y-85880000D03*
%TO.P,U3,26,RUN_26*%
%TO.N,Net-(U3-RUN)*%
X116870000Y-85880000D03*
%TO.P,U3,27,GPIO16_27*%
%TO.N,unconnected-(U3-GPIO16-Pad27)*%
X116470000Y-85880000D03*
%TO.P,U3,28,GPIO17_28*%
%TO.N,unconnected-(U3-GPIO17-Pad28)*%
X116070000Y-85880000D03*
D22*
%TO.P,U3,29,GPIO18_29*%
%TO.N,unconnected-(U3-GPIO18-Pad29)*%
X115232500Y-86717500D03*
%TO.P,U3,30,GPIO19_30*%
%TO.N,unconnected-(U3-GPIO19-Pad30)*%
X115232500Y-87117500D03*
%TO.P,U3,31,GPIO20_31*%
%TO.N,unconnected-(U3-GPIO20-Pad31)*%
X115232500Y-87517500D03*
%TO.P,U3,32,GPIO21_32*%
%TO.N,unconnected-(U3-GPIO21-Pad32)*%
X115232500Y-87917500D03*
%TO.P,U3,33,IOVDD_33*%
%TO.N,/3V3*%
X115232500Y-88317500D03*
%TO.P,U3,34,GPIO22_34*%
%TO.N,unconnected-(U3-GPIO22-Pad34)*%
X115232500Y-88717500D03*
%TO.P,U3,35,GPIO23_35*%
%TO.N,unconnected-(U3-GPIO23-Pad35)*%
X115232500Y-89117500D03*
%TO.P,U3,36,GPIO24_36*%
%TO.N,unconnected-(U3-GPIO24-Pad36)*%
X115232500Y-89517500D03*
%TO.P,U3,37,GPIO25_37*%
%TO.N,unconnected-(U3-GPIO25-Pad37)*%
X115232500Y-89917500D03*
%TO.P,U3,38,GPIO26_ADC0_38*%
%TO.N,unconnected-(U3-GPIO26_ADC0-Pad38)*%
X115232500Y-90317500D03*
%TO.P,U3,39,GPIO27_ADC1_39*%
%TO.N,unconnected-(U3-GPIO27_ADC1-Pad39)*%
X115232500Y-90717500D03*
%TO.P,U3,40,GPIO28_ADC2_40*%
%TO.N,unconnected-(U3-GPIO28_ADC2-Pad40)*%
X115232500Y-91117500D03*
%TO.P,U3,41,GPIO29_ADC3_41*%
%TO.N,unconnected-(U3-GPIO29_ADC3-Pad41)*%
X115232500Y-91517500D03*
%TO.P,U3,42,IOVDD_42*%
%TO.N,/3V3*%
X115232500Y-91917500D03*
D23*
%TO.P,U3,43,ADC_AVDD_43*%
X116070000Y-92755000D03*
%TO.P,U3,44,VREG_IN_44*%
X116470000Y-92755000D03*
%TO.P,U3,45,VREG_VOUT_45*%
%TO.N,/1V1*%
X116870000Y-92755000D03*
%TO.P,U3,46,USB_DM_46*%
%TO.N,Net-(U3-USB_DM)*%
X117270000Y-92755000D03*
%TO.P,U3,47,USB_DP_47*%
%TO.N,Net-(U3-USB_DP)*%
X117670000Y-92755000D03*
%TO.P,U3,48,USB_VDD_48*%
%TO.N,/3V3*%
X118070000Y-92755000D03*
%TO.P,U3,49,IOVDD_49*%
X118470000Y-92755000D03*
%TO.P,U3,50,DVDD_50*%
%TO.N,/1V1*%
X118870000Y-92755000D03*
%TO.P,U3,51,QSPI_SD3_51*%
%TO.N,/QSPI_SD3*%
X119270000Y-92755000D03*
%TO.P,U3,52,QSPI_SCLK_52*%
%TO.N,/QSPI_SCLK*%
X119670000Y-92755000D03*
%TO.P,U3,53,QSPI_SD0_53*%
%TO.N,/QSPI_SD0*%
X120070000Y-92755000D03*
%TO.P,U3,54,QSPI_SD2_54*%
%TO.N,/QSPI_SD2*%
X120470000Y-92755000D03*
%TO.P,U3,55,QSPI_SD1_55*%
%TO.N,/QSPI_SD1*%
X120870000Y-92755000D03*
%TO.P,U3,56,QSPI_SS_56*%
%TO.N,/QSPI_SS*%
X121270000Y-92755000D03*
D24*
%TO.P,U3,57,GND_57*%
%TO.N,/GND*%
X118670000Y-89317500D03*
%TD*%
D21*
%TO.P,C14,1*%
%TO.N,/GND*%
X115090000Y-83700000D03*
%TO.P,C14,2*%
%TO.N,/3V3*%
X115090000Y-84660000D03*
%TD*%
D12*
%TO.P,C6,1*%
%TO.N,/GND*%
X121575000Y-101350000D03*
%TO.P,C6,2*%
%TO.N,/1V1*%
X121575000Y-100390000D03*
%TD*%
D25*
%TO.P,Y1,1,1_1*%
%TO.N,/XOUT*%
X118160000Y-83880000D03*
%TO.P,Y1,2,2_2*%
%TO.N,/GND*%
X120360000Y-83880000D03*
%TO.P,Y1,3,3_3*%
%TO.N,/XIN*%
X120360000Y-82120000D03*
%TO.P,Y1,4,4_4*%
%TO.N,/GND*%
X118160000Y-82120000D03*
%TD*%
D26*
%TO.P,R7,1*%
%TO.N,Net-(U3-RUN)*%
X123125000Y-83680000D03*
%TO.P,R7,2*%
%TO.N,/3V3*%
X123125000Y-84700000D03*
%TD*%
D27*
%TO.P,R27,1*%
%TO.N,/A0*%
X125728000Y-96012000D03*
%TO.P,R27,2*%
%TO.N,/GND*%
X126748000Y-96012000D03*
%TD*%
D21*
%TO.P,C12,1*%
%TO.N,/GND*%
X122050000Y-83740000D03*
%TO.P,C12,2*%
%TO.N,/3V3*%
X122050000Y-84700000D03*
%TD*%
D12*
%TO.P,C5,1*%
%TO.N,/GND*%
X122570000Y-101350000D03*
%TO.P,C5,2*%
%TO.N,/3V3*%
X122570000Y-100390000D03*
%TD*%
%TO.P,C17,1*%
%TO.N,/5V*%
X115090000Y-99875000D03*
%TO.P,C17,2*%
%TO.N,/GND*%
X115090000Y-98915000D03*
%TD*%
D26*
%TO.P,R4,1*%
%TO.N,/GND*%
X115090000Y-100830000D03*
%TO.P,R4,2*%
%TO.N,Net-(J1-CC1)*%
X115090000Y-101850000D03*
%TD*%
%TO.P,R5,1*%
%TO.N,/GND*%
X126660000Y-100830000D03*
%TO.P,R5,2*%
%TO.N,Net-(J1-CC2)*%
X126660000Y-101850000D03*
%TD*%
D12*
%TO.P,C16,1*%
%TO.N,/GND*%
X123570000Y-101350000D03*
%TO.P,C16,2*%
%TO.N,/3V3*%
X123570000Y-100390000D03*
%TD*%
D14*
%TO.P,R3,1*%
%TO.N,/USB_DN*%
X120060000Y-99400000D03*
%TO.P,R3,2*%
%TO.N,Net-(U3-USB_DM)*%
X120060000Y-98380000D03*
%TD*%
D21*
%TO.P,C4,1*%
%TO.N,/GND*%
X122050000Y-81750000D03*
%TO.P,C4,2*%
%TO.N,/XIN*%
X122050000Y-82710000D03*
%TD*%
D14*
%TO.P,R2,1*%
%TO.N,/USB_DP*%
X121080000Y-99400000D03*
%TO.P,R2,2*%
%TO.N,Net-(U3-USB_DP)*%
X121080000Y-98380000D03*
%TD*%
D21*
%TO.P,C15,1*%
%TO.N,/GND*%
X123090000Y-98415000D03*
%TO.P,C15,2*%
%TO.N,/3V3*%
X123090000Y-99375000D03*
%TD*%
D28*
%TO.P,J1,A1B12,GND_A1B12*%
%TO.N,/GND*%
X118875000Y-103425000D03*
%TO.P,J1,A4B9,VBUS_A4B9*%
%TO.N,/5V*%
X119675000Y-103425000D03*
D29*
%TO.P,J1,A5,CC1_A5*%
%TO.N,Net-(J1-CC1)*%
X120825000Y-103425000D03*
%TO.P,J1,A6,D+_A6*%
%TO.N,/USB_DP*%
X121825000Y-103425000D03*
%TO.P,J1,A7,D-_A7*%
%TO.N,/USB_DN*%
X122325000Y-103425000D03*
%TO.P,J1,A8,SBU1_A8*%
%TO.N,/SWCLK*%
X123325000Y-103425000D03*
D28*
%TO.P,J1,B1A12,GND_B1A12*%
%TO.N,/GND*%
X125275000Y-103425000D03*
%TO.P,J1,B4A9,VBUS_B4A9*%
%TO.N,/5V*%
X124475000Y-103425000D03*
D29*
%TO.P,J1,B5,CC2_B5*%
%TO.N,Net-(J1-CC2)*%
X123825000Y-103425000D03*
%TO.P,J1,B6,D+_B6*%
%TO.N,/USB_DP*%
X122825000Y-103425000D03*
%TO.P,J1,B7,D-_B7*%
%TO.N,/USB_DN*%
X121325000Y-103425000D03*
%TO.P,J1,B8,SBU2_B8*%
%TO.N,/SWD*%
X120325000Y-103425000D03*
D30*
%TO.P,J1,S1,SHIELD_S1*%
%TO.N,/GND*%
X117755000Y-104000000D03*
D31*
X117755000Y-108180000D03*
D30*
X126395000Y-104000000D03*
D31*
X126395000Y-108180000D03*
%TD*%
D21*
%TO.P,C9,1*%
%TO.N,/3V3*%
X115090000Y-96970000D03*
%TO.P,C9,2*%
%TO.N,/GND*%
X115090000Y-97930000D03*
%TD*%
D32*
%TO.P,R25,1*%
%TO.N,/GND*%
X126748000Y-97282000D03*
%TO.P,R25,2*%
%TO.N,/A1*%
X125728000Y-97282000D03*
%TD*%
D15*
%TO.P,C8,1*%
%TO.N,/GND*%
X114990000Y-95960000D03*
%TO.P,C8,2*%
%TO.N,/1V1*%
X115950000Y-95960000D03*
%TD*%
D27*
%TO.P,R6,1*%
%TO.N,/QSPI_SS*%
X122055000Y-97250000D03*
%TO.P,R6,2*%
%TO.N,Net-(R6-Pad2)*%
X123075000Y-97250000D03*
%TD*%
D33*
%TO.N,/GND*%
X126660000Y-100830000D03*
X114990000Y-94970000D03*
X116150000Y-83700000D03*
X118160000Y-82120000D03*
X117590000Y-88250000D03*
X122570000Y-101350000D03*
X119850000Y-90310000D03*
X120360000Y-83880000D03*
X115090000Y-97930000D03*
X115100000Y-100830000D03*
X117700200Y-101280000D03*
X122050000Y-83740000D03*
X123090000Y-98415000D03*
X117850000Y-97350000D03*
X118875000Y-103425000D03*
X115090000Y-83700000D03*
X121025000Y-97100000D03*
X122060000Y-81750000D03*
X125580000Y-99370000D03*
X115150000Y-81600000D03*
X125292500Y-103450000D03*
X117975000Y-90400000D03*
X119810000Y-88250000D03*
X115150000Y-82675000D03*
X121190000Y-94630000D03*
X125560000Y-101410000D03*
%TO.N,/3V3*%
X116150000Y-88650000D03*
X124550000Y-100390000D03*
X118260000Y-91790000D03*
X119150000Y-86725000D03*
X122430000Y-92456000D03*
X116525000Y-98850000D03*
X122570000Y-100390000D03*
X119870000Y-96070000D03*
X123090000Y-99375000D03*
X122050000Y-84700000D03*
X116160000Y-84700000D03*
X115090000Y-96970000D03*
X121300000Y-88300000D03*
X122090000Y-99405000D03*
X115220000Y-92830000D03*
X115090000Y-84660000D03*
%TO.N,/1V1*%
X116110000Y-81600000D03*
X119700000Y-100330000D03*
X121600000Y-100390000D03*
X119250000Y-91825000D03*
X118330000Y-84950000D03*
X118425000Y-87200000D03*
%TO.N,/5V*%
X124475000Y-103425000D03*
X115675000Y-107600000D03*
X119675000Y-103425000D03*
X115100000Y-99875000D03*
X116525000Y-107600000D03*
X116750000Y-101200000D03*
X118650200Y-101202050D03*
%TO.N,/RST_DET*%
X123246400Y-87213185D03*
%TO.N,Net-(U1-DIN)*%
X116275000Y-104500000D03*
X120225000Y-91475000D03*
%TO.N,/A0*%
X124968000Y-96012000D03*
%TO.N,/A1*%
X124968000Y-97282000D03*
%TO.N,/SWCLK*%
X123325000Y-104500000D03*
X117550000Y-87300000D03*
%TO.N,/SWD*%
X119240000Y-105690000D03*
X116525000Y-87825000D03*
%TO.N,Net-(R6-Pad2)*%
X123075000Y-97275000D03*
%TO.N,Net-(U3-RUN)*%
X116275000Y-86925000D03*
X123150000Y-83675000D03*
%TD*%
%TO.N,/XOUT*%
D34*
X118870000Y-85880000D02*
X118870000Y-84590000D01*
X118870000Y-84590000D02*
X118160000Y-83880000D01*
X118160000Y-83880000D02*
X116970000Y-82690000D01*
X116970000Y-82690000D02*
X116110000Y-82690000D01*
%TO.N,/GND*%
X114990000Y-95960000D02*
X114990000Y-95810000D01*
X114990000Y-94970000D02*
X114990000Y-95960000D01*
X115090000Y-83740000D02*
X115100000Y-83750000D01*
D35*
X116175000Y-109850000D02*
X117283000Y-109850000D01*
D34*
X125590000Y-101410000D02*
X125600000Y-101420000D01*
X120570000Y-94630000D02*
X120575000Y-94625000D01*
X117340000Y-97220000D02*
X117720000Y-97220000D01*
X123570000Y-101350000D02*
X122570000Y-101350000D01*
X120575000Y-94625000D02*
X120580000Y-94630000D01*
X115090000Y-83700000D02*
X115090000Y-83740000D01*
X115090000Y-97930000D02*
X115090000Y-98710000D01*
X119670000Y-88317500D02*
X118670000Y-89317500D01*
D35*
X117710000Y-103425000D02*
X118875000Y-103425000D01*
D34*
X125600000Y-99380000D02*
X125590000Y-99380000D01*
D35*
X125292500Y-103450000D02*
X126457500Y-103450000D01*
X117710000Y-101289800D02*
X117710000Y-103425000D01*
D34*
X126748000Y-98202000D02*
X125580000Y-99370000D01*
X125275000Y-103432500D02*
X125292500Y-103450000D01*
X115000000Y-94960000D02*
X114990000Y-94970000D01*
X119670000Y-88110000D02*
X119810000Y-88250000D01*
X126748000Y-96012000D02*
X126748000Y-97282000D01*
X121260000Y-94560000D02*
X121190000Y-94630000D01*
D35*
X117755000Y-109378000D02*
X117755000Y-108180000D01*
X117283000Y-109850000D02*
X117755000Y-109378000D01*
D34*
X122570000Y-101350000D02*
X121600000Y-101350000D01*
X119670000Y-85880000D02*
X119670000Y-88110000D01*
X125590000Y-99380000D02*
X125580000Y-99370000D01*
X121990000Y-94560000D02*
X121260000Y-94560000D01*
D35*
X117700200Y-101280000D02*
X117710000Y-101289800D01*
D34*
X117700200Y-101202050D02*
X117700200Y-101280000D01*
X125275000Y-103425000D02*
X125275000Y-103432500D01*
X119810000Y-88250000D02*
X119670000Y-88317500D01*
X126660000Y-100830000D02*
X126530000Y-100830000D01*
X117720000Y-97220000D02*
X117850000Y-97350000D01*
X115150000Y-82670000D02*
X115150000Y-82675000D01*
X125560000Y-101410000D02*
X125590000Y-101410000D01*
X115090000Y-97850000D02*
X115100000Y-97840000D01*
X116030000Y-94960000D02*
X115000000Y-94960000D01*
X120580000Y-94630000D02*
X121190000Y-94630000D01*
X126748000Y-97282000D02*
X126748000Y-98202000D01*
X115090000Y-97930000D02*
X115090000Y-97850000D01*
%TO.N,/XIN*%
X119270000Y-85880000D02*
X119270000Y-83210000D01*
X122260000Y-82710000D02*
X120950000Y-82710000D01*
X120950000Y-82710000D02*
X120360000Y-82120000D01*
X119270000Y-83210000D02*
X120360000Y-82120000D01*
%TO.N,/3V3*%
D35*
X116525000Y-98827250D02*
X116760400Y-98591850D01*
D34*
X119150000Y-86725000D02*
X118685000Y-86725000D01*
X121300000Y-88300000D02*
X121317500Y-88317500D01*
X119860000Y-96060000D02*
X119870000Y-96070000D01*
X122430000Y-92240000D02*
X122107500Y-91917500D01*
X118470000Y-92000000D02*
X118260000Y-91790000D01*
X118470000Y-92755000D02*
X118470000Y-92000000D01*
X122570000Y-100390000D02*
X122570000Y-100360000D01*
X118070000Y-91980000D02*
X118260000Y-91790000D01*
X115100000Y-96960000D02*
X115090000Y-96970000D01*
X116120000Y-97220000D02*
X116380000Y-97220000D01*
X116150000Y-88650000D02*
X116150000Y-88370000D01*
X121317500Y-88317500D02*
X122107500Y-88317500D01*
X116150000Y-84690000D02*
X116160000Y-84700000D01*
X116097500Y-88317500D02*
X115232500Y-88317500D01*
X115090000Y-96970000D02*
X115870000Y-96970000D01*
X122430000Y-92456000D02*
X122430000Y-92240000D01*
X116470000Y-92755000D02*
X116070000Y-92755000D01*
X118070000Y-92755000D02*
X118070000Y-91980000D01*
X118685000Y-86725000D02*
X118470000Y-86510000D01*
X115295000Y-92755000D02*
X115220000Y-92830000D01*
X116070000Y-92755000D02*
X115295000Y-92755000D01*
X114990000Y-94010000D02*
X114990000Y-93060000D01*
X115232500Y-92817500D02*
X115220000Y-92830000D01*
X119150000Y-96060000D02*
X119860000Y-96060000D01*
X116160000Y-84700000D02*
X116140000Y-84700000D01*
X123125000Y-84700000D02*
X122050000Y-84700000D01*
X123530000Y-100390000D02*
X123580000Y-100340000D01*
X122020000Y-99405000D02*
X122000000Y-99425000D01*
D35*
X116525000Y-98850000D02*
X116525000Y-98827250D01*
D34*
X116070000Y-93960000D02*
X116070000Y-92755000D01*
X115232500Y-91917500D02*
X115232500Y-92817500D01*
X118470000Y-86510000D02*
X118470000Y-85880000D01*
X115870000Y-96970000D02*
X116120000Y-97220000D01*
X115100000Y-96880000D02*
X115100000Y-96960000D01*
X122090000Y-99405000D02*
X122020000Y-99405000D01*
X115100000Y-84710000D02*
X115150000Y-84710000D01*
X116150000Y-84660000D02*
X116150000Y-84690000D01*
X116030000Y-94000000D02*
X116070000Y-93960000D01*
D35*
X116760400Y-98591850D02*
X116760400Y-98524100D01*
D34*
X116150000Y-88370000D02*
X116097500Y-88317500D01*
X122570000Y-100360000D02*
X122560000Y-100350000D01*
X114990000Y-93060000D02*
X115220000Y-92830000D01*
X122570000Y-100390000D02*
X123530000Y-100390000D01*
%TO.N,/1V1*%
X116870000Y-95040000D02*
X116870000Y-95660000D01*
X119250000Y-91825000D02*
X118985000Y-91825000D01*
X116870000Y-92755000D02*
X116870000Y-95040000D01*
X118990000Y-91810000D02*
X118470000Y-91290000D01*
X118470000Y-91290000D02*
X117530000Y-91290000D01*
X117530000Y-91290000D02*
X116880000Y-91940000D01*
X118350000Y-87200000D02*
X118070000Y-86920000D01*
X118070000Y-85880000D02*
X118070000Y-85210000D01*
X116880000Y-91940000D02*
X116880000Y-92745000D01*
X119350000Y-99980000D02*
X119700000Y-100330000D01*
X118985000Y-91825000D02*
X118870000Y-91940000D01*
X116880000Y-92745000D02*
X116870000Y-92755000D01*
X118870000Y-91940000D02*
X118870000Y-92755000D01*
X119350000Y-97690000D02*
X119350000Y-99980000D01*
X119235000Y-91810000D02*
X118990000Y-91810000D01*
X119210000Y-97550000D02*
X119350000Y-97690000D01*
X118070000Y-86920000D02*
X118070000Y-85880000D01*
X116870000Y-95660000D02*
X116570000Y-95960000D01*
X118760000Y-97550000D02*
X119210000Y-97550000D01*
X118425000Y-87200000D02*
X118350000Y-87200000D01*
X116870000Y-95660000D02*
X118760000Y-97550000D01*
X116570000Y-95960000D02*
X115950000Y-95960000D01*
X119250000Y-91825000D02*
X119235000Y-91810000D01*
X118070000Y-85210000D02*
X118330000Y-84950000D01*
%TO.N,/5V*%
X116175000Y-107600000D02*
X115675000Y-107600000D01*
X116175000Y-107600000D02*
X116525000Y-107600000D01*
X116750200Y-101202050D02*
X116750200Y-101200200D01*
X115090000Y-99875000D02*
X115100000Y-99875000D01*
D35*
X118640000Y-101191850D02*
X118650200Y-101202050D01*
D34*
X116750200Y-101200200D02*
X116750000Y-101200000D01*
%TO.N,/USB_DN*%
X121325000Y-102850001D02*
X121325000Y-103425000D01*
X121325000Y-104120000D02*
X121325000Y-103425000D01*
X121475000Y-104270000D02*
X121325000Y-104120000D01*
X122325000Y-104120000D02*
X122175000Y-104270000D01*
X122325000Y-103425000D02*
X122325000Y-104120000D01*
X120290000Y-101815001D02*
X121325000Y-102850001D01*
X122175000Y-104270000D02*
X121475000Y-104270000D01*
X120010000Y-99430000D02*
X119980000Y-99430000D01*
X120290000Y-99710000D02*
X120290000Y-101815001D01*
X120290000Y-99710000D02*
X120010000Y-99430000D01*
%TO.N,Net-(J1-CC1)*%
X120825000Y-103425000D02*
X120825000Y-104845000D01*
X118125000Y-106275000D02*
X116850000Y-105000000D01*
X120825000Y-104845000D02*
X119395000Y-106275000D01*
X119395000Y-106275000D02*
X118125000Y-106275000D01*
X116850000Y-103000000D02*
X115700000Y-101850000D01*
X115700000Y-101850000D02*
X115100000Y-101850000D01*
X116850000Y-105000000D02*
X116850000Y-103000000D01*
%TO.N,/USB_DP*%
X120790000Y-99690000D02*
X121080000Y-99400000D01*
X121825000Y-103425000D02*
X121825000Y-102580000D01*
X122800000Y-103435000D02*
X122790000Y-103425000D01*
X122825000Y-102680000D02*
X122725000Y-102580000D01*
X122725000Y-102580000D02*
X121825000Y-102580000D01*
X122825000Y-103425000D02*
X122825000Y-102680000D01*
X120790000Y-101545000D02*
X121825000Y-102580000D01*
X120790000Y-99690000D02*
X120790000Y-101545000D01*
%TO.N,Net-(J1-CC2)*%
X123825000Y-104245298D02*
X123825000Y-103685730D01*
X127250000Y-105125000D02*
X126825000Y-105550000D01*
X125129702Y-105550000D02*
X123825000Y-104245298D01*
X126825000Y-105550000D02*
X125129702Y-105550000D01*
X127250000Y-102440000D02*
X127250000Y-105125000D01*
X123825000Y-103685730D02*
X123840000Y-103670730D01*
X126660000Y-101850000D02*
X127250000Y-102440000D01*
%TO.N,/RST_DET*%
X122896526Y-87213185D02*
X122800841Y-87117500D01*
X123246400Y-87213185D02*
X122896526Y-87213185D01*
X122800841Y-87117500D02*
X122107500Y-87117500D01*
%TO.N,Net-(U3-USB_DP)*%
X119780000Y-96770000D02*
X121080000Y-98070000D01*
X121080000Y-98070000D02*
X121080000Y-98380000D01*
X119000000Y-96770000D02*
X119780000Y-96770000D01*
X117670000Y-95440000D02*
X119000000Y-96770000D01*
X117670000Y-92755000D02*
X117670000Y-95440000D01*
%TO.N,Net-(U3-USB_DM)*%
X118840000Y-97130000D02*
X119570000Y-97130000D01*
X117270000Y-92755000D02*
X117270000Y-95560000D01*
X119980000Y-97540000D02*
X119980000Y-98410000D01*
X117270000Y-95560000D02*
X118840000Y-97130000D01*
X119570000Y-97130000D02*
X119980000Y-97540000D01*
%TO.N,/QSPI_SS*%
X122055000Y-97250000D02*
X122055000Y-98350000D01*
X121990000Y-96060000D02*
X122665000Y-96060000D01*
X122841800Y-93416800D02*
X121440000Y-93416800D01*
X122665000Y-96060000D02*
X123450000Y-95275000D01*
X121990000Y-97185000D02*
X122055000Y-97250000D01*
X121440000Y-93416800D02*
X121270000Y-93246800D01*
X123450000Y-94025000D02*
X122841800Y-93416800D01*
X121990000Y-96060000D02*
X121990000Y-97185000D01*
X123450000Y-95275000D02*
X123450000Y-94025000D01*
X122055000Y-98350000D02*
X122090000Y-98385000D01*
X121270000Y-93246800D02*
X121270000Y-92755000D01*
%TO.N,/QSPI_SD2*%
X122675000Y-94865000D02*
X122675000Y-94275000D01*
X121990000Y-95060000D02*
X122480000Y-95060000D01*
X122420000Y-94020000D02*
X120840000Y-94020000D01*
X122480000Y-95060000D02*
X122675000Y-94865000D01*
X122675000Y-94275000D02*
X122420000Y-94020000D01*
X120840000Y-94020000D02*
X120470000Y-93650000D01*
X120470000Y-93650000D02*
X120470000Y-92755000D01*
%TO.N,/QSPI_SD3*%
X119270000Y-92755000D02*
X119270000Y-93455000D01*
X118475000Y-93775000D02*
X118050000Y-94200000D01*
X118050000Y-94200000D02*
X118050000Y-95300000D01*
X118310000Y-95560000D02*
X119150000Y-95560000D01*
X119270000Y-93455000D02*
X118950000Y-93775000D01*
X118050000Y-95300000D02*
X118310000Y-95560000D01*
X118950000Y-93775000D02*
X118475000Y-93775000D01*
%TO.N,/QSPI_SCLK*%
X119670000Y-93555000D02*
X119125000Y-94100000D01*
X118475000Y-94300000D02*
X118475000Y-94975000D01*
X118475000Y-94975000D02*
X118560000Y-95060000D01*
X118560000Y-95060000D02*
X119150000Y-95060000D01*
X119125000Y-94100000D02*
X118675000Y-94100000D01*
X119670000Y-92755000D02*
X119670000Y-93555000D01*
X118675000Y-94100000D02*
X118475000Y-94300000D01*
%TO.N,/QSPI_SD1*%
X122643400Y-93718400D02*
X121060000Y-93718400D01*
X123050000Y-95075000D02*
X123050000Y-94125000D01*
X121990000Y-95560000D02*
X122565000Y-95560000D01*
X123050000Y-94125000D02*
X122643400Y-93718400D01*
X122565000Y-95560000D02*
X123050000Y-95075000D01*
X120870000Y-93528400D02*
X120870000Y-92755000D01*
X121060000Y-93718400D02*
X120870000Y-93528400D01*
%TO.N,/QSPI_SD0*%
X119615000Y-94560000D02*
X119150000Y-94560000D01*
X120070000Y-94105000D02*
X119615000Y-94560000D01*
X120070000Y-92755000D02*
X120070000Y-94105000D01*
%TO.N,Net-(U1-DIN)*%
X122100000Y-91125000D02*
X122107500Y-91117500D01*
X116175000Y-104600000D02*
X116275000Y-104500000D01*
X116175000Y-106250000D02*
X116175000Y-104600000D01*
X120225000Y-91475000D02*
X120575000Y-91125000D01*
X120575000Y-91125000D02*
X122100000Y-91125000D01*
%TO.N,/RXD*%
X125758400Y-92848400D02*
X124518700Y-92848400D01*
X122823500Y-87517500D02*
X122107500Y-87517500D01*
X126635000Y-93725000D02*
X125758400Y-92848400D01*
X123396400Y-91726100D02*
X123396400Y-88090400D01*
X124518700Y-92848400D02*
X123396400Y-91726100D01*
X123396400Y-88090400D02*
X122823500Y-87517500D01*
%TO.N,/TXD*%
X124635000Y-93725000D02*
X122936000Y-92026000D01*
X122936000Y-88138000D02*
X122715500Y-87917500D01*
X122715500Y-87917500D02*
X122107500Y-87917500D01*
X122936000Y-92026000D02*
X122936000Y-88138000D01*
%TO.N,/A0*%
X125728000Y-96012000D02*
X124968000Y-96012000D01*
%TO.N,/A1*%
X125728000Y-97282000D02*
X124968000Y-97282000D01*
%TO.N,/SCL*%
X123444000Y-85852000D02*
X124206000Y-86614000D01*
X125746000Y-86614000D02*
X126635000Y-85725000D01*
X121506900Y-86519100D02*
X122174000Y-85852000D01*
X120070000Y-85880000D02*
X120070000Y-86317500D01*
X122174000Y-85852000D02*
X123444000Y-85852000D01*
X120070000Y-86317500D02*
X120271600Y-86519100D01*
X120271600Y-86519100D02*
X121506900Y-86519100D01*
X124206000Y-86614000D02*
X125746000Y-86614000D01*
%TO.N,/RST*%
X123758400Y-90848400D02*
X124635000Y-91725000D01*
X123698000Y-86868000D02*
X123698000Y-90678000D01*
X123547500Y-86717500D02*
X123698000Y-86868000D01*
X123698000Y-90678000D02*
X123758400Y-90738400D01*
X122107500Y-86717500D02*
X123547500Y-86717500D01*
X123758400Y-90738400D02*
X123758400Y-90848400D01*
%TO.N,/SDA*%
X120470000Y-85880000D02*
X120470000Y-85442500D01*
X120470000Y-85442500D02*
X120730900Y-85181600D01*
X123952000Y-84836000D02*
X125524000Y-84836000D01*
X125524000Y-84836000D02*
X126635000Y-83725000D01*
X123606400Y-85181600D02*
X123952000Y-84836000D01*
X120730900Y-85181600D02*
X123606400Y-85181600D01*
%TO.N,/SWCLK*%
X117670000Y-87180000D02*
X117550000Y-87300000D01*
X117670000Y-85880000D02*
X117670000Y-87180000D01*
X123325000Y-103425000D02*
X123325000Y-104500000D01*
%TO.N,/SWD*%
X117270000Y-86810000D02*
X117270000Y-85880000D01*
X119240000Y-105690000D02*
X120325000Y-104605000D01*
X116525000Y-87555000D02*
X117270000Y-86810000D01*
X116525000Y-87825000D02*
X116525000Y-87555000D01*
X120325000Y-104605000D02*
X120325000Y-103425000D01*
%TO.N,Net-(R6-Pad2)*%
X123075000Y-97250000D02*
X123075000Y-97275000D01*
%TO.N,Net-(U3-RUN)*%
X116870000Y-86455000D02*
X116870000Y-85880000D01*
X123125000Y-83680000D02*
X123145000Y-83680000D01*
X116400000Y-86925000D02*
X116870000Y-86455000D01*
X116275000Y-86925000D02*
X116400000Y-86925000D01*
X123145000Y-83680000D02*
X123150000Y-83675000D01*
%TD*%
M02*
