%TF.GenerationSoftware,KiCad,Pcbnew,10.0.0*%
%TF.CreationDate,2026-05-29T22:34:07+03:00*%
%TF.ProjectId,bitLodeV2,6269744c-6f64-4655-9632-2e6b69636164,rev?*%
%TF.SameCoordinates,Original*%
%TF.FileFunction,Legend,Top*%
%TF.FilePolarity,Positive*%
%FSLAX46Y46*%
G04 Gerber Fmt 4.6, Leading zero omitted, Abs format (unit mm)*
G04 Created by KiCad (PCBNEW 10.0.0) date 2026-05-29 22:34:07*
%MOMM*%
%LPD*%
G01*
G04 APERTURE LIST*
G04 Aperture macros list*
%AMRoundRect*
0 Rectangle with rounded corners*
0 $1 Rounding radius*
0 $2 $3 $4 $5 $6 $7 $8 $9 X,Y pos of 4 corners*
0 Add a 4 corners polygon primitive as box body*
4,1,4,$2,$3,$4,$5,$6,$7,$8,$9,$2,$3,0*
0 Add four circle primitives for the rounded corners*
1,1,$1+$1,$2,$3*
1,1,$1+$1,$4,$5*
1,1,$1+$1,$6,$7*
1,1,$1+$1,$8,$9*
0 Add four rect primitives between the rounded corners*
20,1,$1+$1,$2,$3,$4,$5,0*
20,1,$1+$1,$4,$5,$6,$7,0*
20,1,$1+$1,$6,$7,$8,$9,0*
20,1,$1+$1,$8,$9,$2,$3,0*%
G04 Aperture macros list end*
%ADD10C,0.100000*%
%ADD11C,0.150000*%
%ADD12C,0.120000*%
%ADD13C,0.127000*%
%ADD14C,0.250000*%
%ADD15C,0.200000*%
%ADD16C,0.264009*%
%ADD17C,1.350000*%
%ADD18R,1.350000X1.350000*%
%ADD19RoundRect,0.140000X0.170000X-0.140000X0.170000X0.140000X-0.170000X0.140000X-0.170000X-0.140000X0*%
%ADD20R,0.620000X1.100000*%
%ADD21RoundRect,0.135000X0.185000X-0.135000X0.185000X0.135000X-0.185000X0.135000X-0.185000X-0.135000X0*%
%ADD22RoundRect,0.140000X-0.140000X-0.170000X0.140000X-0.170000X0.140000X0.170000X-0.140000X0.170000X0*%
%ADD23R,0.580000X0.280000*%
%ADD24R,0.200000X1.600000*%
%ADD25R,1.200000X1.000000*%
%ADD26R,1.200000X0.700000*%
%ADD27R,1.200000X0.450000*%
%ADD28RoundRect,0.140000X-0.170000X0.140000X-0.170000X-0.140000X0.170000X-0.140000X0.170000X0.140000X0*%
%ADD29RoundRect,0.050000X0.387500X0.050000X-0.387500X0.050000X-0.387500X-0.050000X0.387500X-0.050000X0*%
%ADD30RoundRect,0.050000X0.050000X0.387500X-0.050000X0.387500X-0.050000X-0.387500X0.050000X-0.387500X0*%
%ADD31R,3.200000X3.200000*%
%ADD32R,1.400000X1.200000*%
%ADD33RoundRect,0.135000X-0.185000X0.135000X-0.185000X-0.135000X0.185000X-0.135000X0.185000X0.135000X0*%
%ADD34RoundRect,0.135000X-0.135000X-0.185000X0.135000X-0.185000X0.135000X0.185000X-0.135000X0.185000X0*%
%ADD35C,0.650000*%
%ADD36RoundRect,0.150000X-0.150000X-0.425000X0.150000X-0.425000X0.150000X0.425000X-0.150000X0.425000X0*%
%ADD37RoundRect,0.075000X-0.075000X-0.500000X0.075000X-0.500000X0.075000X0.500000X-0.075000X0.500000X0*%
%ADD38O,1.000000X2.100000*%
%ADD39O,1.000000X1.800000*%
%ADD40RoundRect,0.135000X0.135000X0.185000X-0.135000X0.185000X-0.135000X-0.185000X0.135000X-0.185000X0*%
G04 APERTURE END LIST*
D10*
X123631609Y-91985449D02*
X123393514Y-92152115D01*
X123631609Y-92271163D02*
X123131609Y-92271163D01*
X123131609Y-92271163D02*
X123131609Y-92080687D01*
X123131609Y-92080687D02*
X123155419Y-92033068D01*
X123155419Y-92033068D02*
X123179228Y-92009258D01*
X123179228Y-92009258D02*
X123226847Y-91985449D01*
X123226847Y-91985449D02*
X123298276Y-91985449D01*
X123298276Y-91985449D02*
X123345895Y-92009258D01*
X123345895Y-92009258D02*
X123369704Y-92033068D01*
X123369704Y-92033068D02*
X123393514Y-92080687D01*
X123393514Y-92080687D02*
X123393514Y-92271163D01*
X123607800Y-91794972D02*
X123631609Y-91723544D01*
X123631609Y-91723544D02*
X123631609Y-91604496D01*
X123631609Y-91604496D02*
X123607800Y-91556877D01*
X123607800Y-91556877D02*
X123583990Y-91533068D01*
X123583990Y-91533068D02*
X123536371Y-91509258D01*
X123536371Y-91509258D02*
X123488752Y-91509258D01*
X123488752Y-91509258D02*
X123441133Y-91533068D01*
X123441133Y-91533068D02*
X123417323Y-91556877D01*
X123417323Y-91556877D02*
X123393514Y-91604496D01*
X123393514Y-91604496D02*
X123369704Y-91699734D01*
X123369704Y-91699734D02*
X123345895Y-91747353D01*
X123345895Y-91747353D02*
X123322085Y-91771163D01*
X123322085Y-91771163D02*
X123274466Y-91794972D01*
X123274466Y-91794972D02*
X123226847Y-91794972D01*
X123226847Y-91794972D02*
X123179228Y-91771163D01*
X123179228Y-91771163D02*
X123155419Y-91747353D01*
X123155419Y-91747353D02*
X123131609Y-91699734D01*
X123131609Y-91699734D02*
X123131609Y-91580687D01*
X123131609Y-91580687D02*
X123155419Y-91509258D01*
X123131609Y-91366401D02*
X123131609Y-91080687D01*
X123631609Y-91223544D02*
X123131609Y-91223544D01*
X124319408Y-94683609D02*
X124605122Y-94683609D01*
X124462265Y-95183609D02*
X124462265Y-94683609D01*
X124724169Y-94683609D02*
X125057502Y-95183609D01*
X125057502Y-94683609D02*
X124724169Y-95183609D01*
X125247978Y-95183609D02*
X125247978Y-94683609D01*
X125247978Y-94683609D02*
X125367026Y-94683609D01*
X125367026Y-94683609D02*
X125438454Y-94707419D01*
X125438454Y-94707419D02*
X125486073Y-94755038D01*
X125486073Y-94755038D02*
X125509883Y-94802657D01*
X125509883Y-94802657D02*
X125533692Y-94897895D01*
X125533692Y-94897895D02*
X125533692Y-94969323D01*
X125533692Y-94969323D02*
X125509883Y-95064561D01*
X125509883Y-95064561D02*
X125486073Y-95112180D01*
X125486073Y-95112180D02*
X125438454Y-95159800D01*
X125438454Y-95159800D02*
X125367026Y-95183609D01*
X125367026Y-95183609D02*
X125247978Y-95183609D01*
X126414644Y-95183609D02*
X126247978Y-94945514D01*
X126128930Y-95183609D02*
X126128930Y-94683609D01*
X126128930Y-94683609D02*
X126319406Y-94683609D01*
X126319406Y-94683609D02*
X126367025Y-94707419D01*
X126367025Y-94707419D02*
X126390835Y-94731228D01*
X126390835Y-94731228D02*
X126414644Y-94778847D01*
X126414644Y-94778847D02*
X126414644Y-94850276D01*
X126414644Y-94850276D02*
X126390835Y-94897895D01*
X126390835Y-94897895D02*
X126367025Y-94921704D01*
X126367025Y-94921704D02*
X126319406Y-94945514D01*
X126319406Y-94945514D02*
X126128930Y-94945514D01*
X126581311Y-94683609D02*
X126914644Y-95183609D01*
X126914644Y-94683609D02*
X126581311Y-95183609D01*
X127105120Y-95183609D02*
X127105120Y-94683609D01*
X127105120Y-94683609D02*
X127224168Y-94683609D01*
X127224168Y-94683609D02*
X127295596Y-94707419D01*
X127295596Y-94707419D02*
X127343215Y-94755038D01*
X127343215Y-94755038D02*
X127367025Y-94802657D01*
X127367025Y-94802657D02*
X127390834Y-94897895D01*
X127390834Y-94897895D02*
X127390834Y-94969323D01*
X127390834Y-94969323D02*
X127367025Y-95064561D01*
X127367025Y-95064561D02*
X127343215Y-95112180D01*
X127343215Y-95112180D02*
X127295596Y-95159800D01*
X127295596Y-95159800D02*
X127224168Y-95183609D01*
X127224168Y-95183609D02*
X127105120Y-95183609D01*
D11*
X118216666Y-106121009D02*
X117883333Y-106121009D01*
X117883333Y-106644819D02*
X117883333Y-105644819D01*
X117883333Y-105644819D02*
X118359523Y-105644819D01*
X118930952Y-105644819D02*
X119121428Y-105644819D01*
X119121428Y-105644819D02*
X119216666Y-105692438D01*
X119216666Y-105692438D02*
X119311904Y-105787676D01*
X119311904Y-105787676D02*
X119359523Y-105978152D01*
X119359523Y-105978152D02*
X119359523Y-106311485D01*
X119359523Y-106311485D02*
X119311904Y-106501961D01*
X119311904Y-106501961D02*
X119216666Y-106597200D01*
X119216666Y-106597200D02*
X119121428Y-106644819D01*
X119121428Y-106644819D02*
X118930952Y-106644819D01*
X118930952Y-106644819D02*
X118835714Y-106597200D01*
X118835714Y-106597200D02*
X118740476Y-106501961D01*
X118740476Y-106501961D02*
X118692857Y-106311485D01*
X118692857Y-106311485D02*
X118692857Y-105978152D01*
X118692857Y-105978152D02*
X118740476Y-105787676D01*
X118740476Y-105787676D02*
X118835714Y-105692438D01*
X118835714Y-105692438D02*
X118930952Y-105644819D01*
X119740476Y-106597200D02*
X119883333Y-106644819D01*
X119883333Y-106644819D02*
X120121428Y-106644819D01*
X120121428Y-106644819D02*
X120216666Y-106597200D01*
X120216666Y-106597200D02*
X120264285Y-106549580D01*
X120264285Y-106549580D02*
X120311904Y-106454342D01*
X120311904Y-106454342D02*
X120311904Y-106359104D01*
X120311904Y-106359104D02*
X120264285Y-106263866D01*
X120264285Y-106263866D02*
X120216666Y-106216247D01*
X120216666Y-106216247D02*
X120121428Y-106168628D01*
X120121428Y-106168628D02*
X119930952Y-106121009D01*
X119930952Y-106121009D02*
X119835714Y-106073390D01*
X119835714Y-106073390D02*
X119788095Y-106025771D01*
X119788095Y-106025771D02*
X119740476Y-105930533D01*
X119740476Y-105930533D02*
X119740476Y-105835295D01*
X119740476Y-105835295D02*
X119788095Y-105740057D01*
X119788095Y-105740057D02*
X119835714Y-105692438D01*
X119835714Y-105692438D02*
X119930952Y-105644819D01*
X119930952Y-105644819D02*
X120169047Y-105644819D01*
X120169047Y-105644819D02*
X120311904Y-105692438D01*
X120692857Y-106597200D02*
X120835714Y-106644819D01*
X120835714Y-106644819D02*
X121073809Y-106644819D01*
X121073809Y-106644819D02*
X121169047Y-106597200D01*
X121169047Y-106597200D02*
X121216666Y-106549580D01*
X121216666Y-106549580D02*
X121264285Y-106454342D01*
X121264285Y-106454342D02*
X121264285Y-106359104D01*
X121264285Y-106359104D02*
X121216666Y-106263866D01*
X121216666Y-106263866D02*
X121169047Y-106216247D01*
X121169047Y-106216247D02*
X121073809Y-106168628D01*
X121073809Y-106168628D02*
X120883333Y-106121009D01*
X120883333Y-106121009D02*
X120788095Y-106073390D01*
X120788095Y-106073390D02*
X120740476Y-106025771D01*
X120740476Y-106025771D02*
X120692857Y-105930533D01*
X120692857Y-105930533D02*
X120692857Y-105835295D01*
X120692857Y-105835295D02*
X120740476Y-105740057D01*
X120740476Y-105740057D02*
X120788095Y-105692438D01*
X120788095Y-105692438D02*
X120883333Y-105644819D01*
X120883333Y-105644819D02*
X121121428Y-105644819D01*
X121121428Y-105644819D02*
X121264285Y-105692438D01*
X121623809Y-106903152D02*
X121623809Y-105474580D01*
X122576190Y-106903152D02*
X122576190Y-105474580D01*
X123503571Y-105717438D02*
X123408333Y-105669819D01*
X123408333Y-105669819D02*
X123265476Y-105669819D01*
X123265476Y-105669819D02*
X123122619Y-105717438D01*
X123122619Y-105717438D02*
X123027381Y-105812676D01*
X123027381Y-105812676D02*
X122979762Y-105907914D01*
X122979762Y-105907914D02*
X122932143Y-106098390D01*
X122932143Y-106098390D02*
X122932143Y-106241247D01*
X122932143Y-106241247D02*
X122979762Y-106431723D01*
X122979762Y-106431723D02*
X123027381Y-106526961D01*
X123027381Y-106526961D02*
X123122619Y-106622200D01*
X123122619Y-106622200D02*
X123265476Y-106669819D01*
X123265476Y-106669819D02*
X123360714Y-106669819D01*
X123360714Y-106669819D02*
X123503571Y-106622200D01*
X123503571Y-106622200D02*
X123551190Y-106574580D01*
X123551190Y-106574580D02*
X123551190Y-106241247D01*
X123551190Y-106241247D02*
X123360714Y-106241247D01*
X123836905Y-105669819D02*
X124408333Y-105669819D01*
X124122619Y-106669819D02*
X124122619Y-105669819D01*
X125075000Y-106146009D02*
X124741667Y-106146009D01*
X124741667Y-106669819D02*
X124741667Y-105669819D01*
X124741667Y-105669819D02*
X125217857Y-105669819D01*
X125789286Y-105669819D02*
X125979762Y-105669819D01*
X125979762Y-105669819D02*
X126075000Y-105717438D01*
X126075000Y-105717438D02*
X126170238Y-105812676D01*
X126170238Y-105812676D02*
X126217857Y-106003152D01*
X126217857Y-106003152D02*
X126217857Y-106336485D01*
X126217857Y-106336485D02*
X126170238Y-106526961D01*
X126170238Y-106526961D02*
X126075000Y-106622200D01*
X126075000Y-106622200D02*
X125979762Y-106669819D01*
X125979762Y-106669819D02*
X125789286Y-106669819D01*
X125789286Y-106669819D02*
X125694048Y-106622200D01*
X125694048Y-106622200D02*
X125598810Y-106526961D01*
X125598810Y-106526961D02*
X125551191Y-106336485D01*
X125551191Y-106336485D02*
X125551191Y-106003152D01*
X125551191Y-106003152D02*
X125598810Y-105812676D01*
X125598810Y-105812676D02*
X125694048Y-105717438D01*
X125694048Y-105717438D02*
X125789286Y-105669819D01*
X115794819Y-104857142D02*
X115794819Y-105333332D01*
X115794819Y-105333332D02*
X114794819Y-105333332D01*
X115271009Y-104190475D02*
X115271009Y-104523808D01*
X115794819Y-104523808D02*
X114794819Y-104523808D01*
X114794819Y-104523808D02*
X114794819Y-104047618D01*
X114842438Y-103142856D02*
X114794819Y-103238094D01*
X114794819Y-103238094D02*
X114794819Y-103380951D01*
X114794819Y-103380951D02*
X114842438Y-103523808D01*
X114842438Y-103523808D02*
X114937676Y-103619046D01*
X114937676Y-103619046D02*
X115032914Y-103666665D01*
X115032914Y-103666665D02*
X115223390Y-103714284D01*
X115223390Y-103714284D02*
X115366247Y-103714284D01*
X115366247Y-103714284D02*
X115556723Y-103666665D01*
X115556723Y-103666665D02*
X115651961Y-103619046D01*
X115651961Y-103619046D02*
X115747200Y-103523808D01*
X115747200Y-103523808D02*
X115794819Y-103380951D01*
X115794819Y-103380951D02*
X115794819Y-103285713D01*
X115794819Y-103285713D02*
X115747200Y-103142856D01*
X115747200Y-103142856D02*
X115699580Y-103095237D01*
X115699580Y-103095237D02*
X115366247Y-103095237D01*
X115366247Y-103095237D02*
X115366247Y-103285713D01*
X115699580Y-102666665D02*
X115747200Y-102619046D01*
X115747200Y-102619046D02*
X115794819Y-102666665D01*
X115794819Y-102666665D02*
X115747200Y-102714284D01*
X115747200Y-102714284D02*
X115699580Y-102666665D01*
X115699580Y-102666665D02*
X115794819Y-102666665D01*
X115413866Y-102666665D02*
X114842438Y-102714284D01*
X114842438Y-102714284D02*
X114794819Y-102666665D01*
X114794819Y-102666665D02*
X114842438Y-102619046D01*
X114842438Y-102619046D02*
X115413866Y-102666665D01*
X115413866Y-102666665D02*
X114794819Y-102666665D01*
%TO.C,C13*%
D12*
X115670000Y-94587836D02*
X115670000Y-94372164D01*
X116390000Y-94587836D02*
X116390000Y-94372164D01*
%TO.C,U4*%
D13*
X116320200Y-99402050D02*
X119120200Y-99402050D01*
X116320200Y-100402050D02*
X116320200Y-99402050D01*
X119120200Y-99402050D02*
X119120200Y-100402050D01*
X119120200Y-100402050D02*
X116320200Y-100402050D01*
D14*
X115920166Y-101422466D02*
G75*
G02*
X115930200Y-101422050I33J120416D01*
G01*
%TO.C,C11*%
D12*
X114630000Y-94597836D02*
X114630000Y-94382164D01*
X115350000Y-94597836D02*
X115350000Y-94382164D01*
%TO.C,R1*%
X121710000Y-99048641D02*
X121710000Y-98741359D01*
X122470000Y-99048641D02*
X122470000Y-98741359D01*
%TO.C,C2*%
X115522164Y-82310000D02*
X115737836Y-82310000D01*
X115522164Y-83030000D02*
X115737836Y-83030000D01*
%TO.C,U2*%
D13*
X118990000Y-94230000D02*
X122150000Y-94230000D01*
X122150000Y-96390000D02*
X118990000Y-96390000D01*
D15*
X122680000Y-96060000D02*
G75*
G02*
X122480000Y-96060000I-100000J0D01*
G01*
X122480000Y-96060000D02*
G75*
G02*
X122680000Y-96060000I100000J0D01*
G01*
%TO.C,C7*%
D12*
X115522164Y-81240000D02*
X115737836Y-81240000D01*
X115522164Y-81960000D02*
X115737836Y-81960000D01*
%TO.C,U1*%
D16*
X116610004Y-105387000D02*
G75*
G02*
X116345996Y-105387000I-132004J0D01*
G01*
X116345996Y-105387000D02*
G75*
G02*
X116610004Y-105387000I132004J0D01*
G01*
%TO.C,C10*%
D12*
X115790000Y-84072164D02*
X115790000Y-84287836D01*
X116510000Y-84072164D02*
X116510000Y-84287836D01*
%TO.C,C18*%
X116752164Y-96860000D02*
X116967836Y-96860000D01*
X116752164Y-97580000D02*
X116967836Y-97580000D01*
%TO.C,U3*%
D13*
X115060000Y-85707500D02*
X115060000Y-86357500D01*
X115060000Y-92927500D02*
X115060000Y-92277500D01*
X115710000Y-85707500D02*
X115060000Y-85707500D01*
X115710000Y-92927500D02*
X115060000Y-92927500D01*
D12*
X121630000Y-85707500D02*
X122280000Y-85707500D01*
D13*
X121630000Y-92927500D02*
X121980000Y-92927500D01*
D12*
X122280000Y-85707500D02*
X122280000Y-86357500D01*
D13*
X122280000Y-92277500D02*
X122280000Y-92687500D01*
D12*
X122520000Y-93257500D02*
X122040000Y-93257500D01*
X122280000Y-92927500D01*
X122520000Y-93257500D01*
G36*
X122520000Y-93257500D02*
G01*
X122040000Y-93257500D01*
X122280000Y-92927500D01*
X122520000Y-93257500D01*
G37*
%TO.C,C14*%
X114730000Y-84072164D02*
X114730000Y-84287836D01*
X115450000Y-84072164D02*
X115450000Y-84287836D01*
%TO.C,C6*%
X121215000Y-100977836D02*
X121215000Y-100762164D01*
X121935000Y-100977836D02*
X121935000Y-100762164D01*
%TO.C,Y1*%
D13*
X117040000Y-83300000D02*
X117040000Y-84540000D01*
X117230000Y-81350000D02*
X121290000Y-81350000D01*
X117230000Y-84650000D02*
X117230000Y-81350000D01*
X121290000Y-81350000D02*
X121290000Y-83000000D01*
X121290000Y-83000000D02*
X121290000Y-84650000D01*
X121290000Y-84650000D02*
X117230000Y-84650000D01*
%TO.C,R7*%
D12*
X122745000Y-84036359D02*
X122745000Y-84343641D01*
X123505000Y-84036359D02*
X123505000Y-84343641D01*
%TO.C,R27*%
X126084359Y-95632000D02*
X126391641Y-95632000D01*
X126084359Y-96392000D02*
X126391641Y-96392000D01*
%TO.C,C12*%
X121690000Y-84112164D02*
X121690000Y-84327836D01*
X122410000Y-84112164D02*
X122410000Y-84327836D01*
%TO.C,C5*%
X122210000Y-100977836D02*
X122210000Y-100762164D01*
X122930000Y-100977836D02*
X122930000Y-100762164D01*
%TO.C,C17*%
X114730000Y-99502836D02*
X114730000Y-99287164D01*
X115450000Y-99502836D02*
X115450000Y-99287164D01*
%TO.C,R4*%
X114710000Y-101186359D02*
X114710000Y-101493641D01*
X115470000Y-101186359D02*
X115470000Y-101493641D01*
%TO.C,R5*%
X126280000Y-101186359D02*
X126280000Y-101493641D01*
X127040000Y-101186359D02*
X127040000Y-101493641D01*
%TO.C,C16*%
X123210000Y-100977836D02*
X123210000Y-100762164D01*
X123930000Y-100977836D02*
X123930000Y-100762164D01*
%TO.C,R3*%
X119680000Y-99043641D02*
X119680000Y-98736359D01*
X120440000Y-99043641D02*
X120440000Y-98736359D01*
%TO.C,C4*%
X121690000Y-82122164D02*
X121690000Y-82337836D01*
X122410000Y-82122164D02*
X122410000Y-82337836D01*
%TO.C,R2*%
X120700000Y-99043641D02*
X120700000Y-98736359D01*
X121460000Y-99043641D02*
X121460000Y-98736359D01*
%TO.C,C15*%
X122730000Y-98787164D02*
X122730000Y-99002836D01*
X123450000Y-98787164D02*
X123450000Y-99002836D01*
%TO.C,J1*%
D13*
X117405000Y-105305000D02*
X117405000Y-107005000D01*
X126745000Y-105305000D02*
X126745000Y-107005000D01*
%TO.C,C9*%
D12*
X114730000Y-97342164D02*
X114730000Y-97557836D01*
X115450000Y-97342164D02*
X115450000Y-97557836D01*
%TO.C,R25*%
X126391641Y-96902000D02*
X126084359Y-96902000D01*
X126391641Y-97662000D02*
X126084359Y-97662000D01*
%TO.C,C8*%
X115362164Y-95600000D02*
X115577836Y-95600000D01*
X115362164Y-96320000D02*
X115577836Y-96320000D01*
%TO.C,R6*%
X122411359Y-96870000D02*
X122718641Y-96870000D01*
X122411359Y-97630000D02*
X122718641Y-97630000D01*
%TD*%
%LPC*%
D17*
%TO.C,J2*%
X126635000Y-93725000D03*
X124635000Y-93725000D03*
X126635000Y-91725000D03*
X124635000Y-91725000D03*
X126635000Y-89725000D03*
X124635000Y-89725000D03*
X126635000Y-87725000D03*
X124635000Y-87725000D03*
X126635000Y-85725000D03*
X124635000Y-85725000D03*
X126635000Y-83725000D03*
X124635000Y-83725000D03*
X126635000Y-81725000D03*
D18*
X124635000Y-81725000D03*
%TD*%
D19*
%TO.C,C13*%
X116030000Y-94960000D03*
X116030000Y-94000000D03*
%TD*%
D20*
%TO.C,U4*%
X116750200Y-101202050D03*
X117700200Y-101202050D03*
X118650200Y-101202050D03*
X118650200Y-98602050D03*
X116750200Y-98602050D03*
%TD*%
D19*
%TO.C,C11*%
X114990000Y-94970000D03*
X114990000Y-94010000D03*
%TD*%
D21*
%TO.C,R1*%
X122090000Y-99405000D03*
X122090000Y-98385000D03*
%TD*%
D22*
%TO.C,C2*%
X115150000Y-82670000D03*
X116110000Y-82670000D03*
%TD*%
D23*
%TO.C,U2*%
X121990000Y-96060000D03*
X121990000Y-95560000D03*
X121990000Y-95060000D03*
X121990000Y-94560000D03*
X119150000Y-94560000D03*
X119150000Y-95060000D03*
X119150000Y-95560000D03*
X119150000Y-96060000D03*
D24*
X120570000Y-95310000D03*
%TD*%
D22*
%TO.C,C7*%
X115150000Y-81600000D03*
X116110000Y-81600000D03*
%TD*%
D25*
%TO.C,U1*%
X116175000Y-106250000D03*
D26*
X116175000Y-107600000D03*
D27*
X116175000Y-108625000D03*
D25*
X116175000Y-109850000D03*
%TD*%
D28*
%TO.C,C10*%
X116150000Y-83700000D03*
X116150000Y-84660000D03*
%TD*%
D22*
%TO.C,C18*%
X116380000Y-97220000D03*
X117340000Y-97220000D03*
%TD*%
D29*
%TO.C,U3*%
X122107500Y-91917500D03*
X122107500Y-91517500D03*
X122107500Y-91117500D03*
X122107500Y-90717500D03*
X122107500Y-90317500D03*
X122107500Y-89917500D03*
X122107500Y-89517500D03*
X122107500Y-89117500D03*
X122107500Y-88717500D03*
X122107500Y-88317500D03*
X122107500Y-87917500D03*
X122107500Y-87517500D03*
X122107500Y-87117500D03*
X122107500Y-86717500D03*
D30*
X121270000Y-85880000D03*
X120870000Y-85880000D03*
X120470000Y-85880000D03*
X120070000Y-85880000D03*
X119670000Y-85880000D03*
X119270000Y-85880000D03*
X118870000Y-85880000D03*
X118470000Y-85880000D03*
X118070000Y-85880000D03*
X117670000Y-85880000D03*
X117270000Y-85880000D03*
X116870000Y-85880000D03*
X116470000Y-85880000D03*
X116070000Y-85880000D03*
D29*
X115232500Y-86717500D03*
X115232500Y-87117500D03*
X115232500Y-87517500D03*
X115232500Y-87917500D03*
X115232500Y-88317500D03*
X115232500Y-88717500D03*
X115232500Y-89117500D03*
X115232500Y-89517500D03*
X115232500Y-89917500D03*
X115232500Y-90317500D03*
X115232500Y-90717500D03*
X115232500Y-91117500D03*
X115232500Y-91517500D03*
X115232500Y-91917500D03*
D30*
X116070000Y-92755000D03*
X116470000Y-92755000D03*
X116870000Y-92755000D03*
X117270000Y-92755000D03*
X117670000Y-92755000D03*
X118070000Y-92755000D03*
X118470000Y-92755000D03*
X118870000Y-92755000D03*
X119270000Y-92755000D03*
X119670000Y-92755000D03*
X120070000Y-92755000D03*
X120470000Y-92755000D03*
X120870000Y-92755000D03*
X121270000Y-92755000D03*
D31*
X118670000Y-89317500D03*
%TD*%
D28*
%TO.C,C14*%
X115090000Y-83700000D03*
X115090000Y-84660000D03*
%TD*%
D19*
%TO.C,C6*%
X121575000Y-101350000D03*
X121575000Y-100390000D03*
%TD*%
D32*
%TO.C,Y1*%
X118160000Y-83880000D03*
X120360000Y-83880000D03*
X120360000Y-82120000D03*
X118160000Y-82120000D03*
%TD*%
D33*
%TO.C,R7*%
X123125000Y-83680000D03*
X123125000Y-84700000D03*
%TD*%
D34*
%TO.C,R27*%
X125728000Y-96012000D03*
X126748000Y-96012000D03*
%TD*%
D28*
%TO.C,C12*%
X122050000Y-83740000D03*
X122050000Y-84700000D03*
%TD*%
D19*
%TO.C,C5*%
X122570000Y-101350000D03*
X122570000Y-100390000D03*
%TD*%
%TO.C,C17*%
X115090000Y-99875000D03*
X115090000Y-98915000D03*
%TD*%
D33*
%TO.C,R4*%
X115090000Y-100830000D03*
X115090000Y-101850000D03*
%TD*%
%TO.C,R5*%
X126660000Y-100830000D03*
X126660000Y-101850000D03*
%TD*%
D19*
%TO.C,C16*%
X123570000Y-101350000D03*
X123570000Y-100390000D03*
%TD*%
D21*
%TO.C,R3*%
X120060000Y-99400000D03*
X120060000Y-98380000D03*
%TD*%
D28*
%TO.C,C4*%
X122050000Y-81750000D03*
X122050000Y-82710000D03*
%TD*%
D21*
%TO.C,R2*%
X121080000Y-99400000D03*
X121080000Y-98380000D03*
%TD*%
D28*
%TO.C,C15*%
X123090000Y-98415000D03*
X123090000Y-99375000D03*
%TD*%
D35*
%TO.C,J1*%
X119185000Y-104500000D03*
X124965000Y-104500000D03*
D36*
X118875000Y-103425000D03*
X119675000Y-103425000D03*
D37*
X120825000Y-103425000D03*
X121825000Y-103425000D03*
X122325000Y-103425000D03*
X123325000Y-103425000D03*
D36*
X125275000Y-103425000D03*
X124475000Y-103425000D03*
D37*
X123825000Y-103425000D03*
X122825000Y-103425000D03*
X121325000Y-103425000D03*
X120325000Y-103425000D03*
D38*
X117755000Y-104000000D03*
D39*
X117755000Y-108180000D03*
D38*
X126395000Y-104000000D03*
D39*
X126395000Y-108180000D03*
%TD*%
D28*
%TO.C,C9*%
X115090000Y-96970000D03*
X115090000Y-97930000D03*
%TD*%
D40*
%TO.C,R25*%
X126748000Y-97282000D03*
X125728000Y-97282000D03*
%TD*%
D22*
%TO.C,C8*%
X114990000Y-95960000D03*
X115950000Y-95960000D03*
%TD*%
D34*
%TO.C,R6*%
X122055000Y-97250000D03*
X123075000Y-97250000D03*
%TD*%
%LPD*%
M02*
