%TF.GenerationSoftware,KiCad,Pcbnew,9.0.2*%
%TF.CreationDate,2026-01-18T21:17:22+03:00*%
%TF.ProjectId,bitLode,6269744c-6f64-4652-9e6b-696361645f70,rev?*%
%TF.SameCoordinates,Original*%
%TF.FileFunction,Copper,L3,Inr*%
%TF.FilePolarity,Positive*%
%FSLAX46Y46*%
G04 Gerber Fmt 4.6, Leading zero omitted, Abs format (unit mm)*
G04 Created by KiCad (PCBNEW 9.0.2) date 2026-01-18 21:17:22*
%MOMM*%
%LPD*%
G01*
G04 APERTURE LIST*
%TA.AperFunction,ComponentPad*%
%ADD10O,1.000000X2.100000*%
%TD*%
%TA.AperFunction,ComponentPad*%
%ADD11O,1.000000X1.800000*%
%TD*%
%TA.AperFunction,ComponentPad*%
%ADD12C,1.350000*%
%TD*%
%TA.AperFunction,ComponentPad*%
%ADD13R,1.350000X1.350000*%
%TD*%
%TA.AperFunction,ViaPad*%
%ADD14C,0.500000*%
%TD*%
G04 APERTURE END LIST*
D10*
%TO.N,/GND*%
%TO.C,J1*%
X116720000Y-104000000D03*
D11*
X116720000Y-108180000D03*
D10*
X125360000Y-104000000D03*
D11*
X125360000Y-108180000D03*
%TD*%
D12*
%TO.N,/RXD*%
%TO.C,J2*%
X126675000Y-93750000D03*
%TO.N,/TXD*%
X124675000Y-93750000D03*
%TO.N,/GND*%
X126675000Y-91750000D03*
%TO.N,/RST*%
X124675000Y-91750000D03*
%TO.N,/RST_DET*%
X126675000Y-89750000D03*
%TO.N,/GND*%
X124675000Y-89750000D03*
%TO.N,unconnected-(J2-Pin_8-Pad8)*%
X126675000Y-87750000D03*
%TO.N,/3V3*%
X124675000Y-87750000D03*
%TO.N,/SCL*%
X126675000Y-85750000D03*
%TO.N,/A0*%
X124675000Y-85750000D03*
%TO.N,/SDA*%
X126675000Y-83750000D03*
%TO.N,/A1*%
X124675000Y-83750000D03*
%TO.N,/GND*%
X126675000Y-81750000D03*
D13*
X124675000Y-81750000D03*
%TD*%
D14*
%TO.N,/A0*%
X124650003Y-98000000D03*
%TO.N,/A1*%
X124000000Y-98000000D03*
%TO.N,/SCL*%
X120000000Y-85000000D03*
%TO.N,/GND*%
X126260000Y-100220000D03*
X115470000Y-95330000D03*
X124250000Y-102310000D03*
X117240000Y-82120000D03*
X117590000Y-88250000D03*
X119850000Y-90310000D03*
X121500000Y-83740000D03*
X115580000Y-98300000D03*
X115570000Y-100830000D03*
X117830000Y-102330000D03*
X122700000Y-83730000D03*
X123090000Y-96890000D03*
X117040000Y-96600000D03*
X115620000Y-83470000D03*
X122260000Y-81340000D03*
X126190000Y-99380000D03*
X115170000Y-82150000D03*
X117600000Y-90340000D03*
X119810000Y-88250000D03*
X121190000Y-94630000D03*
X125650000Y-102020000D03*
%TO.N,/3V3*%
X116100000Y-88320000D03*
X118260000Y-91790000D03*
X118880000Y-86920000D03*
X122500000Y-92500000D03*
X116750000Y-99470000D03*
X123060000Y-99630000D03*
X119870000Y-96070000D03*
X123080000Y-98710000D03*
X122760000Y-84590000D03*
X116520000Y-86780000D03*
X115780000Y-96880000D03*
X121300000Y-88300000D03*
X121990000Y-98740000D03*
X115220000Y-92830000D03*
X115640000Y-85200000D03*
%TO.N,/1V1*%
X116540000Y-81630000D03*
X119700000Y-100330000D03*
X121730000Y-99830000D03*
X118990000Y-91820000D03*
X118330000Y-84950000D03*
X118070000Y-86810000D03*
%TO.N,/5V*%
X123430000Y-102310000D03*
X118640000Y-102340000D03*
%TO.N,/SWCLK*%
X122300000Y-104700000D03*
X117180000Y-84940000D03*
%TO.N,/SWD*%
X119240000Y-105690000D03*
X116530000Y-87550000D03*
%TD*%
%TA.AperFunction,Conductor*%
%TO.N,/3V3*%
G36*
X122196371Y-80865086D02*
G01*
X122210957Y-80900300D01*
X122196371Y-80935514D01*
X122174046Y-80948403D01*
X122105417Y-80966791D01*
X122105409Y-80966795D01*
X122014087Y-81019519D01*
X121939519Y-81094087D01*
X121886795Y-81185409D01*
X121886791Y-81185417D01*
X121859500Y-81287271D01*
X121859500Y-81392728D01*
X121886791Y-81494582D01*
X121886795Y-81494590D01*
X121934531Y-81577273D01*
X121939520Y-81585913D01*
X122014087Y-81660480D01*
X122105413Y-81713207D01*
X122207273Y-81740500D01*
X122312727Y-81740500D01*
X122414587Y-81713207D01*
X122505913Y-81660480D01*
X122580480Y-81585913D01*
X122633207Y-81494587D01*
X122660500Y-81392727D01*
X122660500Y-81287273D01*
X122633207Y-81185413D01*
X122600497Y-81128758D01*
X122580481Y-81094088D01*
X122551335Y-81064942D01*
X123897900Y-81064942D01*
X123897900Y-82435053D01*
X123897901Y-82435063D01*
X123903822Y-82464835D01*
X123903823Y-82464837D01*
X123926388Y-82498608D01*
X123926389Y-82498608D01*
X123926390Y-82498610D01*
X123960163Y-82521176D01*
X123989945Y-82527100D01*
X125360054Y-82527099D01*
X125360055Y-82527098D01*
X125360063Y-82527098D01*
X125389835Y-82521177D01*
X125389837Y-82521176D01*
X125390850Y-82520499D01*
X125423610Y-82498610D01*
X125446176Y-82464837D01*
X125452100Y-82435055D01*
X125452099Y-81064946D01*
X125452099Y-81064945D01*
X125452098Y-81064936D01*
X125446177Y-81035164D01*
X125446176Y-81035162D01*
X125423611Y-81001391D01*
X125423607Y-81001388D01*
X125389837Y-80978824D01*
X125389834Y-80978823D01*
X125389836Y-80978823D01*
X125365978Y-80974078D01*
X125360055Y-80972900D01*
X125360054Y-80972900D01*
X123989946Y-80972900D01*
X123989936Y-80972901D01*
X123960164Y-80978822D01*
X123960162Y-80978823D01*
X123926391Y-81001388D01*
X123903823Y-81035164D01*
X123897900Y-81064942D01*
X122551335Y-81064942D01*
X122505912Y-81019519D01*
X122450022Y-80987251D01*
X122414587Y-80966793D01*
X122414584Y-80966792D01*
X122414582Y-80966791D01*
X122345954Y-80948403D01*
X122315715Y-80925200D01*
X122310740Y-80887411D01*
X122333943Y-80857172D01*
X122358843Y-80850500D01*
X127276081Y-80850500D01*
X127283869Y-80851112D01*
X127346486Y-80861030D01*
X127357747Y-80864205D01*
X127368169Y-80868522D01*
X127371693Y-80870146D01*
X127419625Y-80894569D01*
X127432228Y-80903726D01*
X127476272Y-80947770D01*
X127485429Y-80960375D01*
X127485430Y-80960376D01*
X127509843Y-81008290D01*
X127511478Y-81011836D01*
X127515790Y-81022243D01*
X127518970Y-81033515D01*
X127528887Y-81096129D01*
X127529500Y-81103919D01*
X127529500Y-81556951D01*
X127514914Y-81592165D01*
X127479700Y-81606751D01*
X127444486Y-81592165D01*
X127430857Y-81566667D01*
X127427992Y-81552268D01*
X127422236Y-81523328D01*
X127363657Y-81381905D01*
X127300426Y-81287273D01*
X127278616Y-81254631D01*
X127170368Y-81146383D01*
X127048487Y-81064946D01*
X127043095Y-81061343D01*
X127043093Y-81061342D01*
X127043091Y-81061341D01*
X126948730Y-81022256D01*
X126901672Y-81002764D01*
X126901668Y-81002763D01*
X126901662Y-81002761D01*
X126751540Y-80972900D01*
X126751538Y-80972900D01*
X126598462Y-80972900D01*
X126598459Y-80972900D01*
X126448337Y-81002761D01*
X126448329Y-81002763D01*
X126448328Y-81002764D01*
X126448324Y-81002765D01*
X126448323Y-81002766D01*
X126306908Y-81061341D01*
X126306906Y-81061342D01*
X126179631Y-81146383D01*
X126179629Y-81146386D01*
X126071386Y-81254629D01*
X126071383Y-81254631D01*
X125986342Y-81381906D01*
X125986341Y-81381908D01*
X125927766Y-81523323D01*
X125927761Y-81523337D01*
X125897900Y-81673459D01*
X125897900Y-81826540D01*
X125927761Y-81976662D01*
X125927763Y-81976668D01*
X125927764Y-81976672D01*
X125950060Y-82030499D01*
X125986341Y-82118091D01*
X125986342Y-82118093D01*
X126071383Y-82245368D01*
X126179631Y-82353616D01*
X126242933Y-82395912D01*
X126306905Y-82438657D01*
X126448328Y-82497236D01*
X126448335Y-82497237D01*
X126448337Y-82497238D01*
X126455235Y-82498610D01*
X126598462Y-82527100D01*
X126598467Y-82527100D01*
X126751533Y-82527100D01*
X126751538Y-82527100D01*
X126901672Y-82497236D01*
X127043095Y-82438657D01*
X127170372Y-82353613D01*
X127278613Y-82245372D01*
X127363657Y-82118095D01*
X127422236Y-81976672D01*
X127430857Y-81933333D01*
X127452033Y-81901641D01*
X127489415Y-81894205D01*
X127521107Y-81915381D01*
X127529500Y-81943048D01*
X127529500Y-83556951D01*
X127514914Y-83592165D01*
X127479700Y-83606751D01*
X127444486Y-83592165D01*
X127430857Y-83566667D01*
X127427992Y-83552268D01*
X127422236Y-83523328D01*
X127363657Y-83381905D01*
X127319231Y-83315417D01*
X127278616Y-83254631D01*
X127170368Y-83146383D01*
X127055303Y-83069500D01*
X127043095Y-83061343D01*
X127043093Y-83061342D01*
X127043091Y-83061341D01*
X126972383Y-83032053D01*
X126901672Y-83002764D01*
X126901668Y-83002763D01*
X126901662Y-83002761D01*
X126751540Y-82972900D01*
X126751538Y-82972900D01*
X126598462Y-82972900D01*
X126598459Y-82972900D01*
X126448337Y-83002761D01*
X126448329Y-83002763D01*
X126448328Y-83002764D01*
X126448324Y-83002765D01*
X126448323Y-83002766D01*
X126306908Y-83061341D01*
X126306906Y-83061342D01*
X126179631Y-83146383D01*
X126179629Y-83146386D01*
X126071386Y-83254629D01*
X126071383Y-83254631D01*
X125986342Y-83381906D01*
X125986341Y-83381908D01*
X125927766Y-83523323D01*
X125927761Y-83523337D01*
X125897900Y-83673459D01*
X125897900Y-83826540D01*
X125927761Y-83976662D01*
X125927763Y-83976668D01*
X125927764Y-83976672D01*
X125931592Y-83985913D01*
X125986341Y-84118091D01*
X125986342Y-84118093D01*
X126071383Y-84245368D01*
X126179631Y-84353616D01*
X126255787Y-84404501D01*
X126306905Y-84438657D01*
X126448328Y-84497236D01*
X126448335Y-84497237D01*
X126448337Y-84497238D01*
X126499705Y-84507455D01*
X126598462Y-84527100D01*
X126598467Y-84527100D01*
X126751533Y-84527100D01*
X126751538Y-84527100D01*
X126901672Y-84497236D01*
X127043095Y-84438657D01*
X127170372Y-84353613D01*
X127278613Y-84245372D01*
X127363657Y-84118095D01*
X127422236Y-83976672D01*
X127430857Y-83933333D01*
X127452033Y-83901641D01*
X127489415Y-83894205D01*
X127521107Y-83915381D01*
X127529500Y-83943048D01*
X127529500Y-85556951D01*
X127514914Y-85592165D01*
X127479700Y-85606751D01*
X127444486Y-85592165D01*
X127430857Y-85566667D01*
X127427992Y-85552268D01*
X127422236Y-85523328D01*
X127363657Y-85381905D01*
X127317755Y-85313208D01*
X127278616Y-85254631D01*
X127170368Y-85146383D01*
X127068825Y-85078535D01*
X127043095Y-85061343D01*
X127043093Y-85061342D01*
X127043091Y-85061341D01*
X126972383Y-85032053D01*
X126901672Y-85002764D01*
X126901668Y-85002763D01*
X126901662Y-85002761D01*
X126751540Y-84972900D01*
X126751538Y-84972900D01*
X126598462Y-84972900D01*
X126598459Y-84972900D01*
X126448337Y-85002761D01*
X126448329Y-85002763D01*
X126448328Y-85002764D01*
X126448324Y-85002765D01*
X126448323Y-85002766D01*
X126306908Y-85061341D01*
X126306906Y-85061342D01*
X126179631Y-85146383D01*
X126179629Y-85146386D01*
X126071386Y-85254629D01*
X126071383Y-85254631D01*
X125986342Y-85381906D01*
X125986341Y-85381908D01*
X125927766Y-85523323D01*
X125927761Y-85523337D01*
X125897900Y-85673459D01*
X125897900Y-85826540D01*
X125927761Y-85976662D01*
X125927763Y-85976668D01*
X125927764Y-85976672D01*
X125927766Y-85976676D01*
X125986341Y-86118091D01*
X125986342Y-86118093D01*
X126071383Y-86245368D01*
X126179631Y-86353616D01*
X126255787Y-86404501D01*
X126306905Y-86438657D01*
X126448328Y-86497236D01*
X126448335Y-86497237D01*
X126448337Y-86497238D01*
X126499705Y-86507455D01*
X126598462Y-86527100D01*
X126598467Y-86527100D01*
X126751533Y-86527100D01*
X126751538Y-86527100D01*
X126901672Y-86497236D01*
X127043095Y-86438657D01*
X127170372Y-86353613D01*
X127278613Y-86245372D01*
X127363657Y-86118095D01*
X127422236Y-85976672D01*
X127430857Y-85933333D01*
X127452033Y-85901641D01*
X127489415Y-85894205D01*
X127521107Y-85915381D01*
X127529500Y-85943048D01*
X127529500Y-87556951D01*
X127514914Y-87592165D01*
X127479700Y-87606751D01*
X127444486Y-87592165D01*
X127430857Y-87566667D01*
X127427992Y-87552268D01*
X127422236Y-87523328D01*
X127363657Y-87381905D01*
X127311661Y-87304087D01*
X127278616Y-87254631D01*
X127170368Y-87146383D01*
X127068825Y-87078535D01*
X127043095Y-87061343D01*
X127043093Y-87061342D01*
X127043091Y-87061341D01*
X126972383Y-87032053D01*
X126901672Y-87002764D01*
X126901668Y-87002763D01*
X126901662Y-87002761D01*
X126751540Y-86972900D01*
X126751538Y-86972900D01*
X126598462Y-86972900D01*
X126598459Y-86972900D01*
X126448337Y-87002761D01*
X126448329Y-87002763D01*
X126448328Y-87002764D01*
X126448324Y-87002765D01*
X126448323Y-87002766D01*
X126306908Y-87061341D01*
X126306906Y-87061342D01*
X126179631Y-87146383D01*
X126179629Y-87146386D01*
X126071386Y-87254629D01*
X126071383Y-87254631D01*
X125986342Y-87381906D01*
X125986341Y-87381908D01*
X125927766Y-87523323D01*
X125927761Y-87523337D01*
X125897900Y-87673459D01*
X125897900Y-87826540D01*
X125927761Y-87976662D01*
X125927763Y-87976668D01*
X125927764Y-87976672D01*
X125927766Y-87976676D01*
X125980319Y-88103553D01*
X125986343Y-88118095D01*
X125996478Y-88133263D01*
X126071383Y-88245368D01*
X126179631Y-88353616D01*
X126255787Y-88404501D01*
X126306905Y-88438657D01*
X126448328Y-88497236D01*
X126448335Y-88497237D01*
X126448337Y-88497238D01*
X126499705Y-88507455D01*
X126598462Y-88527100D01*
X126598467Y-88527100D01*
X126751533Y-88527100D01*
X126751538Y-88527100D01*
X126901672Y-88497236D01*
X127043095Y-88438657D01*
X127170372Y-88353613D01*
X127278613Y-88245372D01*
X127363657Y-88118095D01*
X127422236Y-87976672D01*
X127430857Y-87933333D01*
X127452033Y-87901641D01*
X127489415Y-87894205D01*
X127521107Y-87915381D01*
X127529500Y-87943048D01*
X127529500Y-89556951D01*
X127514914Y-89592165D01*
X127479700Y-89606751D01*
X127444486Y-89592165D01*
X127430857Y-89566667D01*
X127427992Y-89552268D01*
X127422236Y-89523328D01*
X127363657Y-89381905D01*
X127329501Y-89330787D01*
X127278616Y-89254631D01*
X127170368Y-89146383D01*
X127068825Y-89078535D01*
X127043095Y-89061343D01*
X127043093Y-89061342D01*
X127043091Y-89061341D01*
X126972383Y-89032053D01*
X126901672Y-89002764D01*
X126901668Y-89002763D01*
X126901662Y-89002761D01*
X126751540Y-88972900D01*
X126751538Y-88972900D01*
X126598462Y-88972900D01*
X126598459Y-88972900D01*
X126448337Y-89002761D01*
X126448329Y-89002763D01*
X126448328Y-89002764D01*
X126448324Y-89002765D01*
X126448323Y-89002766D01*
X126306908Y-89061341D01*
X126306906Y-89061342D01*
X126179631Y-89146383D01*
X126179629Y-89146386D01*
X126071386Y-89254629D01*
X126071383Y-89254631D01*
X125986342Y-89381906D01*
X125986341Y-89381908D01*
X125927766Y-89523323D01*
X125927761Y-89523337D01*
X125897900Y-89673459D01*
X125897900Y-89826540D01*
X125927761Y-89976662D01*
X125927763Y-89976668D01*
X125927764Y-89976672D01*
X125933086Y-89989520D01*
X125986341Y-90118091D01*
X125986342Y-90118093D01*
X126071383Y-90245368D01*
X126179631Y-90353616D01*
X126255787Y-90404501D01*
X126306905Y-90438657D01*
X126448328Y-90497236D01*
X126448335Y-90497237D01*
X126448337Y-90497238D01*
X126499705Y-90507455D01*
X126598462Y-90527100D01*
X126598467Y-90527100D01*
X126751533Y-90527100D01*
X126751538Y-90527100D01*
X126901672Y-90497236D01*
X127043095Y-90438657D01*
X127145329Y-90370345D01*
X127170368Y-90353616D01*
X127170371Y-90353614D01*
X127278614Y-90245371D01*
X127278616Y-90245368D01*
X127295345Y-90220329D01*
X127363657Y-90118095D01*
X127422236Y-89976672D01*
X127424201Y-89966793D01*
X127430857Y-89933333D01*
X127452033Y-89901641D01*
X127489415Y-89894205D01*
X127521107Y-89915381D01*
X127529500Y-89943048D01*
X127529500Y-91556951D01*
X127514914Y-91592165D01*
X127479700Y-91606751D01*
X127444486Y-91592165D01*
X127430857Y-91566667D01*
X127427992Y-91552268D01*
X127422236Y-91523328D01*
X127363657Y-91381905D01*
X127329501Y-91330787D01*
X127278616Y-91254631D01*
X127170368Y-91146383D01*
X127068825Y-91078535D01*
X127043095Y-91061343D01*
X127043093Y-91061342D01*
X127043091Y-91061341D01*
X126972383Y-91032053D01*
X126901672Y-91002764D01*
X126901668Y-91002763D01*
X126901662Y-91002761D01*
X126751540Y-90972900D01*
X126751538Y-90972900D01*
X126598462Y-90972900D01*
X126598459Y-90972900D01*
X126448337Y-91002761D01*
X126448329Y-91002763D01*
X126448328Y-91002764D01*
X126448324Y-91002765D01*
X126448323Y-91002766D01*
X126306908Y-91061341D01*
X126306906Y-91061342D01*
X126179631Y-91146383D01*
X126179629Y-91146386D01*
X126071386Y-91254629D01*
X126071383Y-91254631D01*
X125986342Y-91381906D01*
X125986341Y-91381908D01*
X125927766Y-91523323D01*
X125927761Y-91523337D01*
X125897900Y-91673459D01*
X125897900Y-91826540D01*
X125927761Y-91976662D01*
X125927763Y-91976668D01*
X125927764Y-91976672D01*
X125927766Y-91976676D01*
X125986341Y-92118091D01*
X125986342Y-92118093D01*
X126071383Y-92245368D01*
X126179631Y-92353616D01*
X126255787Y-92404501D01*
X126306905Y-92438657D01*
X126448328Y-92497236D01*
X126448335Y-92497237D01*
X126448337Y-92497238D01*
X126499705Y-92507455D01*
X126598462Y-92527100D01*
X126598467Y-92527100D01*
X126751533Y-92527100D01*
X126751538Y-92527100D01*
X126901672Y-92497236D01*
X127043095Y-92438657D01*
X127170372Y-92353613D01*
X127278613Y-92245372D01*
X127363657Y-92118095D01*
X127422236Y-91976672D01*
X127430857Y-91933333D01*
X127452033Y-91901641D01*
X127489415Y-91894205D01*
X127521107Y-91915381D01*
X127529500Y-91943048D01*
X127529500Y-93556951D01*
X127514914Y-93592165D01*
X127479700Y-93606751D01*
X127444486Y-93592165D01*
X127430857Y-93566667D01*
X127427992Y-93552268D01*
X127422236Y-93523328D01*
X127363657Y-93381905D01*
X127329501Y-93330787D01*
X127278616Y-93254631D01*
X127170368Y-93146383D01*
X127068825Y-93078535D01*
X127043095Y-93061343D01*
X127043093Y-93061342D01*
X127043091Y-93061341D01*
X126972383Y-93032053D01*
X126901672Y-93002764D01*
X126901668Y-93002763D01*
X126901662Y-93002761D01*
X126751540Y-92972900D01*
X126751538Y-92972900D01*
X126598462Y-92972900D01*
X126598459Y-92972900D01*
X126448337Y-93002761D01*
X126448329Y-93002763D01*
X126448328Y-93002764D01*
X126448324Y-93002765D01*
X126448323Y-93002766D01*
X126306908Y-93061341D01*
X126306906Y-93061342D01*
X126179631Y-93146383D01*
X126179629Y-93146386D01*
X126071386Y-93254629D01*
X126071383Y-93254631D01*
X125986342Y-93381906D01*
X125986341Y-93381908D01*
X125927766Y-93523323D01*
X125927761Y-93523337D01*
X125897900Y-93673459D01*
X125897900Y-93826540D01*
X125927761Y-93976662D01*
X125927763Y-93976668D01*
X125927764Y-93976672D01*
X125927766Y-93976676D01*
X125986341Y-94118091D01*
X125986342Y-94118093D01*
X126071383Y-94245368D01*
X126179631Y-94353616D01*
X126225235Y-94384087D01*
X126306905Y-94438657D01*
X126448328Y-94497236D01*
X126448335Y-94497237D01*
X126448337Y-94497238D01*
X126499705Y-94507455D01*
X126598462Y-94527100D01*
X126598467Y-94527100D01*
X126751533Y-94527100D01*
X126751538Y-94527100D01*
X126901672Y-94497236D01*
X127043095Y-94438657D01*
X127170372Y-94353613D01*
X127278613Y-94245372D01*
X127363657Y-94118095D01*
X127422236Y-93976672D01*
X127430857Y-93933333D01*
X127452033Y-93901641D01*
X127489415Y-93894205D01*
X127521107Y-93915381D01*
X127529500Y-93943048D01*
X127529500Y-110546080D01*
X127528887Y-110553870D01*
X127518970Y-110616483D01*
X127515791Y-110627754D01*
X127511477Y-110638167D01*
X127509841Y-110641714D01*
X127485431Y-110689622D01*
X127476273Y-110702228D01*
X127432228Y-110746273D01*
X127419623Y-110755430D01*
X127419622Y-110755431D01*
X127371714Y-110779841D01*
X127368167Y-110781477D01*
X127357754Y-110785791D01*
X127346483Y-110788970D01*
X127283870Y-110798887D01*
X127276080Y-110799500D01*
X114613920Y-110799500D01*
X114606130Y-110798887D01*
X114543515Y-110788970D01*
X114532243Y-110785790D01*
X114521836Y-110781478D01*
X114518290Y-110779843D01*
X114470376Y-110755430D01*
X114457770Y-110746272D01*
X114413726Y-110702228D01*
X114404568Y-110689623D01*
X114380146Y-110641693D01*
X114378522Y-110638167D01*
X114374205Y-110627747D01*
X114371029Y-110616483D01*
X114366783Y-110589675D01*
X114361113Y-110553870D01*
X114360500Y-110546080D01*
X114360500Y-107700732D01*
X116117900Y-107700732D01*
X116117900Y-108659268D01*
X116158933Y-108812402D01*
X116238200Y-108949698D01*
X116350302Y-109061800D01*
X116487598Y-109141067D01*
X116640732Y-109182100D01*
X116799268Y-109182100D01*
X116952402Y-109141067D01*
X117089698Y-109061800D01*
X117201800Y-108949698D01*
X117281067Y-108812402D01*
X117322100Y-108659268D01*
X117322100Y-107700732D01*
X124757900Y-107700732D01*
X124757900Y-108659268D01*
X124798933Y-108812402D01*
X124878200Y-108949698D01*
X124990302Y-109061800D01*
X125127598Y-109141067D01*
X125280732Y-109182100D01*
X125439268Y-109182100D01*
X125592402Y-109141067D01*
X125729698Y-109061800D01*
X125841800Y-108949698D01*
X125921067Y-108812402D01*
X125962100Y-108659268D01*
X125962100Y-107700732D01*
X125921067Y-107547598D01*
X125841800Y-107410302D01*
X125729698Y-107298200D01*
X125729697Y-107298199D01*
X125592405Y-107218935D01*
X125592402Y-107218933D01*
X125592399Y-107218932D01*
X125439268Y-107177900D01*
X125280732Y-107177900D01*
X125127600Y-107218932D01*
X125127594Y-107218935D01*
X124990302Y-107298199D01*
X124878199Y-107410302D01*
X124798935Y-107547594D01*
X124798933Y-107547598D01*
X124757900Y-107700732D01*
X117322100Y-107700732D01*
X117281067Y-107547598D01*
X117201800Y-107410302D01*
X117089698Y-107298200D01*
X117089697Y-107298199D01*
X116952405Y-107218935D01*
X116952402Y-107218933D01*
X116952399Y-107218932D01*
X116799268Y-107177900D01*
X116640732Y-107177900D01*
X116487600Y-107218932D01*
X116487594Y-107218935D01*
X116350302Y-107298199D01*
X116238199Y-107410302D01*
X116158935Y-107547594D01*
X116158933Y-107547598D01*
X116117900Y-107700732D01*
X114360500Y-107700732D01*
X114360500Y-105637271D01*
X118839500Y-105637271D01*
X118839500Y-105742728D01*
X118866791Y-105844582D01*
X118866792Y-105844584D01*
X118866793Y-105844587D01*
X118919520Y-105935913D01*
X118994087Y-106010480D01*
X119085413Y-106063207D01*
X119187273Y-106090500D01*
X119292727Y-106090500D01*
X119394587Y-106063207D01*
X119485913Y-106010480D01*
X119560480Y-105935913D01*
X119613207Y-105844587D01*
X119640500Y-105742727D01*
X119640500Y-105637273D01*
X119613207Y-105535413D01*
X119560480Y-105444087D01*
X119485913Y-105369520D01*
X119485912Y-105369519D01*
X119394590Y-105316795D01*
X119394587Y-105316793D01*
X119394584Y-105316792D01*
X119394582Y-105316791D01*
X119292728Y-105289500D01*
X119292727Y-105289500D01*
X119187273Y-105289500D01*
X119187271Y-105289500D01*
X119085417Y-105316791D01*
X119085409Y-105316795D01*
X118994087Y-105369519D01*
X118919519Y-105444087D01*
X118866795Y-105535409D01*
X118866791Y-105535417D01*
X118839500Y-105637271D01*
X114360500Y-105637271D01*
X114360500Y-103370731D01*
X116117900Y-103370731D01*
X116117900Y-104629268D01*
X116158932Y-104782399D01*
X116158935Y-104782405D01*
X116200608Y-104854587D01*
X116238200Y-104919698D01*
X116350302Y-105031800D01*
X116487598Y-105111067D01*
X116640732Y-105152100D01*
X116799268Y-105152100D01*
X116952402Y-105111067D01*
X117089698Y-105031800D01*
X117201800Y-104919698D01*
X117281067Y-104782402D01*
X117322100Y-104629268D01*
X117322100Y-104424232D01*
X117574500Y-104424232D01*
X117574500Y-104575767D01*
X117613717Y-104722130D01*
X117613718Y-104722132D01*
X117613719Y-104722135D01*
X117689485Y-104853365D01*
X117796635Y-104960515D01*
X117927865Y-105036281D01*
X118074234Y-105075500D01*
X118225766Y-105075500D01*
X118372135Y-105036281D01*
X118503365Y-104960515D01*
X118610515Y-104853365D01*
X118686281Y-104722135D01*
X118706341Y-104647271D01*
X121899500Y-104647271D01*
X121899500Y-104752728D01*
X121926791Y-104854582D01*
X121926792Y-104854584D01*
X121926793Y-104854587D01*
X121979520Y-104945913D01*
X122054087Y-105020480D01*
X122145413Y-105073207D01*
X122247273Y-105100500D01*
X122352727Y-105100500D01*
X122454587Y-105073207D01*
X122545913Y-105020480D01*
X122620480Y-104945913D01*
X122673207Y-104854587D01*
X122700500Y-104752727D01*
X122700500Y-104647273D01*
X122673207Y-104545413D01*
X122620480Y-104454087D01*
X122590625Y-104424232D01*
X123354500Y-104424232D01*
X123354500Y-104575767D01*
X123393717Y-104722130D01*
X123393718Y-104722132D01*
X123393719Y-104722135D01*
X123469485Y-104853365D01*
X123576635Y-104960515D01*
X123707865Y-105036281D01*
X123854234Y-105075500D01*
X124005766Y-105075500D01*
X124152135Y-105036281D01*
X124283365Y-104960515D01*
X124390515Y-104853365D01*
X124466281Y-104722135D01*
X124505500Y-104575766D01*
X124505500Y-104424234D01*
X124466281Y-104277865D01*
X124390515Y-104146635D01*
X124283365Y-104039485D01*
X124283364Y-104039484D01*
X124152138Y-103963721D01*
X124152135Y-103963719D01*
X124152132Y-103963718D01*
X124152130Y-103963717D01*
X124005767Y-103924500D01*
X124005766Y-103924500D01*
X123854234Y-103924500D01*
X123854232Y-103924500D01*
X123707869Y-103963717D01*
X123707861Y-103963721D01*
X123576635Y-104039484D01*
X123469484Y-104146635D01*
X123393721Y-104277861D01*
X123393717Y-104277869D01*
X123354500Y-104424232D01*
X122590625Y-104424232D01*
X122545913Y-104379520D01*
X122545912Y-104379519D01*
X122454590Y-104326795D01*
X122454587Y-104326793D01*
X122454584Y-104326792D01*
X122454582Y-104326791D01*
X122352728Y-104299500D01*
X122352727Y-104299500D01*
X122247273Y-104299500D01*
X122247271Y-104299500D01*
X122145417Y-104326791D01*
X122145409Y-104326795D01*
X122054087Y-104379519D01*
X121979519Y-104454087D01*
X121926795Y-104545409D01*
X121926791Y-104545417D01*
X121899500Y-104647271D01*
X118706341Y-104647271D01*
X118725500Y-104575766D01*
X118725500Y-104424234D01*
X118686281Y-104277865D01*
X118610515Y-104146635D01*
X118503365Y-104039485D01*
X118503364Y-104039484D01*
X118372138Y-103963721D01*
X118372135Y-103963719D01*
X118372132Y-103963718D01*
X118372130Y-103963717D01*
X118225767Y-103924500D01*
X118225766Y-103924500D01*
X118074234Y-103924500D01*
X118074232Y-103924500D01*
X117927869Y-103963717D01*
X117927861Y-103963721D01*
X117796635Y-104039484D01*
X117689484Y-104146635D01*
X117613721Y-104277861D01*
X117613717Y-104277869D01*
X117574500Y-104424232D01*
X117322100Y-104424232D01*
X117322100Y-103370732D01*
X117322100Y-103370731D01*
X124757900Y-103370731D01*
X124757900Y-104629268D01*
X124798932Y-104782399D01*
X124798935Y-104782405D01*
X124840608Y-104854587D01*
X124878200Y-104919698D01*
X124990302Y-105031800D01*
X125127598Y-105111067D01*
X125280732Y-105152100D01*
X125439268Y-105152100D01*
X125592402Y-105111067D01*
X125729698Y-105031800D01*
X125841800Y-104919698D01*
X125921067Y-104782402D01*
X125962100Y-104629268D01*
X125962100Y-103370732D01*
X125921067Y-103217598D01*
X125841800Y-103080302D01*
X125729698Y-102968200D01*
X125729697Y-102968199D01*
X125592405Y-102888935D01*
X125592402Y-102888933D01*
X125592399Y-102888932D01*
X125439268Y-102847900D01*
X125280732Y-102847900D01*
X125127600Y-102888932D01*
X125127594Y-102888935D01*
X124990302Y-102968199D01*
X124878199Y-103080302D01*
X124798935Y-103217594D01*
X124798932Y-103217600D01*
X124757900Y-103370731D01*
X117322100Y-103370731D01*
X117281067Y-103217598D01*
X117201800Y-103080302D01*
X117089698Y-102968200D01*
X117089697Y-102968199D01*
X116952405Y-102888935D01*
X116952402Y-102888933D01*
X116952399Y-102888932D01*
X116799268Y-102847900D01*
X116640732Y-102847900D01*
X116487600Y-102888932D01*
X116487594Y-102888935D01*
X116350302Y-102968199D01*
X116238199Y-103080302D01*
X116158935Y-103217594D01*
X116158932Y-103217600D01*
X116117900Y-103370731D01*
X114360500Y-103370731D01*
X114360500Y-102277271D01*
X117429500Y-102277271D01*
X117429500Y-102382728D01*
X117456791Y-102484582D01*
X117456792Y-102484584D01*
X117456793Y-102484587D01*
X117509520Y-102575913D01*
X117584087Y-102650480D01*
X117675413Y-102703207D01*
X117777273Y-102730500D01*
X117882727Y-102730500D01*
X117984587Y-102703207D01*
X118075913Y-102650480D01*
X118150480Y-102575913D01*
X118188986Y-102509217D01*
X118219223Y-102486016D01*
X118257013Y-102490991D01*
X118275241Y-102509219D01*
X118313746Y-102575913D01*
X118319520Y-102585913D01*
X118394087Y-102660480D01*
X118485413Y-102713207D01*
X118587273Y-102740500D01*
X118692727Y-102740500D01*
X118794587Y-102713207D01*
X118885913Y-102660480D01*
X118960480Y-102585913D01*
X119013207Y-102494587D01*
X119040500Y-102392727D01*
X119040500Y-102287273D01*
X119034776Y-102265912D01*
X119032461Y-102257271D01*
X123029500Y-102257271D01*
X123029500Y-102362728D01*
X123056791Y-102464582D01*
X123056792Y-102464584D01*
X123056793Y-102464587D01*
X123109520Y-102555913D01*
X123184087Y-102630480D01*
X123275413Y-102683207D01*
X123377273Y-102710500D01*
X123482727Y-102710500D01*
X123584587Y-102683207D01*
X123675913Y-102630480D01*
X123750480Y-102555913D01*
X123796872Y-102475558D01*
X123827111Y-102452356D01*
X123864900Y-102457331D01*
X123883127Y-102475558D01*
X123929520Y-102555913D01*
X124004087Y-102630480D01*
X124095413Y-102683207D01*
X124197273Y-102710500D01*
X124302727Y-102710500D01*
X124404587Y-102683207D01*
X124495913Y-102630480D01*
X124570480Y-102555913D01*
X124623207Y-102464587D01*
X124650500Y-102362727D01*
X124650500Y-102257273D01*
X124623207Y-102155413D01*
X124570480Y-102064087D01*
X124495913Y-101989520D01*
X124495912Y-101989519D01*
X124457377Y-101967271D01*
X125249500Y-101967271D01*
X125249500Y-102072728D01*
X125276791Y-102174582D01*
X125276792Y-102174584D01*
X125276793Y-102174587D01*
X125283046Y-102185417D01*
X125324531Y-102257273D01*
X125329520Y-102265913D01*
X125404087Y-102340480D01*
X125495413Y-102393207D01*
X125597273Y-102420500D01*
X125702727Y-102420500D01*
X125804587Y-102393207D01*
X125895913Y-102340480D01*
X125970480Y-102265913D01*
X126023207Y-102174587D01*
X126050500Y-102072727D01*
X126050500Y-101967273D01*
X126023207Y-101865413D01*
X125970480Y-101774087D01*
X125895913Y-101699520D01*
X125895912Y-101699519D01*
X125804590Y-101646795D01*
X125804587Y-101646793D01*
X125804584Y-101646792D01*
X125804582Y-101646791D01*
X125702728Y-101619500D01*
X125702727Y-101619500D01*
X125597273Y-101619500D01*
X125597271Y-101619500D01*
X125495417Y-101646791D01*
X125495409Y-101646795D01*
X125404087Y-101699519D01*
X125329519Y-101774087D01*
X125276795Y-101865409D01*
X125276791Y-101865417D01*
X125249500Y-101967271D01*
X124457377Y-101967271D01*
X124439225Y-101956791D01*
X124404587Y-101936793D01*
X124404584Y-101936792D01*
X124404582Y-101936791D01*
X124302728Y-101909500D01*
X124302727Y-101909500D01*
X124197273Y-101909500D01*
X124197271Y-101909500D01*
X124095417Y-101936791D01*
X124095409Y-101936795D01*
X124004087Y-101989519D01*
X123929519Y-102064087D01*
X123883128Y-102144440D01*
X123852889Y-102167643D01*
X123815100Y-102162668D01*
X123796872Y-102144440D01*
X123750480Y-102064087D01*
X123675912Y-101989519D01*
X123619225Y-101956791D01*
X123584587Y-101936793D01*
X123584584Y-101936792D01*
X123584582Y-101936791D01*
X123482728Y-101909500D01*
X123482727Y-101909500D01*
X123377273Y-101909500D01*
X123377271Y-101909500D01*
X123275417Y-101936791D01*
X123275409Y-101936795D01*
X123184087Y-101989519D01*
X123109519Y-102064087D01*
X123056795Y-102155409D01*
X123056791Y-102155417D01*
X123029500Y-102257271D01*
X119032461Y-102257271D01*
X119013208Y-102185417D01*
X119013207Y-102185413D01*
X118960480Y-102094087D01*
X118885913Y-102019520D01*
X118885912Y-102019519D01*
X118795418Y-101967273D01*
X118794587Y-101966793D01*
X118794584Y-101966792D01*
X118794582Y-101966791D01*
X118692728Y-101939500D01*
X118692727Y-101939500D01*
X118587273Y-101939500D01*
X118587271Y-101939500D01*
X118485417Y-101966791D01*
X118485409Y-101966795D01*
X118394087Y-102019519D01*
X118319519Y-102094087D01*
X118281014Y-102160780D01*
X118250775Y-102183983D01*
X118212986Y-102179008D01*
X118194759Y-102160781D01*
X118150480Y-102084087D01*
X118075913Y-102009520D01*
X118075912Y-102009519D01*
X118001911Y-101966795D01*
X117984587Y-101956793D01*
X117984584Y-101956792D01*
X117984582Y-101956791D01*
X117882728Y-101929500D01*
X117882727Y-101929500D01*
X117777273Y-101929500D01*
X117777271Y-101929500D01*
X117675417Y-101956791D01*
X117675409Y-101956795D01*
X117584087Y-102009519D01*
X117509519Y-102084087D01*
X117456795Y-102175409D01*
X117456791Y-102175417D01*
X117429500Y-102277271D01*
X114360500Y-102277271D01*
X114360500Y-100777271D01*
X115169500Y-100777271D01*
X115169500Y-100882728D01*
X115196791Y-100984582D01*
X115196792Y-100984584D01*
X115196793Y-100984587D01*
X115249520Y-101075913D01*
X115324087Y-101150480D01*
X115415413Y-101203207D01*
X115517273Y-101230500D01*
X115622727Y-101230500D01*
X115724587Y-101203207D01*
X115815913Y-101150480D01*
X115890480Y-101075913D01*
X115943207Y-100984587D01*
X115970500Y-100882727D01*
X115970500Y-100777273D01*
X115943207Y-100675413D01*
X115890480Y-100584087D01*
X115815913Y-100509520D01*
X115815912Y-100509519D01*
X115740383Y-100465913D01*
X115724587Y-100456793D01*
X115724584Y-100456792D01*
X115724582Y-100456791D01*
X115622728Y-100429500D01*
X115622727Y-100429500D01*
X115517273Y-100429500D01*
X115517271Y-100429500D01*
X115415417Y-100456791D01*
X115415409Y-100456795D01*
X115324087Y-100509519D01*
X115249519Y-100584087D01*
X115196795Y-100675409D01*
X115196791Y-100675417D01*
X115169500Y-100777271D01*
X114360500Y-100777271D01*
X114360500Y-100277271D01*
X119299500Y-100277271D01*
X119299500Y-100382728D01*
X119326791Y-100484582D01*
X119326792Y-100484584D01*
X119326793Y-100484587D01*
X119379520Y-100575913D01*
X119454087Y-100650480D01*
X119545413Y-100703207D01*
X119647273Y-100730500D01*
X119752727Y-100730500D01*
X119854587Y-100703207D01*
X119945913Y-100650480D01*
X120020480Y-100575913D01*
X120073207Y-100484587D01*
X120100500Y-100382727D01*
X120100500Y-100277273D01*
X120073207Y-100175413D01*
X120020480Y-100084087D01*
X119945913Y-100009520D01*
X119945912Y-100009519D01*
X119854590Y-99956795D01*
X119854587Y-99956793D01*
X119854584Y-99956792D01*
X119854582Y-99956791D01*
X119752728Y-99929500D01*
X119752727Y-99929500D01*
X119647273Y-99929500D01*
X119647271Y-99929500D01*
X119545417Y-99956791D01*
X119545409Y-99956795D01*
X119454087Y-100009519D01*
X119379519Y-100084087D01*
X119326795Y-100175409D01*
X119326791Y-100175417D01*
X119299500Y-100277271D01*
X114360500Y-100277271D01*
X114360500Y-99777271D01*
X121329500Y-99777271D01*
X121329500Y-99882728D01*
X121356791Y-99984582D01*
X121356792Y-99984584D01*
X121356793Y-99984587D01*
X121371188Y-100009520D01*
X121403457Y-100065413D01*
X121409520Y-100075913D01*
X121484087Y-100150480D01*
X121575413Y-100203207D01*
X121677273Y-100230500D01*
X121782727Y-100230500D01*
X121884587Y-100203207D01*
X121975913Y-100150480D01*
X122050480Y-100075913D01*
X122103207Y-99984587D01*
X122130500Y-99882727D01*
X122130500Y-99777273D01*
X122103207Y-99675413D01*
X122050480Y-99584087D01*
X121975913Y-99509520D01*
X121975912Y-99509519D01*
X121884590Y-99456795D01*
X121884587Y-99456793D01*
X121884584Y-99456792D01*
X121884582Y-99456791D01*
X121782728Y-99429500D01*
X121782727Y-99429500D01*
X121677273Y-99429500D01*
X121677271Y-99429500D01*
X121575417Y-99456791D01*
X121575409Y-99456795D01*
X121484087Y-99509519D01*
X121409519Y-99584087D01*
X121356795Y-99675409D01*
X121356791Y-99675417D01*
X121329500Y-99777271D01*
X114360500Y-99777271D01*
X114360500Y-99327271D01*
X125789500Y-99327271D01*
X125789500Y-99432728D01*
X125816791Y-99534582D01*
X125816792Y-99534584D01*
X125816793Y-99534587D01*
X125869520Y-99625913D01*
X125944087Y-99700480D01*
X126035413Y-99753207D01*
X126035417Y-99753208D01*
X126077806Y-99764566D01*
X126108045Y-99787769D01*
X126113020Y-99825558D01*
X126089817Y-99855797D01*
X126014087Y-99899519D01*
X125939519Y-99974087D01*
X125886795Y-100065409D01*
X125886791Y-100065417D01*
X125859500Y-100167271D01*
X125859500Y-100272728D01*
X125886791Y-100374582D01*
X125886795Y-100374590D01*
X125934255Y-100456795D01*
X125939520Y-100465913D01*
X126014087Y-100540480D01*
X126105413Y-100593207D01*
X126207273Y-100620500D01*
X126312727Y-100620500D01*
X126414587Y-100593207D01*
X126505913Y-100540480D01*
X126580480Y-100465913D01*
X126633207Y-100374587D01*
X126660500Y-100272727D01*
X126660500Y-100167273D01*
X126633207Y-100065413D01*
X126580480Y-99974087D01*
X126505913Y-99899520D01*
X126505912Y-99899519D01*
X126414590Y-99846795D01*
X126414587Y-99846793D01*
X126414584Y-99846792D01*
X126372192Y-99835433D01*
X126341954Y-99812229D01*
X126336979Y-99774440D01*
X126360182Y-99744203D01*
X126435913Y-99700480D01*
X126510480Y-99625913D01*
X126563207Y-99534587D01*
X126590500Y-99432727D01*
X126590500Y-99327273D01*
X126563207Y-99225413D01*
X126510480Y-99134087D01*
X126435913Y-99059520D01*
X126435912Y-99059519D01*
X126344590Y-99006795D01*
X126344587Y-99006793D01*
X126344584Y-99006792D01*
X126344582Y-99006791D01*
X126242728Y-98979500D01*
X126242727Y-98979500D01*
X126137273Y-98979500D01*
X126137271Y-98979500D01*
X126035417Y-99006791D01*
X126035409Y-99006795D01*
X125944087Y-99059519D01*
X125869519Y-99134087D01*
X125816795Y-99225409D01*
X125816791Y-99225417D01*
X125789500Y-99327271D01*
X114360500Y-99327271D01*
X114360500Y-98247271D01*
X115179500Y-98247271D01*
X115179500Y-98352728D01*
X115206791Y-98454582D01*
X115206792Y-98454584D01*
X115206793Y-98454587D01*
X115259520Y-98545913D01*
X115334087Y-98620480D01*
X115425413Y-98673207D01*
X115527273Y-98700500D01*
X115632727Y-98700500D01*
X115734587Y-98673207D01*
X115825913Y-98620480D01*
X115900480Y-98545913D01*
X115953207Y-98454587D01*
X115980500Y-98352727D01*
X115980500Y-98247273D01*
X115953207Y-98145413D01*
X115900480Y-98054087D01*
X115825913Y-97979520D01*
X115825912Y-97979519D01*
X115770056Y-97947271D01*
X123599500Y-97947271D01*
X123599500Y-98052728D01*
X123626791Y-98154582D01*
X123626792Y-98154584D01*
X123626793Y-98154587D01*
X123679520Y-98245913D01*
X123754087Y-98320480D01*
X123845413Y-98373207D01*
X123947273Y-98400500D01*
X124052727Y-98400500D01*
X124154587Y-98373207D01*
X124245913Y-98320480D01*
X124289788Y-98276604D01*
X124325000Y-98262019D01*
X124360215Y-98276605D01*
X124404090Y-98320480D01*
X124495416Y-98373207D01*
X124597276Y-98400500D01*
X124702730Y-98400500D01*
X124804590Y-98373207D01*
X124895916Y-98320480D01*
X124970483Y-98245913D01*
X125023210Y-98154587D01*
X125050503Y-98052727D01*
X125050503Y-97947273D01*
X125023210Y-97845413D01*
X124970483Y-97754087D01*
X124895916Y-97679520D01*
X124895915Y-97679519D01*
X124804593Y-97626795D01*
X124804590Y-97626793D01*
X124804587Y-97626792D01*
X124804585Y-97626791D01*
X124702731Y-97599500D01*
X124702730Y-97599500D01*
X124597276Y-97599500D01*
X124597274Y-97599500D01*
X124495420Y-97626791D01*
X124495412Y-97626795D01*
X124404090Y-97679519D01*
X124360215Y-97723394D01*
X124325000Y-97737980D01*
X124289787Y-97723394D01*
X124245912Y-97679519D01*
X124154590Y-97626795D01*
X124154587Y-97626793D01*
X124154584Y-97626792D01*
X124154582Y-97626791D01*
X124052728Y-97599500D01*
X124052727Y-97599500D01*
X123947273Y-97599500D01*
X123947271Y-97599500D01*
X123845417Y-97626791D01*
X123845409Y-97626795D01*
X123754087Y-97679519D01*
X123679519Y-97754087D01*
X123626795Y-97845409D01*
X123626791Y-97845417D01*
X123599500Y-97947271D01*
X115770056Y-97947271D01*
X115734590Y-97926795D01*
X115734587Y-97926793D01*
X115734584Y-97926792D01*
X115734582Y-97926791D01*
X115632728Y-97899500D01*
X115632727Y-97899500D01*
X115527273Y-97899500D01*
X115527271Y-97899500D01*
X115425417Y-97926791D01*
X115425409Y-97926795D01*
X115334087Y-97979519D01*
X115259519Y-98054087D01*
X115206795Y-98145409D01*
X115206791Y-98145417D01*
X115179500Y-98247271D01*
X114360500Y-98247271D01*
X114360500Y-96547271D01*
X116639500Y-96547271D01*
X116639500Y-96652728D01*
X116666791Y-96754582D01*
X116666795Y-96754590D01*
X116714531Y-96837273D01*
X116719520Y-96845913D01*
X116794087Y-96920480D01*
X116885413Y-96973207D01*
X116987273Y-97000500D01*
X117092727Y-97000500D01*
X117194587Y-96973207D01*
X117285913Y-96920480D01*
X117360480Y-96845913D01*
X117365469Y-96837271D01*
X122689500Y-96837271D01*
X122689500Y-96942728D01*
X122716791Y-97044582D01*
X122716792Y-97044584D01*
X122716793Y-97044587D01*
X122769520Y-97135913D01*
X122844087Y-97210480D01*
X122935413Y-97263207D01*
X123037273Y-97290500D01*
X123142727Y-97290500D01*
X123244587Y-97263207D01*
X123335913Y-97210480D01*
X123410480Y-97135913D01*
X123463207Y-97044587D01*
X123490500Y-96942727D01*
X123490500Y-96837273D01*
X123463207Y-96735413D01*
X123410480Y-96644087D01*
X123335913Y-96569520D01*
X123335912Y-96569519D01*
X123244590Y-96516795D01*
X123244587Y-96516793D01*
X123244584Y-96516792D01*
X123244582Y-96516791D01*
X123142728Y-96489500D01*
X123142727Y-96489500D01*
X123037273Y-96489500D01*
X123037271Y-96489500D01*
X122935417Y-96516791D01*
X122935409Y-96516795D01*
X122844087Y-96569519D01*
X122769519Y-96644087D01*
X122716795Y-96735409D01*
X122716791Y-96735417D01*
X122689500Y-96837271D01*
X117365469Y-96837271D01*
X117413207Y-96754587D01*
X117440500Y-96652727D01*
X117440500Y-96547273D01*
X117413207Y-96445413D01*
X117360480Y-96354087D01*
X117285913Y-96279520D01*
X117285912Y-96279519D01*
X117194590Y-96226795D01*
X117194587Y-96226793D01*
X117194584Y-96226792D01*
X117194582Y-96226791D01*
X117092728Y-96199500D01*
X117092727Y-96199500D01*
X116987273Y-96199500D01*
X116987271Y-96199500D01*
X116885417Y-96226791D01*
X116885409Y-96226795D01*
X116794087Y-96279519D01*
X116719519Y-96354087D01*
X116666795Y-96445409D01*
X116666791Y-96445417D01*
X116639500Y-96547271D01*
X114360500Y-96547271D01*
X114360500Y-95277271D01*
X115069500Y-95277271D01*
X115069500Y-95382728D01*
X115096791Y-95484582D01*
X115096792Y-95484584D01*
X115096793Y-95484587D01*
X115149520Y-95575913D01*
X115224087Y-95650480D01*
X115315413Y-95703207D01*
X115417273Y-95730500D01*
X115522727Y-95730500D01*
X115624587Y-95703207D01*
X115715913Y-95650480D01*
X115790480Y-95575913D01*
X115843207Y-95484587D01*
X115870500Y-95382727D01*
X115870500Y-95277273D01*
X115843207Y-95175413D01*
X115790480Y-95084087D01*
X115715913Y-95009520D01*
X115715912Y-95009519D01*
X115624590Y-94956795D01*
X115624587Y-94956793D01*
X115624584Y-94956792D01*
X115624582Y-94956791D01*
X115522728Y-94929500D01*
X115522727Y-94929500D01*
X115417273Y-94929500D01*
X115417271Y-94929500D01*
X115315417Y-94956791D01*
X115315409Y-94956795D01*
X115224087Y-95009519D01*
X115149519Y-95084087D01*
X115096795Y-95175409D01*
X115096791Y-95175417D01*
X115069500Y-95277271D01*
X114360500Y-95277271D01*
X114360500Y-94577271D01*
X120789500Y-94577271D01*
X120789500Y-94682728D01*
X120816791Y-94784582D01*
X120816792Y-94784584D01*
X120816793Y-94784587D01*
X120869520Y-94875913D01*
X120944087Y-94950480D01*
X121035413Y-95003207D01*
X121137273Y-95030500D01*
X121242727Y-95030500D01*
X121344587Y-95003207D01*
X121435913Y-94950480D01*
X121510480Y-94875913D01*
X121563207Y-94784587D01*
X121590500Y-94682727D01*
X121590500Y-94577273D01*
X121563207Y-94475413D01*
X121510480Y-94384087D01*
X121435913Y-94309520D01*
X121435912Y-94309519D01*
X121344590Y-94256795D01*
X121344587Y-94256793D01*
X121344584Y-94256792D01*
X121344582Y-94256791D01*
X121242728Y-94229500D01*
X121242727Y-94229500D01*
X121137273Y-94229500D01*
X121137271Y-94229500D01*
X121035417Y-94256791D01*
X121035409Y-94256795D01*
X120944087Y-94309519D01*
X120869519Y-94384087D01*
X120816795Y-94475409D01*
X120816791Y-94475417D01*
X120789500Y-94577271D01*
X114360500Y-94577271D01*
X114360500Y-93673459D01*
X123897900Y-93673459D01*
X123897900Y-93826540D01*
X123927761Y-93976662D01*
X123927763Y-93976668D01*
X123927764Y-93976672D01*
X123927766Y-93976676D01*
X123986341Y-94118091D01*
X123986342Y-94118093D01*
X124071383Y-94245368D01*
X124179631Y-94353616D01*
X124225235Y-94384087D01*
X124306905Y-94438657D01*
X124448328Y-94497236D01*
X124448335Y-94497237D01*
X124448337Y-94497238D01*
X124499705Y-94507455D01*
X124598462Y-94527100D01*
X124598467Y-94527100D01*
X124751533Y-94527100D01*
X124751538Y-94527100D01*
X124901672Y-94497236D01*
X125043095Y-94438657D01*
X125170372Y-94353613D01*
X125278613Y-94245372D01*
X125363657Y-94118095D01*
X125422236Y-93976672D01*
X125452100Y-93826538D01*
X125452100Y-93673462D01*
X125422236Y-93523328D01*
X125363657Y-93381905D01*
X125329501Y-93330787D01*
X125278616Y-93254631D01*
X125170368Y-93146383D01*
X125068825Y-93078535D01*
X125043095Y-93061343D01*
X125043093Y-93061342D01*
X125043091Y-93061341D01*
X124972383Y-93032053D01*
X124901672Y-93002764D01*
X124901668Y-93002763D01*
X124901662Y-93002761D01*
X124751540Y-92972900D01*
X124751538Y-92972900D01*
X124598462Y-92972900D01*
X124598459Y-92972900D01*
X124448337Y-93002761D01*
X124448329Y-93002763D01*
X124448328Y-93002764D01*
X124448324Y-93002765D01*
X124448323Y-93002766D01*
X124306908Y-93061341D01*
X124306906Y-93061342D01*
X124179631Y-93146383D01*
X124179629Y-93146386D01*
X124071386Y-93254629D01*
X124071383Y-93254631D01*
X123986342Y-93381906D01*
X123986341Y-93381908D01*
X123927766Y-93523323D01*
X123927761Y-93523337D01*
X123897900Y-93673459D01*
X114360500Y-93673459D01*
X114360500Y-91767271D01*
X118589500Y-91767271D01*
X118589500Y-91872728D01*
X118616791Y-91974582D01*
X118616792Y-91974584D01*
X118616793Y-91974587D01*
X118669520Y-92065913D01*
X118744087Y-92140480D01*
X118835413Y-92193207D01*
X118937273Y-92220500D01*
X119042727Y-92220500D01*
X119144587Y-92193207D01*
X119235913Y-92140480D01*
X119310480Y-92065913D01*
X119363207Y-91974587D01*
X119390500Y-91872727D01*
X119390500Y-91767273D01*
X119365363Y-91673459D01*
X123897900Y-91673459D01*
X123897900Y-91826540D01*
X123927761Y-91976662D01*
X123927763Y-91976668D01*
X123927764Y-91976672D01*
X123927766Y-91976676D01*
X123986341Y-92118091D01*
X123986342Y-92118093D01*
X124071383Y-92245368D01*
X124179631Y-92353616D01*
X124255787Y-92404501D01*
X124306905Y-92438657D01*
X124448328Y-92497236D01*
X124448335Y-92497237D01*
X124448337Y-92497238D01*
X124499705Y-92507455D01*
X124598462Y-92527100D01*
X124598467Y-92527100D01*
X124751533Y-92527100D01*
X124751538Y-92527100D01*
X124901672Y-92497236D01*
X125043095Y-92438657D01*
X125170372Y-92353613D01*
X125278613Y-92245372D01*
X125363657Y-92118095D01*
X125422236Y-91976672D01*
X125452100Y-91826538D01*
X125452100Y-91673462D01*
X125422236Y-91523328D01*
X125363657Y-91381905D01*
X125329501Y-91330787D01*
X125278616Y-91254631D01*
X125170368Y-91146383D01*
X125068825Y-91078535D01*
X125043095Y-91061343D01*
X125043093Y-91061342D01*
X125043091Y-91061341D01*
X124972383Y-91032053D01*
X124901672Y-91002764D01*
X124901668Y-91002763D01*
X124901662Y-91002761D01*
X124751540Y-90972900D01*
X124751538Y-90972900D01*
X124598462Y-90972900D01*
X124598459Y-90972900D01*
X124448337Y-91002761D01*
X124448329Y-91002763D01*
X124448328Y-91002764D01*
X124448324Y-91002765D01*
X124448323Y-91002766D01*
X124306908Y-91061341D01*
X124306906Y-91061342D01*
X124179631Y-91146383D01*
X124179629Y-91146386D01*
X124071386Y-91254629D01*
X124071383Y-91254631D01*
X123986342Y-91381906D01*
X123986341Y-91381908D01*
X123927766Y-91523323D01*
X123927761Y-91523337D01*
X123897900Y-91673459D01*
X119365363Y-91673459D01*
X119363207Y-91665413D01*
X119310480Y-91574087D01*
X119235913Y-91499520D01*
X119235912Y-91499519D01*
X119144590Y-91446795D01*
X119144587Y-91446793D01*
X119144584Y-91446792D01*
X119144582Y-91446791D01*
X119042728Y-91419500D01*
X119042727Y-91419500D01*
X118937273Y-91419500D01*
X118937271Y-91419500D01*
X118835417Y-91446791D01*
X118835409Y-91446795D01*
X118744087Y-91499519D01*
X118669519Y-91574087D01*
X118616795Y-91665409D01*
X118616791Y-91665417D01*
X118589500Y-91767271D01*
X114360500Y-91767271D01*
X114360500Y-90287271D01*
X117199500Y-90287271D01*
X117199500Y-90392728D01*
X117226791Y-90494582D01*
X117226792Y-90494584D01*
X117226793Y-90494587D01*
X117228324Y-90497238D01*
X117262199Y-90555913D01*
X117279520Y-90585913D01*
X117354087Y-90660480D01*
X117445413Y-90713207D01*
X117547273Y-90740500D01*
X117652727Y-90740500D01*
X117754587Y-90713207D01*
X117845913Y-90660480D01*
X117920480Y-90585913D01*
X117973207Y-90494587D01*
X118000500Y-90392727D01*
X118000500Y-90287273D01*
X117992461Y-90257271D01*
X119449500Y-90257271D01*
X119449500Y-90362728D01*
X119476791Y-90464582D01*
X119476792Y-90464584D01*
X119476793Y-90464587D01*
X119529520Y-90555913D01*
X119604087Y-90630480D01*
X119695413Y-90683207D01*
X119797273Y-90710500D01*
X119902727Y-90710500D01*
X120004587Y-90683207D01*
X120095913Y-90630480D01*
X120170480Y-90555913D01*
X120223207Y-90464587D01*
X120250500Y-90362727D01*
X120250500Y-90257273D01*
X120223207Y-90155413D01*
X120170480Y-90064087D01*
X120095913Y-89989520D01*
X120095912Y-89989519D01*
X120015421Y-89943048D01*
X120004587Y-89936793D01*
X120004584Y-89936792D01*
X120004582Y-89936791D01*
X119902728Y-89909500D01*
X119902727Y-89909500D01*
X119797273Y-89909500D01*
X119797271Y-89909500D01*
X119695417Y-89936791D01*
X119695409Y-89936795D01*
X119604087Y-89989519D01*
X119529519Y-90064087D01*
X119476795Y-90155409D01*
X119476791Y-90155417D01*
X119449500Y-90257271D01*
X117992461Y-90257271D01*
X117973207Y-90185413D01*
X117920480Y-90094087D01*
X117845913Y-90019520D01*
X117845912Y-90019519D01*
X117771698Y-89976672D01*
X117754587Y-89966793D01*
X117754584Y-89966792D01*
X117754582Y-89966791D01*
X117652728Y-89939500D01*
X117652727Y-89939500D01*
X117547273Y-89939500D01*
X117547271Y-89939500D01*
X117445417Y-89966791D01*
X117445409Y-89966795D01*
X117354087Y-90019519D01*
X117279519Y-90094087D01*
X117226795Y-90185409D01*
X117226791Y-90185417D01*
X117199500Y-90287271D01*
X114360500Y-90287271D01*
X114360500Y-89673459D01*
X123897900Y-89673459D01*
X123897900Y-89826540D01*
X123927761Y-89976662D01*
X123927763Y-89976668D01*
X123927764Y-89976672D01*
X123933086Y-89989520D01*
X123986341Y-90118091D01*
X123986342Y-90118093D01*
X124071383Y-90245368D01*
X124179631Y-90353616D01*
X124255787Y-90404501D01*
X124306905Y-90438657D01*
X124448328Y-90497236D01*
X124448335Y-90497237D01*
X124448337Y-90497238D01*
X124499705Y-90507455D01*
X124598462Y-90527100D01*
X124598467Y-90527100D01*
X124751533Y-90527100D01*
X124751538Y-90527100D01*
X124901672Y-90497236D01*
X125043095Y-90438657D01*
X125145329Y-90370345D01*
X125170368Y-90353616D01*
X125170371Y-90353614D01*
X125278614Y-90245371D01*
X125278616Y-90245368D01*
X125295345Y-90220329D01*
X125363657Y-90118095D01*
X125422236Y-89976672D01*
X125452100Y-89826538D01*
X125452100Y-89673462D01*
X125422236Y-89523328D01*
X125363657Y-89381905D01*
X125329501Y-89330787D01*
X125278616Y-89254631D01*
X125170368Y-89146383D01*
X125068825Y-89078535D01*
X125043095Y-89061343D01*
X125043093Y-89061342D01*
X125043091Y-89061341D01*
X124972383Y-89032053D01*
X124901672Y-89002764D01*
X124901668Y-89002763D01*
X124901662Y-89002761D01*
X124751540Y-88972900D01*
X124751538Y-88972900D01*
X124598462Y-88972900D01*
X124598459Y-88972900D01*
X124448337Y-89002761D01*
X124448329Y-89002763D01*
X124448328Y-89002764D01*
X124448324Y-89002765D01*
X124448323Y-89002766D01*
X124306908Y-89061341D01*
X124306906Y-89061342D01*
X124179631Y-89146383D01*
X124179629Y-89146386D01*
X124071386Y-89254629D01*
X124071383Y-89254631D01*
X123986342Y-89381906D01*
X123986341Y-89381908D01*
X123927766Y-89523323D01*
X123927761Y-89523337D01*
X123897900Y-89673459D01*
X114360500Y-89673459D01*
X114360500Y-88197271D01*
X117189500Y-88197271D01*
X117189500Y-88302728D01*
X117216791Y-88404582D01*
X117216795Y-88404590D01*
X117264267Y-88486816D01*
X117269520Y-88495913D01*
X117344087Y-88570480D01*
X117435413Y-88623207D01*
X117537273Y-88650500D01*
X117642727Y-88650500D01*
X117744587Y-88623207D01*
X117835913Y-88570480D01*
X117910480Y-88495913D01*
X117963207Y-88404587D01*
X117990500Y-88302727D01*
X117990500Y-88197273D01*
X117990499Y-88197271D01*
X119409500Y-88197271D01*
X119409500Y-88302728D01*
X119436791Y-88404582D01*
X119436795Y-88404590D01*
X119484267Y-88486816D01*
X119489520Y-88495913D01*
X119564087Y-88570480D01*
X119655413Y-88623207D01*
X119757273Y-88650500D01*
X119862727Y-88650500D01*
X119964587Y-88623207D01*
X120055913Y-88570480D01*
X120130480Y-88495913D01*
X120183207Y-88404587D01*
X120210500Y-88302727D01*
X120210500Y-88197273D01*
X120183207Y-88095413D01*
X120130480Y-88004087D01*
X120055913Y-87929520D01*
X120055912Y-87929519D01*
X120000022Y-87897251D01*
X119964587Y-87876793D01*
X119964584Y-87876792D01*
X119964582Y-87876791D01*
X119862728Y-87849500D01*
X119862727Y-87849500D01*
X119757273Y-87849500D01*
X119757271Y-87849500D01*
X119655417Y-87876791D01*
X119655409Y-87876795D01*
X119564087Y-87929519D01*
X119489519Y-88004087D01*
X119436795Y-88095409D01*
X119436791Y-88095417D01*
X119409500Y-88197271D01*
X117990499Y-88197271D01*
X117963207Y-88095413D01*
X117910480Y-88004087D01*
X117835913Y-87929520D01*
X117835912Y-87929519D01*
X117780022Y-87897251D01*
X117744587Y-87876793D01*
X117744584Y-87876792D01*
X117744582Y-87876791D01*
X117642728Y-87849500D01*
X117642727Y-87849500D01*
X117537273Y-87849500D01*
X117537271Y-87849500D01*
X117435417Y-87876791D01*
X117435409Y-87876795D01*
X117344087Y-87929519D01*
X117269519Y-88004087D01*
X117216795Y-88095409D01*
X117216791Y-88095417D01*
X117189500Y-88197271D01*
X114360500Y-88197271D01*
X114360500Y-87497271D01*
X116129500Y-87497271D01*
X116129500Y-87602728D01*
X116156791Y-87704582D01*
X116156792Y-87704584D01*
X116156793Y-87704587D01*
X116209520Y-87795913D01*
X116284087Y-87870480D01*
X116375413Y-87923207D01*
X116477273Y-87950500D01*
X116582727Y-87950500D01*
X116684587Y-87923207D01*
X116775913Y-87870480D01*
X116850480Y-87795913D01*
X116903207Y-87704587D01*
X116912875Y-87668505D01*
X123847600Y-87668505D01*
X123847600Y-87831494D01*
X123879394Y-87991334D01*
X123879399Y-87991348D01*
X123938181Y-88133263D01*
X123938181Y-88133264D01*
X124275000Y-87796445D01*
X124275000Y-87802661D01*
X124302259Y-87904394D01*
X124354920Y-87995606D01*
X124429394Y-88070080D01*
X124520606Y-88122741D01*
X124622339Y-88150000D01*
X124628553Y-88150000D01*
X124291734Y-88486817D01*
X124433655Y-88545602D01*
X124433665Y-88545605D01*
X124593505Y-88577399D01*
X124593513Y-88577400D01*
X124756487Y-88577400D01*
X124756494Y-88577399D01*
X124916341Y-88545603D01*
X125058263Y-88486816D01*
X124721447Y-88150000D01*
X124727661Y-88150000D01*
X124829394Y-88122741D01*
X124920606Y-88070080D01*
X124995080Y-87995606D01*
X125047741Y-87904394D01*
X125075000Y-87802661D01*
X125075000Y-87796447D01*
X125411816Y-88133263D01*
X125470603Y-87991341D01*
X125502399Y-87831494D01*
X125502400Y-87831487D01*
X125502400Y-87668512D01*
X125502399Y-87668505D01*
X125470605Y-87508665D01*
X125470602Y-87508655D01*
X125411817Y-87366734D01*
X125075000Y-87703551D01*
X125075000Y-87697339D01*
X125047741Y-87595606D01*
X124995080Y-87504394D01*
X124920606Y-87429920D01*
X124829394Y-87377259D01*
X124727661Y-87350000D01*
X124721445Y-87350000D01*
X125058264Y-87013181D01*
X124916348Y-86954399D01*
X124916334Y-86954394D01*
X124756494Y-86922600D01*
X124593505Y-86922600D01*
X124433665Y-86954394D01*
X124433651Y-86954399D01*
X124291735Y-87013181D01*
X124291734Y-87013181D01*
X124628553Y-87350000D01*
X124622339Y-87350000D01*
X124520606Y-87377259D01*
X124429394Y-87429920D01*
X124354920Y-87504394D01*
X124302259Y-87595606D01*
X124275000Y-87697339D01*
X124275000Y-87703553D01*
X123938181Y-87366734D01*
X123938181Y-87366735D01*
X123879399Y-87508651D01*
X123879394Y-87508665D01*
X123847600Y-87668505D01*
X116912875Y-87668505D01*
X116930500Y-87602727D01*
X116930500Y-87497273D01*
X116903207Y-87395413D01*
X116850480Y-87304087D01*
X116775913Y-87229520D01*
X116775912Y-87229519D01*
X116684590Y-87176795D01*
X116684587Y-87176793D01*
X116684584Y-87176792D01*
X116684582Y-87176791D01*
X116582728Y-87149500D01*
X116582727Y-87149500D01*
X116477273Y-87149500D01*
X116477271Y-87149500D01*
X116375417Y-87176791D01*
X116375409Y-87176795D01*
X116284087Y-87229519D01*
X116209519Y-87304087D01*
X116156795Y-87395409D01*
X116156791Y-87395417D01*
X116129500Y-87497271D01*
X114360500Y-87497271D01*
X114360500Y-86757271D01*
X117669500Y-86757271D01*
X117669500Y-86862728D01*
X117696791Y-86964582D01*
X117696792Y-86964584D01*
X117696793Y-86964587D01*
X117749520Y-87055913D01*
X117824087Y-87130480D01*
X117915413Y-87183207D01*
X118017273Y-87210500D01*
X118122727Y-87210500D01*
X118224587Y-87183207D01*
X118315913Y-87130480D01*
X118390480Y-87055913D01*
X118421165Y-87002766D01*
X118438407Y-86972900D01*
X118443207Y-86964587D01*
X118470500Y-86862727D01*
X118470500Y-86757273D01*
X118443207Y-86655413D01*
X118390480Y-86564087D01*
X118315913Y-86489520D01*
X118315912Y-86489519D01*
X118227817Y-86438658D01*
X118224587Y-86436793D01*
X118224584Y-86436792D01*
X118224582Y-86436791D01*
X118122728Y-86409500D01*
X118122727Y-86409500D01*
X118017273Y-86409500D01*
X118017271Y-86409500D01*
X117915417Y-86436791D01*
X117915409Y-86436795D01*
X117824087Y-86489519D01*
X117749519Y-86564087D01*
X117696795Y-86655409D01*
X117696791Y-86655417D01*
X117669500Y-86757271D01*
X114360500Y-86757271D01*
X114360500Y-85673459D01*
X123897900Y-85673459D01*
X123897900Y-85826540D01*
X123927761Y-85976662D01*
X123927763Y-85976668D01*
X123927764Y-85976672D01*
X123927766Y-85976676D01*
X123986341Y-86118091D01*
X123986342Y-86118093D01*
X124071383Y-86245368D01*
X124179631Y-86353616D01*
X124255787Y-86404501D01*
X124306905Y-86438657D01*
X124448328Y-86497236D01*
X124448335Y-86497237D01*
X124448337Y-86497238D01*
X124499705Y-86507455D01*
X124598462Y-86527100D01*
X124598467Y-86527100D01*
X124751533Y-86527100D01*
X124751538Y-86527100D01*
X124901672Y-86497236D01*
X125043095Y-86438657D01*
X125170372Y-86353613D01*
X125278613Y-86245372D01*
X125363657Y-86118095D01*
X125422236Y-85976672D01*
X125452100Y-85826538D01*
X125452100Y-85673462D01*
X125422236Y-85523328D01*
X125363657Y-85381905D01*
X125317755Y-85313208D01*
X125278616Y-85254631D01*
X125170368Y-85146383D01*
X125068825Y-85078535D01*
X125043095Y-85061343D01*
X125043093Y-85061342D01*
X125043091Y-85061341D01*
X124972383Y-85032053D01*
X124901672Y-85002764D01*
X124901668Y-85002763D01*
X124901662Y-85002761D01*
X124751540Y-84972900D01*
X124751538Y-84972900D01*
X124598462Y-84972900D01*
X124598459Y-84972900D01*
X124448337Y-85002761D01*
X124448329Y-85002763D01*
X124448328Y-85002764D01*
X124448324Y-85002765D01*
X124448323Y-85002766D01*
X124306908Y-85061341D01*
X124306906Y-85061342D01*
X124179631Y-85146383D01*
X124179629Y-85146386D01*
X124071386Y-85254629D01*
X124071383Y-85254631D01*
X123986342Y-85381906D01*
X123986341Y-85381908D01*
X123927766Y-85523323D01*
X123927761Y-85523337D01*
X123897900Y-85673459D01*
X114360500Y-85673459D01*
X114360500Y-84887271D01*
X116779500Y-84887271D01*
X116779500Y-84992728D01*
X116806791Y-85094582D01*
X116806792Y-85094584D01*
X116806793Y-85094587D01*
X116859520Y-85185913D01*
X116934087Y-85260480D01*
X117025413Y-85313207D01*
X117127273Y-85340500D01*
X117232727Y-85340500D01*
X117334587Y-85313207D01*
X117425913Y-85260480D01*
X117500480Y-85185913D01*
X117553207Y-85094587D01*
X117580500Y-84992727D01*
X117580500Y-84897271D01*
X117929500Y-84897271D01*
X117929500Y-85002728D01*
X117956791Y-85104582D01*
X117956795Y-85104590D01*
X118003746Y-85185913D01*
X118009520Y-85195913D01*
X118084087Y-85270480D01*
X118175413Y-85323207D01*
X118277273Y-85350500D01*
X118382727Y-85350500D01*
X118484587Y-85323207D01*
X118575913Y-85270480D01*
X118650480Y-85195913D01*
X118703207Y-85104587D01*
X118730500Y-85002727D01*
X118730500Y-84947271D01*
X119599500Y-84947271D01*
X119599500Y-85052728D01*
X119626791Y-85154582D01*
X119626795Y-85154590D01*
X119650652Y-85195913D01*
X119679520Y-85245913D01*
X119754087Y-85320480D01*
X119845413Y-85373207D01*
X119947273Y-85400500D01*
X120052727Y-85400500D01*
X120154587Y-85373207D01*
X120245913Y-85320480D01*
X120320480Y-85245913D01*
X120373207Y-85154587D01*
X120400500Y-85052727D01*
X120400500Y-84947273D01*
X120373207Y-84845413D01*
X120320480Y-84754087D01*
X120245913Y-84679520D01*
X120245912Y-84679519D01*
X120159310Y-84629520D01*
X120154587Y-84626793D01*
X120154584Y-84626792D01*
X120154582Y-84626791D01*
X120052728Y-84599500D01*
X120052727Y-84599500D01*
X119947273Y-84599500D01*
X119947271Y-84599500D01*
X119845417Y-84626791D01*
X119845409Y-84626795D01*
X119754087Y-84679519D01*
X119679519Y-84754087D01*
X119626795Y-84845409D01*
X119626791Y-84845417D01*
X119599500Y-84947271D01*
X118730500Y-84947271D01*
X118730500Y-84897273D01*
X118703207Y-84795413D01*
X118650480Y-84704087D01*
X118575913Y-84629520D01*
X118575912Y-84629519D01*
X118484590Y-84576795D01*
X118484587Y-84576793D01*
X118484584Y-84576792D01*
X118484582Y-84576791D01*
X118382728Y-84549500D01*
X118382727Y-84549500D01*
X118277273Y-84549500D01*
X118277271Y-84549500D01*
X118175417Y-84576791D01*
X118175409Y-84576795D01*
X118084087Y-84629519D01*
X118009519Y-84704087D01*
X117956795Y-84795409D01*
X117956791Y-84795417D01*
X117929500Y-84897271D01*
X117580500Y-84897271D01*
X117580500Y-84887273D01*
X117553207Y-84785413D01*
X117500480Y-84694087D01*
X117425913Y-84619520D01*
X117425912Y-84619519D01*
X117351911Y-84576795D01*
X117334587Y-84566793D01*
X117334584Y-84566792D01*
X117334582Y-84566791D01*
X117232728Y-84539500D01*
X117232727Y-84539500D01*
X117127273Y-84539500D01*
X117127271Y-84539500D01*
X117025417Y-84566791D01*
X117025409Y-84566795D01*
X116934087Y-84619519D01*
X116859519Y-84694087D01*
X116806795Y-84785409D01*
X116806791Y-84785417D01*
X116779500Y-84887271D01*
X114360500Y-84887271D01*
X114360500Y-83417271D01*
X115219500Y-83417271D01*
X115219500Y-83522728D01*
X115246791Y-83624582D01*
X115246792Y-83624584D01*
X115246793Y-83624587D01*
X115266724Y-83659109D01*
X115282983Y-83687271D01*
X115299520Y-83715913D01*
X115374087Y-83790480D01*
X115465413Y-83843207D01*
X115567273Y-83870500D01*
X115672727Y-83870500D01*
X115774587Y-83843207D01*
X115865913Y-83790480D01*
X115940480Y-83715913D01*
X115957016Y-83687271D01*
X121099500Y-83687271D01*
X121099500Y-83792728D01*
X121126791Y-83894582D01*
X121126792Y-83894584D01*
X121126793Y-83894587D01*
X121147251Y-83930022D01*
X121174184Y-83976672D01*
X121179520Y-83985913D01*
X121254087Y-84060480D01*
X121345413Y-84113207D01*
X121447273Y-84140500D01*
X121552727Y-84140500D01*
X121654587Y-84113207D01*
X121745913Y-84060480D01*
X121820480Y-83985913D01*
X121873207Y-83894587D01*
X121900500Y-83792727D01*
X121900500Y-83687273D01*
X121900499Y-83687269D01*
X121900399Y-83686894D01*
X121897820Y-83677271D01*
X122299500Y-83677271D01*
X122299500Y-83782728D01*
X122326791Y-83884582D01*
X122326792Y-83884584D01*
X122326793Y-83884587D01*
X122379520Y-83975913D01*
X122454087Y-84050480D01*
X122545413Y-84103207D01*
X122647273Y-84130500D01*
X122752727Y-84130500D01*
X122854587Y-84103207D01*
X122945913Y-84050480D01*
X123020480Y-83975913D01*
X123073207Y-83884587D01*
X123100500Y-83782727D01*
X123100500Y-83677273D01*
X123099478Y-83673459D01*
X123897900Y-83673459D01*
X123897900Y-83826540D01*
X123927761Y-83976662D01*
X123927763Y-83976668D01*
X123927764Y-83976672D01*
X123931592Y-83985913D01*
X123986341Y-84118091D01*
X123986342Y-84118093D01*
X124071383Y-84245368D01*
X124179631Y-84353616D01*
X124255787Y-84404501D01*
X124306905Y-84438657D01*
X124448328Y-84497236D01*
X124448335Y-84497237D01*
X124448337Y-84497238D01*
X124499705Y-84507455D01*
X124598462Y-84527100D01*
X124598467Y-84527100D01*
X124751533Y-84527100D01*
X124751538Y-84527100D01*
X124901672Y-84497236D01*
X125043095Y-84438657D01*
X125170372Y-84353613D01*
X125278613Y-84245372D01*
X125363657Y-84118095D01*
X125422236Y-83976672D01*
X125452100Y-83826538D01*
X125452100Y-83673462D01*
X125422236Y-83523328D01*
X125363657Y-83381905D01*
X125319231Y-83315417D01*
X125278616Y-83254631D01*
X125170368Y-83146383D01*
X125055303Y-83069500D01*
X125043095Y-83061343D01*
X125043093Y-83061342D01*
X125043091Y-83061341D01*
X124972383Y-83032053D01*
X124901672Y-83002764D01*
X124901668Y-83002763D01*
X124901662Y-83002761D01*
X124751540Y-82972900D01*
X124751538Y-82972900D01*
X124598462Y-82972900D01*
X124598459Y-82972900D01*
X124448337Y-83002761D01*
X124448329Y-83002763D01*
X124448328Y-83002764D01*
X124448324Y-83002765D01*
X124448323Y-83002766D01*
X124306908Y-83061341D01*
X124306906Y-83061342D01*
X124179631Y-83146383D01*
X124179629Y-83146386D01*
X124071386Y-83254629D01*
X124071383Y-83254631D01*
X123986342Y-83381906D01*
X123986341Y-83381908D01*
X123927766Y-83523323D01*
X123927761Y-83523337D01*
X123897900Y-83673459D01*
X123099478Y-83673459D01*
X123073207Y-83575413D01*
X123020480Y-83484087D01*
X122945913Y-83409520D01*
X122945912Y-83409519D01*
X122871911Y-83366795D01*
X122854587Y-83356793D01*
X122854584Y-83356792D01*
X122854582Y-83356791D01*
X122752728Y-83329500D01*
X122752727Y-83329500D01*
X122647273Y-83329500D01*
X122647271Y-83329500D01*
X122545417Y-83356791D01*
X122545409Y-83356795D01*
X122454087Y-83409519D01*
X122379519Y-83484087D01*
X122326795Y-83575409D01*
X122326791Y-83575417D01*
X122299500Y-83677271D01*
X121897820Y-83677271D01*
X121873208Y-83585417D01*
X121873207Y-83585413D01*
X121820480Y-83494087D01*
X121745913Y-83419520D01*
X121745912Y-83419519D01*
X121680767Y-83381908D01*
X121654587Y-83366793D01*
X121654584Y-83366792D01*
X121654582Y-83366791D01*
X121552728Y-83339500D01*
X121552727Y-83339500D01*
X121447273Y-83339500D01*
X121447271Y-83339500D01*
X121345417Y-83366791D01*
X121345409Y-83366795D01*
X121254087Y-83419519D01*
X121179519Y-83494087D01*
X121126795Y-83585409D01*
X121126791Y-83585417D01*
X121099500Y-83687271D01*
X115957016Y-83687271D01*
X115993207Y-83624587D01*
X116020500Y-83522727D01*
X116020500Y-83417273D01*
X115993207Y-83315413D01*
X115940480Y-83224087D01*
X115865913Y-83149520D01*
X115865912Y-83149519D01*
X115774590Y-83096795D01*
X115774587Y-83096793D01*
X115774584Y-83096792D01*
X115774582Y-83096791D01*
X115672728Y-83069500D01*
X115672727Y-83069500D01*
X115567273Y-83069500D01*
X115567271Y-83069500D01*
X115465417Y-83096791D01*
X115465409Y-83096795D01*
X115374087Y-83149519D01*
X115299519Y-83224087D01*
X115246795Y-83315409D01*
X115246791Y-83315417D01*
X115219500Y-83417271D01*
X114360500Y-83417271D01*
X114360500Y-82097271D01*
X114769500Y-82097271D01*
X114769500Y-82202728D01*
X114796791Y-82304582D01*
X114796795Y-82304590D01*
X114832199Y-82365913D01*
X114849520Y-82395913D01*
X114924087Y-82470480D01*
X115015413Y-82523207D01*
X115117273Y-82550500D01*
X115222727Y-82550500D01*
X115324587Y-82523207D01*
X115415913Y-82470480D01*
X115490480Y-82395913D01*
X115543207Y-82304587D01*
X115570500Y-82202727D01*
X115570500Y-82097273D01*
X115543207Y-81995413D01*
X115490480Y-81904087D01*
X115415913Y-81829520D01*
X115415912Y-81829519D01*
X115338092Y-81784590D01*
X115324587Y-81776793D01*
X115324584Y-81776792D01*
X115324582Y-81776791D01*
X115222728Y-81749500D01*
X115222727Y-81749500D01*
X115117273Y-81749500D01*
X115117271Y-81749500D01*
X115015417Y-81776791D01*
X115015409Y-81776795D01*
X114924087Y-81829519D01*
X114849519Y-81904087D01*
X114796795Y-81995409D01*
X114796791Y-81995417D01*
X114769500Y-82097271D01*
X114360500Y-82097271D01*
X114360500Y-81577271D01*
X116139500Y-81577271D01*
X116139500Y-81682728D01*
X116166791Y-81784582D01*
X116166795Y-81784590D01*
X116218465Y-81874087D01*
X116219520Y-81875913D01*
X116294087Y-81950480D01*
X116385413Y-82003207D01*
X116487273Y-82030500D01*
X116592727Y-82030500D01*
X116694587Y-82003207D01*
X116782210Y-81952617D01*
X116819997Y-81947643D01*
X116850236Y-81970846D01*
X116855211Y-82008635D01*
X116839500Y-82067271D01*
X116839500Y-82172728D01*
X116866791Y-82274582D01*
X116866792Y-82274584D01*
X116866793Y-82274587D01*
X116884115Y-82304590D01*
X116912418Y-82353613D01*
X116919520Y-82365913D01*
X116994087Y-82440480D01*
X117085413Y-82493207D01*
X117187273Y-82520500D01*
X117292727Y-82520500D01*
X117394587Y-82493207D01*
X117485913Y-82440480D01*
X117560480Y-82365913D01*
X117613207Y-82274587D01*
X117640500Y-82172727D01*
X117640500Y-82067273D01*
X117613207Y-81965413D01*
X117560480Y-81874087D01*
X117485913Y-81799520D01*
X117485912Y-81799519D01*
X117430022Y-81767251D01*
X117394587Y-81746793D01*
X117394584Y-81746792D01*
X117394582Y-81746791D01*
X117292728Y-81719500D01*
X117292727Y-81719500D01*
X117187273Y-81719500D01*
X117187271Y-81719500D01*
X117085417Y-81746791D01*
X117085409Y-81746795D01*
X116997791Y-81797381D01*
X116960002Y-81802356D01*
X116929763Y-81779153D01*
X116924788Y-81741364D01*
X116940500Y-81682727D01*
X116940500Y-81577273D01*
X116913207Y-81475413D01*
X116860480Y-81384087D01*
X116785913Y-81309520D01*
X116785912Y-81309519D01*
X116694590Y-81256795D01*
X116694587Y-81256793D01*
X116694584Y-81256792D01*
X116694582Y-81256791D01*
X116592728Y-81229500D01*
X116592727Y-81229500D01*
X116487273Y-81229500D01*
X116487271Y-81229500D01*
X116385417Y-81256791D01*
X116385409Y-81256795D01*
X116294087Y-81309519D01*
X116219519Y-81384087D01*
X116166795Y-81475409D01*
X116166791Y-81475417D01*
X116139500Y-81577271D01*
X114360500Y-81577271D01*
X114360500Y-81103919D01*
X114361113Y-81096129D01*
X114361436Y-81094087D01*
X114371030Y-81033508D01*
X114374204Y-81022256D01*
X114378531Y-81011810D01*
X114380132Y-81008334D01*
X114404573Y-80960368D01*
X114413723Y-80947774D01*
X114457774Y-80903723D01*
X114470368Y-80894573D01*
X114518334Y-80870132D01*
X114521810Y-80868531D01*
X114532256Y-80864204D01*
X114543508Y-80861030D01*
X114606130Y-80851112D01*
X114613919Y-80850500D01*
X122161157Y-80850500D01*
X122196371Y-80865086D01*
G37*
%TD.AperFunction*%
%TD*%
M02*
