%TF.GenerationSoftware,KiCad,Pcbnew,9.0.2*%
%TF.CreationDate,2026-01-18T21:17:23+03:00*%
%TF.ProjectId,bitLode,6269744c-6f64-4652-9e6b-696361645f70,rev?*%
%TF.SameCoordinates,Original*%
%TF.FileFunction,Legend,Bot*%
%TF.FilePolarity,Positive*%
%FSLAX46Y46*%
G04 Gerber Fmt 4.6, Leading zero omitted, Abs format (unit mm)*
G04 Created by KiCad (PCBNEW 9.0.2) date 2026-01-18 21:17:23*
%MOMM*%
%LPD*%
G01*
G04 APERTURE LIST*
%ADD10C,0.150000*%
%ADD11C,0.000000*%
%ADD12C,0.120000*%
%ADD13C,0.650000*%
%ADD14O,1.000000X2.100000*%
%ADD15O,1.000000X1.800000*%
%ADD16C,1.350000*%
%ADD17R,1.350000X1.350000*%
G04 APERTURE END LIST*
D10*
X122143152Y-108801541D02*
X122809819Y-109039636D01*
X122809819Y-109039636D02*
X122143152Y-109277731D01*
X122809819Y-110182493D02*
X122809819Y-109611065D01*
X122809819Y-109896779D02*
X121809819Y-109896779D01*
X121809819Y-109896779D02*
X121952676Y-109801541D01*
X121952676Y-109801541D02*
X122047914Y-109706303D01*
X122047914Y-109706303D02*
X122095533Y-109611065D01*
X129318333Y-78704819D02*
X129318333Y-79419104D01*
X129318333Y-79419104D02*
X129365952Y-79561961D01*
X129365952Y-79561961D02*
X129461190Y-79657200D01*
X129461190Y-79657200D02*
X129604047Y-79704819D01*
X129604047Y-79704819D02*
X129699285Y-79704819D01*
X128889761Y-78800057D02*
X128842142Y-78752438D01*
X128842142Y-78752438D02*
X128746904Y-78704819D01*
X128746904Y-78704819D02*
X128508809Y-78704819D01*
X128508809Y-78704819D02*
X128413571Y-78752438D01*
X128413571Y-78752438D02*
X128365952Y-78800057D01*
X128365952Y-78800057D02*
X128318333Y-78895295D01*
X128318333Y-78895295D02*
X128318333Y-78990533D01*
X128318333Y-78990533D02*
X128365952Y-79133390D01*
X128365952Y-79133390D02*
X128937380Y-79704819D01*
X128937380Y-79704819D02*
X128318333Y-79704819D01*
D11*
%TO.C,*%
G36*
X118877644Y-89397844D02*
G01*
X118899645Y-89422029D01*
X118961369Y-89608581D01*
X118874198Y-89807425D01*
X118650023Y-89987741D01*
X118447066Y-90078181D01*
X118228649Y-90101960D01*
X118104504Y-90012524D01*
X118095766Y-89816408D01*
X118120688Y-89731141D01*
X118263108Y-89493727D01*
X118464864Y-89343984D01*
X118683771Y-89304496D01*
X118877644Y-89397844D01*
G37*
G36*
X122225019Y-101142285D02*
G01*
X122315101Y-101178544D01*
X122406327Y-101241798D01*
X122434796Y-101346072D01*
X122406478Y-101532121D01*
X122327345Y-101840702D01*
X122212077Y-102247221D01*
X122031629Y-102775232D01*
X121856869Y-103144522D01*
X121684541Y-103361439D01*
X121511390Y-103432333D01*
X121442291Y-103425689D01*
X121310746Y-103329624D01*
X121298699Y-103133134D01*
X121409275Y-102853926D01*
X121427892Y-102818819D01*
X121554453Y-102518835D01*
X121636487Y-102225833D01*
X121649146Y-102152960D01*
X121662482Y-101984464D01*
X121604044Y-101919218D01*
X121444228Y-101908333D01*
X121286932Y-101930691D01*
X121139935Y-102058863D01*
X121089225Y-102317425D01*
X121081703Y-102358438D01*
X120995991Y-102533625D01*
X120846214Y-102738639D01*
X120740178Y-102856390D01*
X120600233Y-102961890D01*
X120427393Y-102999026D01*
X120153955Y-102992639D01*
X119895214Y-102972660D01*
X119750107Y-102928689D01*
X119676116Y-102827949D01*
X119623742Y-102637266D01*
X119598712Y-102512892D01*
X119600150Y-102275662D01*
X119618383Y-102233091D01*
X120256155Y-102233091D01*
X120266896Y-102306036D01*
X120379924Y-102298392D01*
X120449733Y-102273339D01*
X120549258Y-102247000D01*
X120565786Y-102231872D01*
X120584666Y-102117021D01*
X120584221Y-102098135D01*
X120545546Y-102030446D01*
X120415333Y-102077667D01*
X120339977Y-102127699D01*
X120256155Y-102233091D01*
X119618383Y-102233091D01*
X119699115Y-102044600D01*
X119766928Y-101935922D01*
X119986501Y-101661703D01*
X120212566Y-101471508D01*
X120406687Y-101400333D01*
X120422809Y-101399670D01*
X120545546Y-101370189D01*
X120610557Y-101354574D01*
X120839219Y-101260367D01*
X120863029Y-101248957D01*
X121182170Y-101148249D01*
X121564417Y-101092737D01*
X121936467Y-101088667D01*
X122225019Y-101142285D01*
G37*
G36*
X121727666Y-98543655D02*
G01*
X121976687Y-98566272D01*
X122254573Y-98626878D01*
X122454988Y-98709193D01*
X122532000Y-98802424D01*
X122528378Y-98840562D01*
X122437005Y-99040559D01*
X122263481Y-99239078D01*
X122062751Y-99369695D01*
X121941452Y-99445600D01*
X121877184Y-99612222D01*
X121964428Y-99748905D01*
X122210012Y-99852336D01*
X122617827Y-99922012D01*
X122743667Y-99956319D01*
X122996241Y-100077316D01*
X123285748Y-100253491D01*
X123564789Y-100452731D01*
X123785966Y-100642925D01*
X123901882Y-100791960D01*
X123948363Y-100918434D01*
X123949888Y-101035477D01*
X123865500Y-101162329D01*
X123846809Y-101183732D01*
X123652973Y-101306985D01*
X123416064Y-101360435D01*
X123221055Y-101322911D01*
X123198247Y-101307502D01*
X123150321Y-101216974D01*
X123211311Y-101057970D01*
X123243411Y-100993519D01*
X123262943Y-100857498D01*
X123156553Y-100741832D01*
X122848399Y-100565009D01*
X122370622Y-100424665D01*
X121846724Y-100382047D01*
X121330516Y-100440428D01*
X120875810Y-100603082D01*
X120741963Y-100668188D01*
X120554165Y-100734282D01*
X120461896Y-100729844D01*
X120400295Y-100702279D01*
X120190785Y-100709522D01*
X119858115Y-100769488D01*
X119423264Y-100878107D01*
X118907209Y-101031313D01*
X118804947Y-101062827D01*
X118479042Y-101149598D01*
X118242531Y-101190569D01*
X118130079Y-101179143D01*
X118124791Y-101173061D01*
X118067932Y-101031953D01*
X118029536Y-100813323D01*
X118028464Y-100651938D01*
X118097079Y-100457795D01*
X118276004Y-100241823D01*
X118380218Y-100140976D01*
X118599126Y-99991117D01*
X118769768Y-99988672D01*
X118910982Y-100130333D01*
X118913349Y-100134075D01*
X119068401Y-100261054D01*
X119335032Y-100299667D01*
X119479329Y-100298941D01*
X119615882Y-100277733D01*
X119636142Y-100196962D01*
X119573765Y-100016745D01*
X119553918Y-99953878D01*
X119553662Y-99749047D01*
X119616166Y-99591496D01*
X120344388Y-99591496D01*
X120353785Y-99734480D01*
X120442402Y-99889792D01*
X120572989Y-99982478D01*
X120664943Y-99989273D01*
X120845351Y-99925053D01*
X120907969Y-99872111D01*
X121098921Y-99684861D01*
X121116010Y-99664667D01*
X121685333Y-99664667D01*
X121727666Y-99707000D01*
X121770000Y-99664667D01*
X121727666Y-99622333D01*
X121685333Y-99664667D01*
X121116010Y-99664667D01*
X121261043Y-99493287D01*
X121362743Y-99337412D01*
X121372433Y-99257258D01*
X121343265Y-99252123D01*
X121185739Y-99275374D01*
X120951508Y-99335227D01*
X120698074Y-99414359D01*
X120482939Y-99495449D01*
X120363605Y-99561172D01*
X120344388Y-99591496D01*
X119616166Y-99591496D01*
X119657761Y-99486648D01*
X119674035Y-99454114D01*
X119759852Y-99222041D01*
X119730452Y-99109669D01*
X119718851Y-99091936D01*
X119794642Y-99043228D01*
X119985124Y-98998253D01*
X120068165Y-98982684D01*
X120255773Y-98925342D01*
X120330666Y-98865038D01*
X120333129Y-98850420D01*
X120438663Y-98762621D01*
X120678048Y-98676708D01*
X121021172Y-98601376D01*
X121343265Y-98558053D01*
X121437923Y-98545321D01*
X121667258Y-98538169D01*
X121727666Y-98543655D01*
G37*
G36*
X118544370Y-85728703D02*
G01*
X118675791Y-85895763D01*
X118706052Y-86094283D01*
X118576155Y-86294082D01*
X118541045Y-86330432D01*
X118506406Y-86388409D01*
X118559792Y-86412685D01*
X118727958Y-86408247D01*
X119037660Y-86380080D01*
X119370943Y-86340474D01*
X119695657Y-86289564D01*
X119923779Y-86240283D01*
X120106576Y-86204715D01*
X120421187Y-86172680D01*
X120761973Y-86160333D01*
X120850109Y-86159625D01*
X121370085Y-86114388D01*
X121614782Y-86041346D01*
X121791901Y-85988476D01*
X122166517Y-85767640D01*
X122269991Y-85693524D01*
X122464387Y-85587862D01*
X122592999Y-85596565D01*
X122694551Y-85715833D01*
X122744795Y-85803982D01*
X122783425Y-85878654D01*
X122775457Y-85891068D01*
X122687125Y-85988543D01*
X122532000Y-86147308D01*
X122471612Y-86210112D01*
X122333256Y-86377925D01*
X122278000Y-86485387D01*
X122252109Y-86546210D01*
X122136826Y-86706027D01*
X121960500Y-86908647D01*
X121883318Y-86991036D01*
X121510617Y-87386181D01*
X121230394Y-87677146D01*
X121024592Y-87881994D01*
X120875155Y-88018788D01*
X120764028Y-88105592D01*
X120656476Y-88184192D01*
X120637565Y-88240942D01*
X120753443Y-88293364D01*
X120760404Y-88296004D01*
X120901739Y-88412083D01*
X120892103Y-88571773D01*
X120732833Y-88745704D01*
X120634453Y-88820299D01*
X120607018Y-88860584D01*
X120711666Y-88838332D01*
X120782561Y-88821357D01*
X121058536Y-88777776D01*
X121400838Y-88743607D01*
X121751017Y-88722741D01*
X122050619Y-88719071D01*
X122241193Y-88736488D01*
X122390887Y-88811951D01*
X122439646Y-88960699D01*
X122331312Y-89142925D01*
X122316112Y-89159194D01*
X122195168Y-89327493D01*
X122067408Y-89551140D01*
X121847287Y-89907872D01*
X121608360Y-90142742D01*
X121374241Y-90224333D01*
X121314990Y-90219957D01*
X121193579Y-90140987D01*
X121204247Y-89975042D01*
X121347852Y-89737929D01*
X121360322Y-89721931D01*
X121464837Y-89572084D01*
X121494708Y-89497487D01*
X121493261Y-89496597D01*
X121393433Y-89498256D01*
X121174119Y-89521509D01*
X120879689Y-89561720D01*
X120680150Y-89590760D01*
X120263625Y-89643646D01*
X119979126Y-89662273D01*
X119801952Y-89645381D01*
X119707402Y-89591709D01*
X119670772Y-89499995D01*
X119697652Y-89345971D01*
X119818939Y-89169373D01*
X119934105Y-89037317D01*
X119992000Y-88903678D01*
X120022119Y-88817221D01*
X120145348Y-88683967D01*
X120243537Y-88601783D01*
X120367607Y-88458446D01*
X120388339Y-88413640D01*
X120348864Y-88375272D01*
X120177002Y-88400558D01*
X120026954Y-88422647D01*
X119897573Y-88374914D01*
X119786396Y-88204058D01*
X119767605Y-88163936D01*
X119689390Y-87853629D01*
X119669042Y-87452182D01*
X119667968Y-87301343D01*
X120401895Y-87301343D01*
X120446570Y-87471810D01*
X120517685Y-87548513D01*
X120606503Y-87542947D01*
X120756491Y-87425961D01*
X120826466Y-87364722D01*
X121050357Y-87169924D01*
X121290224Y-86962336D01*
X121614782Y-86682340D01*
X121099298Y-86703985D01*
X120861128Y-86718635D01*
X120641246Y-86743326D01*
X120539294Y-86770150D01*
X120486314Y-86848006D01*
X120418951Y-87064596D01*
X120401895Y-87301343D01*
X119667968Y-87301343D01*
X119666664Y-87118166D01*
X119628653Y-86890568D01*
X119547070Y-86798715D01*
X119415361Y-86826443D01*
X119327088Y-86859000D01*
X119117934Y-86875582D01*
X118984228Y-86874639D01*
X118760424Y-86921090D01*
X118437723Y-87025956D01*
X117989336Y-87196861D01*
X117751860Y-87276585D01*
X117469418Y-87310654D01*
X117311858Y-87239111D01*
X117284583Y-87072821D01*
X117392996Y-86822648D01*
X117642499Y-86499454D01*
X117805938Y-86312141D01*
X118025218Y-86042822D01*
X118184536Y-85826210D01*
X118366740Y-85551074D01*
X118544370Y-85728703D01*
G37*
G36*
X120112662Y-90267910D02*
G01*
X120232197Y-90296933D01*
X120278703Y-90400738D01*
X120285067Y-90626524D01*
X120290824Y-90816875D01*
X120328414Y-90937891D01*
X120412067Y-90950345D01*
X120584841Y-90908639D01*
X120817500Y-90858927D01*
X120839968Y-90854163D01*
X121019169Y-90794953D01*
X121092666Y-90730794D01*
X121092738Y-90728937D01*
X121173017Y-90668682D01*
X121369868Y-90619183D01*
X121632078Y-90586830D01*
X121908430Y-90578016D01*
X122147713Y-90599130D01*
X122162591Y-90602052D01*
X122400273Y-90678988D01*
X122570630Y-90783059D01*
X122642446Y-90875568D01*
X122650261Y-90998100D01*
X122578063Y-91202131D01*
X122525279Y-91315382D01*
X122371630Y-91594295D01*
X122193977Y-91874397D01*
X122091200Y-92035040D01*
X122011587Y-92194582D01*
X122014227Y-92256333D01*
X122049360Y-92271056D01*
X122134431Y-92389587D01*
X122198212Y-92562114D01*
X122207137Y-92709745D01*
X122209086Y-92758554D01*
X122279148Y-92892717D01*
X122306162Y-92956062D01*
X122339256Y-93175959D01*
X122356231Y-93502889D01*
X122357891Y-93898043D01*
X122345041Y-94322612D01*
X122318486Y-94737789D01*
X122279029Y-95104764D01*
X122227476Y-95384729D01*
X122075328Y-95787298D01*
X121849192Y-96114314D01*
X121828121Y-96136153D01*
X121687561Y-96297218D01*
X121659144Y-96385375D01*
X121729600Y-96436360D01*
X121809964Y-96456211D01*
X121953241Y-96438737D01*
X121958911Y-96435858D01*
X122077227Y-96460911D01*
X122237886Y-96576419D01*
X122439237Y-96765578D01*
X122212976Y-97072122D01*
X122064732Y-97258230D01*
X121803295Y-97543970D01*
X121520245Y-97816905D01*
X121248323Y-98047914D01*
X121020269Y-98207875D01*
X120868826Y-98267667D01*
X120830506Y-98276805D01*
X120669352Y-98340260D01*
X120442672Y-98444258D01*
X120239889Y-98525492D01*
X119926134Y-98563094D01*
X119698355Y-98463986D01*
X119565372Y-98238786D01*
X119536006Y-97898116D01*
X119619078Y-97452596D01*
X119639609Y-97390657D01*
X120317385Y-97390657D01*
X120333191Y-97554390D01*
X120477113Y-97645675D01*
X120725151Y-97639003D01*
X120846460Y-97600695D01*
X121058568Y-97493485D01*
X121247224Y-97359996D01*
X121369106Y-97232878D01*
X121380893Y-97144782D01*
X121340859Y-97125211D01*
X121164898Y-97094458D01*
X120914023Y-97082333D01*
X120691661Y-97092651D01*
X120503457Y-97148097D01*
X120378087Y-97270096D01*
X120317385Y-97390657D01*
X119639609Y-97390657D01*
X119672234Y-97292232D01*
X119782952Y-97045232D01*
X119889142Y-96895058D01*
X120113988Y-96724919D01*
X120578424Y-96487073D01*
X120914023Y-96417864D01*
X121037253Y-96392451D01*
X121117924Y-96388243D01*
X121353183Y-96351282D01*
X121431199Y-96285174D01*
X121346666Y-96193333D01*
X121344860Y-96192202D01*
X121266407Y-96050133D01*
X121314036Y-95816466D01*
X121484294Y-95508393D01*
X121510749Y-95468702D01*
X121632143Y-95241462D01*
X121687109Y-95001435D01*
X121695075Y-94671478D01*
X121688291Y-94457964D01*
X121662271Y-94144983D01*
X121612012Y-93965175D01*
X121528321Y-93894637D01*
X121402004Y-93909465D01*
X121303472Y-93937297D01*
X121054968Y-93999461D01*
X120716140Y-94079478D01*
X120330666Y-94166854D01*
X120317118Y-94169863D01*
X119802152Y-94286100D01*
X119435185Y-94376964D01*
X119198973Y-94452046D01*
X119076269Y-94520939D01*
X119049828Y-94593235D01*
X119102403Y-94678525D01*
X119216748Y-94786402D01*
X119269781Y-94835494D01*
X119395325Y-95020243D01*
X119366675Y-95199044D01*
X119181948Y-95405378D01*
X119000143Y-95561354D01*
X118884268Y-95625434D01*
X118787537Y-95597959D01*
X118653535Y-95487718D01*
X118587394Y-95422327D01*
X118418897Y-95160484D01*
X118319267Y-94856097D01*
X118302159Y-94566309D01*
X118381230Y-94348260D01*
X118525112Y-94173205D01*
X118705394Y-93978898D01*
X118884128Y-93840423D01*
X119095349Y-93743527D01*
X119373094Y-93673961D01*
X119751397Y-93617473D01*
X120264294Y-93559812D01*
X120507266Y-93528485D01*
X120859245Y-93467732D01*
X121135000Y-93403017D01*
X121211006Y-93379958D01*
X121386142Y-93305682D01*
X121452032Y-93200981D01*
X121452034Y-93012441D01*
X121408193Y-92752824D01*
X121331948Y-92531602D01*
X121319255Y-92506032D01*
X121285858Y-92373378D01*
X121335836Y-92231314D01*
X121486275Y-92023602D01*
X121645484Y-91817034D01*
X121778691Y-91606454D01*
X121795297Y-91482747D01*
X121694993Y-91424341D01*
X121477468Y-91409667D01*
X121375555Y-91412509D01*
X121027513Y-91446276D01*
X120688581Y-91505922D01*
X120271577Y-91602178D01*
X120176289Y-92114565D01*
X120122597Y-92351094D01*
X120041495Y-92601233D01*
X119963929Y-92744023D01*
X119954910Y-92752684D01*
X119815384Y-92802962D01*
X119691410Y-92712089D01*
X119602625Y-92506472D01*
X119568666Y-92212516D01*
X119568666Y-91842127D01*
X119143457Y-91968401D01*
X118981285Y-92011225D01*
X118757937Y-92050101D01*
X118635457Y-92043507D01*
X118628739Y-92039137D01*
X118555298Y-91899151D01*
X118602130Y-91693727D01*
X118760290Y-91464363D01*
X118881401Y-91345318D01*
X119066039Y-91239482D01*
X119282205Y-91231419D01*
X119300296Y-91232218D01*
X119447484Y-91150711D01*
X119586030Y-90934531D01*
X119695666Y-90613944D01*
X119705040Y-90576132D01*
X119773035Y-90373315D01*
X119867736Y-90285606D01*
X120034333Y-90266667D01*
X120112662Y-90267910D01*
G37*
D12*
%TO.C,J2*%
X134355000Y-80690000D02*
X134355000Y-94810000D01*
X134355000Y-80690000D02*
X127885000Y-80690000D01*
X134355000Y-80810000D02*
X127885000Y-80810000D01*
X134355000Y-80924118D02*
X127885000Y-80924118D01*
X134355000Y-81038236D02*
X127885000Y-81038236D01*
X134355000Y-81152354D02*
X127885000Y-81152354D01*
X134355000Y-81266472D02*
X127885000Y-81266472D01*
X134355000Y-81380590D02*
X127885000Y-81380590D01*
X134355000Y-81494708D02*
X127885000Y-81494708D01*
X134355000Y-81608826D02*
X127885000Y-81608826D01*
X134355000Y-81722944D02*
X127885000Y-81722944D01*
X134355000Y-81837062D02*
X127885000Y-81837062D01*
X134355000Y-81951180D02*
X127885000Y-81951180D01*
X134355000Y-82065298D02*
X127885000Y-82065298D01*
X134355000Y-82179416D02*
X127885000Y-82179416D01*
X134355000Y-82293534D02*
X127885000Y-82293534D01*
X134355000Y-82407652D02*
X127885000Y-82407652D01*
X134355000Y-82521770D02*
X127885000Y-82521770D01*
X134355000Y-82635888D02*
X127885000Y-82635888D01*
X134355000Y-82750000D02*
X127885000Y-82750000D01*
X134355000Y-84750000D02*
X127885000Y-84750000D01*
X134355000Y-86750000D02*
X127885000Y-86750000D01*
X134355000Y-88750000D02*
X127885000Y-88750000D01*
X134355000Y-90750000D02*
X127885000Y-90750000D01*
X134355000Y-92750000D02*
X127885000Y-92750000D01*
X134355000Y-94810000D02*
X127885000Y-94810000D01*
X127885000Y-80690000D02*
X127885000Y-94810000D01*
X127885000Y-81390000D02*
X127537917Y-81390000D01*
X127885000Y-82110000D02*
X127537917Y-82110000D01*
X127885000Y-83390000D02*
X127537917Y-83390000D01*
X127885000Y-84110000D02*
X127537917Y-84110000D01*
X127885000Y-85390000D02*
X127537917Y-85390000D01*
X127885000Y-86110000D02*
X127537917Y-86110000D01*
X127885000Y-87390000D02*
X127537917Y-87390000D01*
X127885000Y-88110000D02*
X127537917Y-88110000D01*
X127885000Y-89390000D02*
X127537917Y-89390000D01*
X127885000Y-90110000D02*
X127537917Y-90110000D01*
X127885000Y-91390000D02*
X127537917Y-91390000D01*
X127885000Y-92110000D02*
X127537917Y-92110000D01*
X127885000Y-93390000D02*
X127537917Y-93390000D01*
X127885000Y-94110000D02*
X127537917Y-94110000D01*
X125812083Y-81390000D02*
X125610000Y-81390000D01*
X125812083Y-82110000D02*
X125610000Y-82110000D01*
X125812083Y-83390000D02*
X125537917Y-83390000D01*
X125812083Y-84110000D02*
X125537917Y-84110000D01*
X125812083Y-85390000D02*
X125537917Y-85390000D01*
X125812083Y-86110000D02*
X125537917Y-86110000D01*
X125812083Y-87390000D02*
X125537917Y-87390000D01*
X125812083Y-88110000D02*
X125537917Y-88110000D01*
X125812083Y-89390000D02*
X125537917Y-89390000D01*
X125812083Y-90110000D02*
X125537917Y-90110000D01*
X125812083Y-91390000D02*
X125537917Y-91390000D01*
X125812083Y-92110000D02*
X125537917Y-92110000D01*
X125812083Y-93390000D02*
X125537917Y-93390000D01*
X125812083Y-94110000D02*
X125537917Y-94110000D01*
X124675000Y-80690000D02*
X123740000Y-80690000D01*
X123740000Y-80690000D02*
X123740000Y-81750000D01*
%TD*%
%LPC*%
D13*
%TO.C,J1*%
X118150000Y-104500000D03*
X123930000Y-104500000D03*
D14*
X116720000Y-104000000D03*
D15*
X116720000Y-108180000D03*
D14*
X125360000Y-104000000D03*
D15*
X125360000Y-108180000D03*
%TD*%
D16*
%TO.C,J2*%
X126675000Y-93750000D03*
X124675000Y-93750000D03*
X126675000Y-91750000D03*
X124675000Y-91750000D03*
X126675000Y-89750000D03*
X124675000Y-89750000D03*
X126675000Y-87750000D03*
X124675000Y-87750000D03*
X126675000Y-85750000D03*
X124675000Y-85750000D03*
X126675000Y-83750000D03*
X124675000Y-83750000D03*
X126675000Y-81750000D03*
D17*
X124675000Y-81750000D03*
%TD*%
%LPD*%
M02*
